<?xml version="1.0" standalone="no"?>
<!DOCTYPE svg PUBLIC "-//W3C//DTD SVG 1.1//EN" "http://www.w3.org/Graphics/SVG/1.1/DTD/svg11.dtd" >
<svg>
<metadata>
Created by FontForge 20090914 at Mon Aug 24 22:50:08 2015
 By www-data
Copyright 1991, Atech Software, Carlsbad CA 
</metadata>
<defs>
<font id="Lazurski-Bold" horiz-adv-x="10" >
  <font-face 
    font-family="Lazurski"
    font-weight="700"
    font-stretch="normal"
    units-per-em="1000"
    panose-1="0 0 0 0 0 0 0 0 0 0"
    ascent="800"
    descent="-200"
    x-height="440.006"
    cap-height="679.003"
    bbox="-94.001 -273 1130 863.002"
    underline-thickness="50"
    underline-position="-55"
    unicode-range="U+0020-U+2219"
  />
<missing-glyph 
 />
    <glyph glyph-name=".notdef" 
 />
    <glyph glyph-name="space" unicode=" " horiz-adv-x="361" 
 />
    <glyph glyph-name="exclam" unicode="!" horiz-adv-x="374" 
d="M176 58c0 21.333 6.16699 39.5 18.5 54.5s28.166 22.5 47.499 22.5h10c18.667 0 34.667 -7 48 -21s20 -32.667 20 -56c0 -22.667 -6.83301 -41.167 -20.5 -55.5s-29.5 -21.5 -47.5 -21.5l-10 -1c-17.333 0.666992 -32.666 8.16699 -45.999 22.5s-20 32.833 -20 55.5v0z
M265 209l-47.998 -0.00195312c0.666992 6 1 12.167 1 18.5v19.5c0 23.333 -1.66699 50 -5 80s-9.66602 70 -18.999 120c-9.33301 52.667 -17.333 94.834 -24 126.501s-10 61.167 -10 88.5c0 30 8.16699 51.667 24.5 65s34.166 20.333 53.499 21h1.5h1.5h10
c25.333 0 44.166 -9 56.499 -27s18.5 -37.667 18.5 -59c0 -10 -1.33301 -26 -4 -48s-6 -45.333 -10 -70l-2 -12l-2 -12l-6 -40.5c-2 -13 -4 -24.167 -6 -33.5c-2 -13.333 -4.16699 -26.166 -6.5 -38.499s-4.5 -24.833 -6.5 -37.5
c-2.66699 -20 -4.83398 -39.833 -6.50098 -59.5s-2.5 -40.5 -2.5 -62.5v-19.5c0 -6.33301 0.333008 -12.833 1 -19.5h-10v0z" />
    <glyph glyph-name="quotedbl" unicode="&#x22;" horiz-adv-x="422" 
d="M175 679l-28 -218h-10h-39l-28 218h10h95v0zM352 679l-29 -218h-10h-38l-29 218h10h96v0z" />
    <glyph glyph-name="numbersign" unicode="#" horiz-adv-x="698" 
d="M438 0h-65l30 174h-168l-30 -174h-10h-65l30 174h-154l13 72h154l35 193h-155l13 72h155l30 168h10h65l-30 -168h167l30 168h10h65l-30 -168h154l-13 -72h-154l-34 -193h154l-13 -72h-154l-30 -174h-10v0zM416 246l34 193h-167l-34 -193h167v0z" />
    <glyph glyph-name="dollar" unicode="$" horiz-adv-x="128" 
d="M139 -118h-49.002v104h-28c-76 0.666992 -120.667 14.334 -134 41.001s-20.666 69.334 -21.999 128.001v4.5v4.5v8.5v9.5v4.5v4.5h9h41c2 -36.667 14 -70.5 36 -101.5s54.667 -49.5 98 -55.5v269l-33.5 24.5c-11 7.66699 -21.5 15.5 -31.5 23.5
c-30 23.333 -55.333 48.333 -76 75s-31 61.667 -31 105c0 48.667 16 86 48 112s67.333 41.333 106 46c2.66699 0 5.66699 0.166992 9 0.5s6.33301 0.5 9 0.5v86h10h49v-87c33.333 -4 62.333 -6.66699 87 -8s44.667 -2.33301 60 -3v-67
c0 -10.667 0.166992 -20.334 0.5 -29.001s0.5 -17.334 0.5 -26.001l2 -22c0.666992 -7.33301 1.66699 -15.333 3 -24h-10h-37c-0.666992 8 -2 16.5 -4 25.5s-4.66699 18.167 -8 27.5c-7.33301 19.333 -18.166 37.5 -32.499 54.5s-34.833 27.833 -61.5 32.5v-228
c8.66699 -6 17 -12.167 25 -18.5l24 -18.5c39.333 -30.667 72 -62.667 98 -96s39 -73 39 -119c0 -44 -15.667 -79.833 -47 -107.5s-66 -47.5 -104 -59.5c-5.33301 -2 -11 -3.66699 -17 -5l-18 -4v-112h-10v0zM148.998 254l0.000976562 -214c19.333 6 34 16.833 44 32.5
s16 32.5 18 50.5c0.666992 2.66699 1 5.16699 1 7.5v6.5c0 7.33301 -0.833008 14.833 -2.5 22.5s-3.83398 15.5 -6.50098 23.5c-5.33301 12.667 -12.5 25.167 -21.5 37.5s-19.833 23.5 -32.5 33.5v0zM89.999 468v175.999c-15.333 -6.66699 -28.333 -16.667 -39 -30
s-16 -29.666 -16 -48.999s5 -36.833 15 -52.5s23.333 -30.5 40 -44.5v0z" />
    <glyph glyph-name="percent" unicode="%" horiz-adv-x="990" 
d="M963 -9c0 -57.333 -15.833 -103.834 -47.5 -139.501s-72.5 -53.5 -122.5 -53.5l-10 -1c-2 0.666992 -3.83301 1 -5.5 1h-5.5c-40.667 2.66699 -78 19.834 -112 51.501s-51 79.167 -51 142.5c0 62.667 17.5 111 52.5 145s74.833 51 119.5 51h10
c46.667 0 87 -17.167 121 -51.5s51 -82.5 51 -144.5v-1zM918 -15.001c0 37.333 -11.999 68.8291 -35.999 94.4961s-56.667 38.834 -98 39.501c-40.667 -0.666992 -72.667 -13.167 -96 -37.5s-35 -56.166 -35 -95.499c0 -42 13.333 -73.5 40 -94.5s58 -31.833 94 -32.5
c36.667 0.666992 64.5 9.16699 83.5 25.5s31.833 33.833 38.5 52.5c3.33301 8.66699 5.66602 17.334 6.99902 26.001s2 16.334 2 23.001v-1zM696.001 585.995l-1.00195 0.998047l-4 -4l-4 -4c-16.667 -16 -35.5 -30.833 -56.5 -44.5s-42.167 -21.5 -63.5 -23.5
c-1.33301 -0.666992 -2.83301 -1 -4.5 -1h-5.5h-10c-13.333 0 -25.5 0.333008 -36.5 1s-20.167 1.33398 -27.5 2.00098c-4.66699 -66 -24 -114.167 -58 -144.5s-72 -45.5 -114 -45.5h-10h-9c-3.33301 0 -6.33301 0.333008 -9 1c-39.333 4 -75.333 21.833 -108 53.5
s-49 78.167 -49 139.5c0 54.667 15.167 100.667 45.5 138s73.166 56 128.499 56h10c48.667 0 87.834 -15.333 117.501 -46s48.167 -67.334 55.5 -110.001c8 -4.66699 16.167 -8.16699 24.5 -10.5s16.833 -3.83301 25.5 -4.5c8 0 16.333 1 25 3s17.334 4.66699 26.001 8
c32.667 12.667 64.167 34.167 94.5 64.5s54.5 64.5 72.5 102.5h10c8 -5.33301 16.333 -10.5 25 -15.5l26 -14.5c-20 -29.333 -38 -58.166 -54 -86.499s-31 -56.166 -45 -83.499c-13.333 -25.333 -25.666 -50.833 -36.999 -76.5l-34 -78.5l-104.5 -242.5
c-37.667 -87 -89.834 -188.167 -156.501 -303.5l-10 -1l-24 15.5c-8 5 -16 9.5 -24 13.5c53.333 78 92.833 143.333 118.5 196s47.834 103 66.501 151c1.33301 3.33301 2.5 6.5 3.5 9.5s2.16699 6.16699 3.5 9.5l65.5 160c24.333 57.333 62.833 129 115.5 215v0z
M400.999 607.993c-9.33301 6.66699 -19.167 12.5 -29.5 17.5s-20.5 8.83301 -30.5 11.5c-6 2 -12.167 3.5 -18.5 4.5s-12.5 1.5 -18.5 1.5c-2 0 -4.16699 -0.166992 -6.5 -0.5s-4.5 -0.5 -6.5 -0.5c-30 -3.33301 -57.5 -15.333 -82.5 -36s-37.5 -52.334 -37.5 -95.001
c0 -34 11.667 -62.667 35 -86s56.333 -35.666 99 -36.999c38.667 0.666992 67.5 8.5 86.5 23.5s32.167 31.5 39.5 49.5c4.66699 11.333 7.66699 22.166 9 32.499s2 19.166 2 26.499v3c-10.667 6.66699 -19.5 15 -26.5 25s-11.833 20.333 -14.5 31
c-0.666992 2.66699 -1.16699 5.33398 -1.5 8.00098s-0.5 5.33398 -0.5 8.00098c0 1.33301 0.166992 2.5 0.5 3.5s0.5 2.16699 0.5 3.5c0 0.666992 0.166992 1.66699 0.5 3s0.5 2.33301 0.5 3v0z" />
    <glyph glyph-name="ampersand" unicode="&#x26;" horiz-adv-x="822" 
d="M864 93l-0.00195312 -63.9971c-14.667 -8 -28.167 -15 -40.5 -21s-24.5 -11 -36.5 -15c-9.33301 -2.66699 -18.833 -4.83398 -28.5 -6.50098s-19.834 -2.5 -30.501 -2.5l-10 -1c-42 0.666992 -77.667 10 -107 28s-57.333 45.333 -84 82
c-23.333 -28.667 -49.666 -50.667 -78.999 -66s-59.333 -26 -90 -32c-14.667 -2.66699 -29.5 -4.66699 -44.5 -6s-29.833 -2 -44.5 -2l-10 -1c-2.66699 0.666992 -5.66699 1.16699 -9 1.5s-6.33301 0.5 -9 0.5c-39.333 4 -75.333 20.833 -108 50.5s-49 67.834 -49 114.501
v9.5c0 3 0.333008 5.83301 1 8.5c3.33301 43.333 19.666 85.833 48.999 127.5s74.333 77.834 135 108.501c-28.667 17.333 -53.167 38 -73.5 62s-30.5 53.667 -30.5 89c0 38 15.667 71.167 47 99.5s75 42.5 131 42.5h10c45.333 0 83.5 -11.333 114.5 -34s46.5 -51 46.5 -85
c0 -25.333 -8.33301 -50.333 -25 -75s-48 -46.667 -94 -66l35 -33c11.333 -10.667 22 -21.667 32 -33c20.667 -22.667 40 -45.834 58 -69.501s35.333 -48.834 52 -75.501l9 15.5c3.33301 5.66699 6.33301 11.167 9 16.5c6.66699 12 13 24.333 19 37s11.667 25.667 17 39
c6.66699 16 12.334 31.833 17.001 47.5s8 30.167 10 43.5c0.666992 3.33301 1 6.33301 1 9v8v6c0 2 -0.333008 4 -1 6c-2.66699 15.333 -8.66699 24.5 -18 27.5s-19.666 4.5 -30.999 4.5h-10v36h10c8 0 14.833 -0.166992 20.5 -0.5s11.5 -0.833008 17.5 -1.5
c4 0 8 -0.166992 12 -0.5s8.66699 -0.833008 14 -1.5c8.66699 -0.666992 18.167 -1.5 28.5 -2.5s21.166 -1.5 32.499 -1.5c5.33301 0 10.5 0.166992 15.5 0.5s10.167 0.833008 15.5 1.5c2.66699 0.666992 5.33398 1.16699 8.00098 1.5s5.33398 0.5 8.00098 0.5
c8 0.666992 16.5 1.5 25.5 2.5s19.167 1.5 30.5 1.5h10v-36h-14c-16 0 -29.667 -2.5 -41 -7.5s-22 -13.833 -32 -26.5c-10 -12 -20.5 -28.167 -31.5 -48.5l-39.5 -76.5l-15 -31c-4.66699 -9.33301 -9.33398 -18 -14.001 -26c-0.666992 -2.66699 -1.66699 -5.16699 -3 -7.5
s-2.66602 -4.5 -3.99902 -6.5c-5.33301 -11.333 -11.5 -22.833 -18.5 -34.5s-15.5 -24.834 -25.5 -39.501c39.333 -60.667 71.333 -99.667 96 -117s42.667 -26.666 54 -27.999c20.667 0.666992 39 5.66699 55 15s29 19.333 39 30
c0.666992 1.33301 1.66699 2.66602 3 3.99902s2.33301 2.66602 3 3.99902h10v0zM303.998 376.003c-38 -32.667 -63.6641 -64.999 -76.9971 -96.999s-20 -61.333 -20 -88c0 -4.66699 0.166992 -9.33398 0.5 -14.001s0.833008 -9.33398 1.5 -14.001
c4.66699 -24.667 15.167 -48.167 31.5 -70.5s40.166 -37.5 71.499 -45.5c3.33301 -0.666992 6.5 -1.33398 9.5 -2.00098s6.16699 -1 9.5 -1c2.66699 -0.666992 5.66699 -1 9 -1h9h-10c6 0 12 0.333008 18 1s12 1.66699 18 3c25.333 6 48.666 17.333 69.999 34
s39.333 34.334 54 53.001c-42 65.333 -79.333 116.833 -112 154.5s-60.334 66.834 -83.001 87.501v0zM361.001 469.004c13.333 10 24.167 21.167 32.5 33.5s14.833 24.833 19.5 37.5c2.66699 7.33301 4.5 14.333 5.5 21s1.5 13.334 1.5 20.001
c0 21.333 -6.16699 39.833 -18.5 55.5s-29.5 24.167 -51.5 25.5c-20 -0.666992 -37 -7.33398 -51 -20.001s-21 -27.667 -21 -45c0 -22.667 6.66699 -44 20 -64s28 -36.667 44 -50l9.5 -7.5c3 -2.33301 6.16699 -4.5 9.5 -6.5v0z" />
    <glyph glyph-name="quotesingle" unicode="'" 
 />
    <glyph glyph-name="parenleft" unicode="(" horiz-adv-x="542" 
d="M506 736l22 -35.001l-10.5 -8c-3.66699 -2.66699 -7.16699 -5.66699 -10.5 -9c-46.667 -39.333 -89.5 -93 -128.5 -161s-58.5 -153.333 -58.5 -256c0 -36 5 -81.333 15 -136s34.333 -110.667 73 -168c14.667 -22 31.834 -44 51.501 -66s42.5 -43.333 68.5 -64l-22 -36
h-10c-108 65.333 -184 138.833 -228 220.5s-66 164.834 -66 249.501c0 89.333 23.167 173.833 69.5 253.5s121.166 151.5 224.499 215.5h10v0z" />
    <glyph glyph-name="parenright" unicode=")" horiz-adv-x="541" 
d="M147 -203l-21 34.998l16.5 14.5l16.5 14.5c44 40.667 84.167 94 120.5 160s54.5 148 54.5 246v13.5c0 4.33301 -0.333008 8.5 -1 12.5c-3.33301 76 -21.666 149.833 -54.999 221.5s-84 133.834 -152 186.501l21 35h10c89.333 -54.667 160.666 -120.167 213.999 -196.5
s80 -167.166 80 -272.499c0 -106 -27 -197.167 -81 -273.5s-125 -141.5 -213 -195.5l-10 -1v0z" />
    <glyph glyph-name="asterisk" unicode="*" horiz-adv-x="543" 
d="M292 571c-0.666992 2.66699 -3.50977 4.82617 -8.50977 6.49316s-12.167 2.83398 -21.5 3.50098l-10 2l-10 2c-14.667 4 -28.667 9.66699 -42 17s-24.666 15 -33.999 23c-6 5.33301 -10.667 10.666 -14 15.999s-5 10 -5 14c0 6 1 11.5 3 16.5s5.33301 7.5 10 7.5h10
c2.66699 0 8.16699 -1 16.5 -3s17.5 -4.66699 27.5 -8c1.33301 0 2.83301 -0.333008 4.5 -1s3.16699 -1.33398 4.5 -2.00098c8.66699 -2 16.334 -4.16699 23.001 -6.5s10.667 -4.16602 12 -5.49902c1.33301 -0.666992 2.5 -1.5 3.5 -2.5s2.16699 -1.83301 3.5 -2.5l10 -10.5
l10 -11.5l13.5 -16c4.33301 -5.33301 8.16602 -9.33301 11.499 -12v1.5c0 0.333008 0.333008 0.833008 1 1.5v1.5v1.5c0 2.66699 -1.16699 6.33398 -3.5 11.001s-4.83301 10.334 -7.5 17.001c-3.33301 6.66699 -6.16602 13.667 -8.49902 21s-3.5 15 -3.5 23
c0 2.66699 0.666992 8.5 2 17.5s3 18.5 5 28.5c3.33301 12 7.16602 23 11.499 33s9.5 15 15.5 15h10c6.66699 0 12.334 -5.16699 17.001 -15.5s8.66699 -21.5 12 -33.5c2 -9.33301 3.66699 -18.166 5 -26.499s2 -14.5 2 -18.5c0 -11.333 -1.16699 -20.166 -3.5 -26.499
s-4.83301 -11.833 -7.5 -16.5c-1.33301 -0.666992 -2.16602 -1.66699 -2.49902 -3s-0.833008 -2.33301 -1.5 -3c-2.66699 -3.33301 -4.66699 -6.83301 -6 -10.5s-2 -8.16699 -2 -13.5v-2.5c0 -1 0.333008 -1.83301 1 -2.5c2 1.33301 4.33301 3.5 7 6.5l10 11.5
c6.66699 8.66699 13.834 16 21.501 22s15.5 11.333 23.5 16c16 9.33301 31.167 15.666 45.5 18.999s24.833 5 31.5 5h10c4 0 7 -1.66699 9 -5s3.33301 -6.66602 4 -9.99902c0.666992 -1.33301 1 -2.66602 1 -3.99902v-4c0 -2.66699 -2.83301 -7.16699 -8.5 -13.5
s-12.5 -12.833 -20.5 -19.5c-2 -2 -4.16699 -3.83301 -6.5 -5.5s-4.5 -3.5 -6.5 -5.5c-7.33301 -6 -14.333 -11.167 -21 -15.5s-12 -7.16602 -16 -8.49902c-2.66699 -0.666992 -7 -1.33398 -13 -2.00098s-12.333 -1.66699 -19 -3c-8.66699 -1.33301 -16.667 -3.33301 -24 -6
s-11 -5.66699 -11 -9v-0.5c0 -0.333008 0.333008 -0.833008 1 -1.5l1 -1l1 -1c0.666992 -0.666992 1.16699 -1 1.5 -1h0.5h3h3.5h3.5c20 0 39.167 -4.5 57.5 -13.5s33.833 -18.833 46.5 -29.5c8 -6.66699 14.333 -13.334 19 -20.001s7 -12 7 -16c0 -6 -1 -11.5 -3 -16.5
s-5.33301 -7.5 -10 -7.5h-10c-2 0 -7.33301 1 -16 3s-18 4.66699 -28 8c-2 0.666992 -3.83301 1.16699 -5.5 1.5s-3.5 0.833008 -5.5 1.5l-20 7c-6 2 -10 3.66699 -12 5c-4 2.66699 -7.66699 5.33398 -11 8.00098s-6 5.33398 -8 8.00098c-6 6 -10.667 12 -14 18
s-6.66602 11 -9.99902 15c-1.33301 2 -2.66602 3.66699 -3.99902 5s-3 2.33301 -5 3c-0.666992 -0.666992 -1.16699 -1.33398 -1.5 -2.00098s-0.5 -1.66699 -0.5 -3v-2c0 -4.66699 0.666992 -8.83398 2 -12.501s3 -7.16699 5 -10.5
c0.666992 -1.33301 1.33398 -2.5 2.00098 -3.5s1.66699 -2.16699 3 -3.5c2.66699 -5.33301 5.16699 -11.166 7.5 -17.499s3.5 -14.833 3.5 -25.5c0 -4.66699 -0.333008 -9.83398 -1 -15.501s-1.66699 -11.167 -3 -16.5c-0.666992 -2.66699 -1.5 -5.5 -2.5 -8.5
s-1.83301 -6.16699 -2.5 -9.5c-1.33301 -4 -2.5 -8 -3.5 -12s-1.83301 -7.66699 -2.5 -11c0 -1.33301 -0.166992 -2.5 -0.5 -3.5s-0.833008 -2.16699 -1.5 -3.5c-1.33301 -4 -3.16602 -7.33301 -5.49902 -10s-6.16602 -4 -11.499 -4h-10
c-1.33301 0 -2.66602 0.5 -3.99902 1.5s-2.66602 2.16699 -3.99902 3.5c-4 4.66699 -7.66699 11.167 -11 19.5s-6.33301 17.166 -9 26.499c-2.66699 8.66699 -4.66699 16.834 -6 24.501s-2 13.834 -2 18.501c0 11.333 1.16699 20.333 3.5 27s5.16602 12.334 8.49902 17.001
c0.666992 2 1.5 3.66699 2.5 5s1.83301 2.66602 2.5 3.99902c2 3.33301 3.5 6.5 4.5 9.5s1.5 6.5 1.5 10.5v3.5c0 1 -0.333008 1.83301 -1 2.5c-2.66699 -2 -5.5 -4.83301 -8.5 -8.5l-9.5 -11.5v-1h-1l-6.5 -8.5c-2.33301 -3 -4.5 -5.5 -6.5 -7.5
c-4.66699 -5.33301 -12 -10.666 -22 -15.999s-20.333 -10 -31 -14c-11.333 -4 -22 -7.33301 -32 -10s-17.333 -4 -22 -4h-10c-4 0 -7 1.83301 -9 5.5s-3.33301 7.5 -4 11.5c-0.666992 1.33301 -1 2.5 -1 3.5v3.5c0 2.66699 2.66699 7 8 13s12 12.333 20 19
c2 2 4.16699 4 6.5 6s4.83301 4 7.5 6c7.33301 5.33301 14.333 10.166 21 14.499s12 7.16602 16 8.49902c2 0.666992 4.16699 1.33398 6.5 2.00098s4.83301 1.33398 7.5 2.00098l15.5 2c5 0.666992 9.5 1.33398 13.5 2.00098c6.66699 0.666992 12.167 1.66699 16.5 3
s6.83301 3 7.5 5v4v0z" />
    <glyph glyph-name="plus" unicode="+" horiz-adv-x="850" 
d="M455 -24l-70 18.001c0 4.66699 0.166992 9.33398 0.5 14.001s0.5 9.33398 0.5 14.001c1.33301 32 2.5 67.833 3.5 107.5s1.83301 100.167 2.5 181.5h-92h-56.5c-17.667 0 -35.167 -0.333008 -52.5 -1l-60 -2c-20 -0.666992 -41.667 -1.66699 -65 -3h-10l17 70h10
c20.667 -0.666992 38.667 -1.33398 54 -2.00098s30 -1 44 -1c11.333 -0.666992 22.833 -1 34.5 -1h39.5h17.5h15.5c4 -0.666992 7.83301 -1 11.5 -1h10.5h3.5h3.5c10 0 20.833 -0.166992 32.5 -0.5s25.834 -0.833008 42.501 -1.5
c-0.666992 90 -1.33398 157.167 -2.00098 201.5s-2 84.166 -4 119.499c0 2.66699 -0.166992 5.16699 -0.5 7.5s-0.5 4.83301 -0.5 7.5h10l68 -12c0 -9.33301 -0.166992 -21 -0.5 -35s-0.833008 -29 -1.5 -45v-9.5v-9.5c-0.666992 -20.667 -1.16699 -40.334 -1.5 -59.001
s-0.5 -33.667 -0.5 -45v-121l73 1.5c16.667 0.333008 31.667 0.5 45 0.5h17h20h34h32c14.667 0.666992 30.167 1.33398 46.5 2.00098s35.5 1.66699 57.5 3h10l-12 -68h-10c-24.667 1.33301 -47 2.16602 -67 2.49902s-39.333 0.833008 -58 1.5h-38h-40h-110v-101v-56.5
c0 -17.667 0.333008 -35.167 1 -52.5l2 -60c0.666992 -20 1.66699 -41.333 3 -64l-10 -1v0z" />
    <glyph glyph-name="comma" unicode="," horiz-adv-x="262" 
d="M136 -162l-24.002 31.9971l13 10.5c4.66699 3.66699 9.66699 8.16699 15 13.5c6.66699 6 13 12.833 19 20.5s11 15.5 15 23.5c2.66699 5.33301 4.83398 10.5 6.50098 15.5s2.5 9.83301 2.5 14.5c0 8 -1.83301 14 -5.5 18s-7.5 7.33301 -11.5 10
c-1.33301 0.666992 -2.5 1.33398 -3.5 2.00098s-2.16699 1.33398 -3.5 2.00098c-2 0.666992 -4.33301 1.83398 -7 3.50098s-5.33398 3.5 -8.00098 5.5c-6.66699 4.66699 -12.667 10.834 -18 18.501s-8 18.5 -8 32.5c0 23.333 6.33301 43 19 59s31.334 24 56.001 24h10
c20.667 0 38.667 -7.83301 54 -23.5s23 -39.167 23 -70.5c0 -4.66699 -0.166992 -9.16699 -0.5 -13.5s-0.833008 -8.83301 -1.5 -13.5c-6 -34 -21.167 -67.333 -45.5 -100s-53.166 -60.334 -86.499 -83.001l-10 -1v0z" />
    <glyph glyph-name="hyphen" unicode="-" horiz-adv-x="373" 
d="M85 191c6 14.667 11.3301 28.998 15.9971 42.998s8.66699 27.333 12 40h10c2.66699 0 5.33398 -0.333008 8.00098 -1s5.33398 -1 8.00098 -1c14.667 -2 31.667 -3.66699 51 -5s40 -2 62 -2h7.5h7.5c15.333 0.666992 30.666 1.5 45.999 2.5s29 1.83301 41 2.5
c7.33301 0.666992 14 1.33398 20 2.00098s11.333 1.33398 16 2.00098h10c-4.66699 -12.667 -9.16699 -26 -13.5 -40s-8.5 -28.333 -12.5 -43h-10h-6c-2 0 -4 0.333008 -6 1h-6h-6c-5.33301 0 -11 0.166992 -17 0.5s-12 0.833008 -18 1.5c-2.66699 0 -5.5 0.166992 -8.5 0.5
s-6.16699 0.5 -9.5 0.5c-6 0 -12 0.166992 -18 0.5s-12 0.5 -18 0.5c-9.33301 0 -19.666 -0.166992 -30.999 -0.5s-22.666 -0.5 -33.999 -0.5c-6 -0.666992 -11.833 -1 -17.5 -1s-11.167 -0.333008 -16.5 -1c-12.667 0 -24 -0.333008 -34 -1s-17.667 -1 -23 -1h-10v0z" />
    <glyph glyph-name="period" unicode="." horiz-adv-x="262" 
d="M115 64c0 22 5.16602 39.167 15.499 51.5s21.833 20.5 34.5 24.5c2.66699 0.666992 5.33398 1.16699 8.00098 1.5s5.33398 0.5 8.00098 0.5h10c18 0 33.833 -7.33301 47.5 -22s20.5 -33.334 20.5 -56.001v-1.5v-1.5c-0.666992 -18.667 -6.66699 -35.5 -18 -50.5
s-28 -22.5 -50 -22.5l-10 -1c-18.667 0.666992 -34.334 7.83398 -47.001 21.501s-19 32.167 -19 55.5v0z" />
    <glyph glyph-name="slash" unicode="/" horiz-adv-x="629" 
d="M562 731c9.33301 -4 18.5 -8.16699 27.5 -12.5s17.5 -8.83301 25.5 -13.5c-2.66699 -4.66699 -14.667 -29 -36 -73l-151 -308l-76.5 -159.5l-45.5 -99.5l-2 -4l-2 -4c-7.33301 -16.667 -15.5 -33.834 -24.5 -51.501l-31.5 -62.5l-19.5 -38.5l-14.5 -27.5l-0.5 -1l-0.5 -1
l-10 -20.5l-12 -24.5l-10 -1c-8.66699 5.33301 -17.5 9.83301 -26.5 13.5s-17.833 6.83398 -26.5 9.50098c2 4 4.16699 7.83301 6.5 11.5s4.5 7.5 6.5 11.5l71.5 135.5l68.5 138.5l127.5 271l145.5 311h10v0z" />
    <glyph glyph-name="zero" unicode="0" horiz-adv-x="542" 
d="M53 351c0 108.667 26.667 194.168 80 256.501s117.333 93.5 192 93.5h10c79.333 0 143.666 -35 192.999 -105s74 -153 74 -249c0 -126.667 -27.333 -219.334 -82 -278.001s-114.667 -89 -180 -91h-3.5h-2.5l-10 -1c-3.33301 0.666992 -6.5 1 -9.5 1
s-6.16699 0.333008 -9.5 1c-63.333 5.33301 -121.166 39 -173.499 101s-78.5 152.333 -78.5 271v0zM193 277.001c8 -60.667 19.666 -108.667 34.999 -144s31.333 -62 48 -80c12.667 -12.667 24.834 -21.5 36.501 -26.5s21.834 -7.83301 30.501 -8.5
c6.66699 0.666992 14 2.16699 22 4.5s16.333 6.5 25 12.5c18.667 13.333 35.667 38 51 74s23 91 23 165c0 101.333 -10.833 191 -32.5 269s-56.167 118.333 -103.5 121c-8 0 -16.833 -1.33301 -26.5 -4s-19.5 -6.66699 -29.5 -12
c-20.667 -12.667 -39.834 -35.334 -57.501 -68.001s-26.5 -82 -26.5 -148v-14v-14c0 -20.667 0.166992 -41.667 0.5 -63s1.83301 -42.666 4.5 -63.999v0z" />
    <glyph glyph-name="one" unicode="1" horiz-adv-x="543" 
d="M155 516l0.00292969 52.0029c13.333 4 27.166 9 41.499 15l43.5 19c20.667 9.33301 40.834 19.5 60.501 30.5s38.5 22.167 56.5 33.5l40 27.5c12.667 9 23.667 17.5 33 25.5h10h11c-3.33301 -25.333 -6.16602 -59.166 -8.49902 -101.499s-4.16602 -86.5 -5.49902 -132.5
c-1.33301 -48.667 -2.33301 -95.334 -3 -140.001s-1 -79 -1 -103v-2.5v-2.5c0 -64.667 3 -114 9 -148s27.667 -51.667 65 -53c4 0 8.16699 0.333008 12.5 1l13.5 2h10v-39h-10h-23c-14.667 0 -26.667 0.333008 -36 1s-18 1.66699 -26 3
c-2.66699 0.666992 -5.66699 1.16699 -9 1.5s-6.66602 0.833008 -9.99902 1.5c-2 0 -3.83301 0.166992 -5.5 0.5s-3.16699 0.833008 -4.5 1.5c-7.33301 1.33301 -15.166 2.5 -23.499 3.5s-17.833 1.5 -28.5 1.5c-14.667 0 -28 -0.833008 -40 -2.5l-33 -4.5
c-2.66699 -0.666992 -5.33398 -1.16699 -8.00098 -1.5s-5.33398 -0.833008 -8.00098 -1.5c-8.66699 -1.33301 -17.334 -2.33301 -26.001 -3s-18 -1 -28 -1l-10 -1c-4 0.666992 -8.16699 1 -12.5 1h-13.5v39h10c3.33301 -0.666992 6.83301 -1.16699 10.5 -1.5
s7.16699 -0.5 10.5 -0.5c38.667 1.33301 63.167 17.833 73.5 49.5s15.5 71.5 15.5 119.5c0 11.333 -0.166992 22.666 -0.5 33.999s-0.5 23 -0.5 35c-0.666992 12 -1.16699 24.167 -1.5 36.5s-0.5 24.833 -0.5 37.5c0 24.667 -0.166992 46 -0.5 64s-0.833008 33.333 -1.5 46
c-0.666992 13.333 -1.16699 24.666 -1.5 33.999s-0.5 17.666 -0.5 24.999v1.5v0.5v8.5c0 3 -0.333008 5.83301 -1 8.5c-0.666992 6 -2 11.667 -4 17s-6 9.33301 -12 12c-0.666992 0 -1.16699 0.166992 -1.5 0.5s-0.833008 0.5 -1.5 0.5s-1.16699 0.166992 -1.5 0.5
s-0.833008 0.5 -1.5 0.5s-1.33398 -0.166992 -2.00098 -0.5s-1.33398 -0.5 -2.00098 -0.5s-1.33398 -0.166992 -2.00098 -0.5s-1.33398 -0.5 -2.00098 -0.5c-12.667 -2.66699 -23.667 -6.16699 -33 -10.5s-18.333 -8.83301 -27 -13.5
c-1.33301 -1.33301 -2.83301 -2.5 -4.5 -3.5s-3.5 -1.83301 -5.5 -2.5c-6 -4 -10.667 -6.83301 -14 -8.5s-6.33301 -3.5 -9 -5.5h-1v0l-5 -2.5c-2 -1 -4 -2.16699 -6 -3.5h-10v0z" />
    <glyph glyph-name="two" unicode="2" horiz-adv-x="542" 
d="M67 -9l-0.000976562 32.9971c14 12.667 28.5 26.667 43.5 42s30.167 32 45.5 50c26 30 51.333 62.667 76 98s47 71 67 107c22.667 40.667 41 80.834 55 120.501s21 75.5 21 107.5c0 31.333 -5.66699 54.666 -17 69.999s-23.666 25.666 -36.999 30.999
c-6.66699 3.33301 -13.167 5.5 -19.5 6.5s-12.166 1.5 -17.499 1.5c-31.333 -1.33301 -59.5 -15.833 -84.5 -43.5s-42.833 -59.167 -53.5 -94.5h-10c-6.66699 12 -14.167 24.167 -22.5 36.5l-26.5 37.5l33 27.5c10.667 9 21 17.167 31 24.5c24 18 49.333 32.5 76 43.5
s60 16.5 100 16.5h10c7.33301 0 15 -0.333008 23 -1s16 -1.66699 24 -3c34 -6 65.333 -20.333 94 -43s43 -58.334 43 -107.001c0 -55.333 -24.333 -117.166 -73 -185.499s-130.667 -159.166 -246 -272.499v-3c13.333 5.33301 28.5 9.66602 45.5 12.999s34.833 5 53.5 5h10
c6 0 11.833 -0.166992 17.5 -0.5s11.5 -0.833008 17.5 -1.5l17.5 -2c5.66699 -0.666992 11.5 -1.66699 17.5 -3c16 -2.66699 32 -4.83398 48 -6.50098s32.333 -2.5 49 -2.5c14 0.666992 27.167 7.33398 39.5 20.001s20.5 35.667 24.5 69h10h46
c-6.66699 -18 -11.667 -32.5 -15 -43.5l-9 -30.5c-0.666992 -0.666992 -1 -1.16699 -1 -1.5v-0.5c-1.33301 -5.33301 -2.83301 -10.833 -4.5 -16.5l-5.5 -18.5c-2 -7.33301 -3.83301 -13.666 -5.5 -18.999s-3.16699 -10.666 -4.5 -15.999s-2.5 -10.666 -3.5 -15.999
l-3.5 -19c-2 -0.666992 -4.33301 -1.16699 -7 -1.5s-5.33398 -0.833008 -8.00098 -1.5c-6.66699 -1.33301 -13.834 -2.66602 -21.501 -3.99902s-15.167 -2.33301 -22.5 -3c-4 0 -8 -0.166992 -12 -0.5s-8 -0.5 -12 -0.5l-10 -1
c-16.667 0.666992 -30.834 1.83398 -42.501 3.50098s-22.5 3.5 -32.5 5.5c-3.33301 1.33301 -6.66602 2.16602 -9.99902 2.49902s-6.66602 0.833008 -9.99902 1.5c-8 1.33301 -17.5 2.83301 -28.5 4.5s-22.167 3.16699 -33.5 4.5c-10 1.33301 -19.833 2.33301 -29.5 3
s-18.167 1 -25.5 1c-15.333 0 -33 -0.833008 -53 -2.5s-40.333 -4.5 -61 -8.5c-8 -1.33301 -16.333 -3 -25 -5s-17 -4.33301 -25 -7l-10 -1v0z" />
    <glyph glyph-name="three" unicode="3" horiz-adv-x="542" 
d="M167 327l-0.000976562 54.0039c56 14.667 102 39.667 138 75s56 72.666 60 111.999c0.666992 2 1 4.16699 1 6.5v6.5c0 23.333 -4.16699 40.666 -12.5 51.999s-17.5 19.333 -27.5 24c-5.33301 2.66699 -10.333 4.5 -15 5.5s-9 1.83301 -13 2.5
c-5.33301 0 -10.666 -0.666992 -15.999 -2s-10.666 -3 -15.999 -5c-21.333 -8.66699 -41.833 -23.834 -61.5 -45.501s-35.834 -49.167 -48.501 -82.5h-10c-6.66699 14 -13.667 27.5 -21 40.5s-15 25.833 -23 38.5c16 16 32.5 29.833 49.5 41.5s34.5 21.167 52.5 28.5
c22 10 44 17.167 66 21.5s42.333 6.5 61 6.5h10c52 0 91.333 -11.5 118 -34.5s40 -50.5 40 -82.5c0 -36.667 -14.5 -68 -43.5 -94s-60.5 -47.333 -94.5 -64l-22 -10c-7.33301 -3.33301 -14.333 -6.33301 -21 -9v-6c10.667 2 23.167 4 37.5 6s29.166 3.33301 44.499 4h7.5
h7.5h10c36 0 63.167 -9.5 81.5 -28.5s31.166 -39.833 38.499 -62.5c4.66699 -14 7.66699 -27.667 9 -41s2 -24.333 2 -33s-0.5 -17.167 -1.5 -25.5s-2.5 -16.833 -4.5 -25.5c-12 -55.333 -43.667 -106 -95 -152s-123 -69 -215 -69l-10 -1
c-25.333 0.666992 -48.833 2.66699 -70.5 6s-43.167 8.66602 -64.5 15.999c6.66699 15.333 13 31.333 19 48s11.333 34 16 52h10c6.66699 -10.667 13.5 -20.167 20.5 -28.5s14.167 -15.5 21.5 -21.5c12.667 -11.333 25.334 -19.333 38.001 -24
s24.334 -7.33398 35.001 -8.00098c2 0 4.16699 0.166992 6.5 0.5s4.5 0.5 6.5 0.5c37.333 5.33301 71.333 25.333 102 60s46 78.334 46 131.001c0 47.333 -11.167 85.333 -33.5 114s-54.833 43.667 -97.5 45c-4.66699 0 -9.66699 -0.5 -15 -1.5s-10.333 -2.16699 -15 -3.5
c-15.333 -3.33301 -29.833 -8.5 -43.5 -15.5s-25.167 -14.5 -34.5 -22.5h-10v0z" />
    <glyph glyph-name="four" unicode="4" horiz-adv-x="542" 
d="M52 208l-0.00195312 27.999c1.33301 2.66699 2.83301 5.16699 4.5 7.5l5.5 7.5c0.666992 1.33301 1.5 2.83301 2.5 4.5s2.16699 3.16699 3.5 4.5c14.667 22 32.334 46.833 53.001 74.5l97 129.5l87 112.5c32.667 41.667 75.667 89.167 129 142.5h10
c10 -5.33301 20 -10 30 -14s20 -7.66699 30 -11c-0.666992 -4 -1.16699 -8 -1.5 -12s-0.833008 -8 -1.5 -12c-4.66699 -39.333 -7.83398 -83.666 -9.50098 -132.999s-2.5 -123.333 -2.5 -222v-31c26 1.33301 47.167 3.5 63.5 6.5s30.5 6.5 42.5 10.5h10l-14 -44
c-4.66699 -15.333 -9 -31.666 -13 -48.999h-89v-7.5v-6.5c1.33301 -42 5 -78.833 11 -110.5s25 -48.167 57 -49.5c4 0 8.33301 0.333008 13 1s9.33398 1.66699 14.001 3h10v-38h-10h-26c-9.33301 0 -17.5 0.333008 -24.5 1l-20.5 2h-0.5c-0.333008 0 -0.5 0.333008 -0.5 1
c-2 0 -4 0.166992 -6 0.5s-4 0.5 -6 0.5c-3.33301 0.666992 -6.5 1.16699 -9.5 1.5s-5.83301 0.833008 -8.5 1.5c-7.33301 1.33301 -14.833 2.16602 -22.5 2.49902s-17.167 0.5 -28.5 0.5c-18 0 -31.333 -0.666992 -40 -2s-16 -2.66602 -22 -3.99902
c-1.33301 0 -2.5 -0.166992 -3.5 -0.5s-1.83301 -0.833008 -2.5 -1.5l-16 -2c-5.33301 -0.666992 -13 -1 -23 -1l-10 -1c-3.33301 0.666992 -6.83301 1 -10.5 1h-10.5h-20.5h-13.5v38h10c5.33301 -0.666992 10.166 -1.33398 14.499 -2.00098s8.83301 -1 13.5 -1
c30 1.33301 48.833 14 56.5 38s11.5 60.333 11.5 109v26l-23 2c-7.33301 0.666992 -14.666 1 -21.999 1c-13.333 0.666992 -27.166 1.16699 -41.499 1.5s-30.166 0.5 -47.499 0.5c-16.667 0 -32.834 -0.166992 -48.501 -0.5s-31.5 -0.833008 -47.5 -1.5
c-12 0 -24 -0.333008 -36 -1l-37 -2h-10v0zM374.998 592.999c-14.667 -16 -27.8311 -31.335 -39.498 -46.002l-34.5 -44l-11.5 -16l-11.5 -16l-36.5 -50.5l-40.5 -56.5c-4 -6 -8 -11.5 -12 -16.5s-7.66699 -9.83301 -11 -14.5
c-2.66699 -3.33301 -5.16699 -6.83301 -7.5 -10.5s-4.5 -7.5 -6.5 -11.5c-2.66699 -4 -5.16699 -8.16699 -7.5 -12.5l-7.5 -14.5h12c6.66699 0 12.5 0.166992 17.5 0.5s10.167 0.5 15.5 0.5h0.5c0.333008 0 0.833008 0.333008 1.5 1c5.33301 0 10.833 0.166992 16.5 0.5
s12.167 0.5 19.5 0.5h10c1.33301 0 8.66602 -0.166992 21.999 -0.5s28 -0.5 44 -0.5c2 -0.666992 4 -1 6 -1h6c8.66699 0 17 -0.166992 25 -0.5s14.333 -0.5 19 -0.5v20c0 8.66699 0.166992 28.334 0.5 59.001s1.16602 63.334 2.49902 98.001
c0.666992 25.333 1.66699 49.833 3 73.5s3 43.167 5 58.5v0z" />
    <glyph glyph-name="five" unicode="5" horiz-adv-x="541" 
d="M530 783l38.998 0.00195312c-8 -23.333 -15.5 -50 -22.5 -80s-12.5 -63 -16.5 -99c-5.33301 -0.666992 -10.666 -1.5 -15.999 -2.5s-10.333 -1.83301 -15 -2.5c-14.667 -1.33301 -29.667 -2.5 -45 -3.5s-32.666 -1.5 -51.999 -1.5h-10c-20.667 0 -38.834 0.5 -54.501 1.5
s-30.834 2.5 -45.501 4.5c-2 0 -4.16699 0.166992 -6.5 0.5s-4.83301 0.833008 -7.5 1.5c-0.666992 -2.66699 -1.5 -5.83398 -2.5 -9.50098s-2.16699 -7.5 -3.5 -11.5c-0.666992 -1.33301 -1 -2.5 -1 -3.5s-0.333008 -1.83301 -1 -2.5l-4 -17.5
c-1.33301 -5.66699 -2 -9.83398 -2 -12.501c0 -13.333 3 -22.5 9 -27.5s16 -9.5 30 -13.5c4 -0.666992 8.33301 -1.5 13 -2.5l16 -3.5c12 -2.66699 25.833 -6.33398 41.5 -11.001s31.834 -11.334 48.501 -20.001c32 -16 61.5 -40.833 88.5 -74.5s40.5 -81.167 40.5 -142.5
c0 -70 -28.667 -132.167 -86 -186.5s-135.666 -81.5 -234.999 -81.5l-10 -1c-24.667 0.666992 -47.5 3 -68.5 7s-39.833 8.33301 -56.5 13c7.33301 16.667 14 33.334 20 50.001s11.667 33.334 17 50.001h10c14.667 -24 30.5 -42.667 47.5 -56s37.833 -20.666 62.5 -21.999
c45.333 1.33301 85.5 18.5 120.5 51.5s52.5 76.5 52.5 130.5c0 57.333 -21.333 106.833 -64 148.5s-109 63.5 -199 65.5c5.33301 14 10.333 27.833 15 41.5l14 41.5c11.333 32 22 64.833 32 98.5s19 71.167 27 112.5h10c20.667 -4.66699 38.667 -7.83398 54 -9.50098
s30.333 -2.83398 45 -3.50098c5.33301 0 10.5 -0.166992 15.5 -0.5s10.167 -0.5 15.5 -0.5h5.5h4.5h2h2h1h2h8h8c2.66699 -0.666992 5.16699 -1 7.5 -1h6.5c18.667 0.666992 33.667 5 45 13s22 26.333 32 55c1.33301 2.66699 2.5 5.33398 3.5 8.00098s1.83301 5.66699 2.5 9
h10v0z" />
    <glyph glyph-name="six" unicode="6" horiz-adv-x="542" 
d="M506 730l-0.000976562 -37.001c-74 -32.667 -133.167 -74 -177.5 -124s-75.833 -101.667 -94.5 -155c-7.33301 -22 -12.833 -43.833 -16.5 -65.5s-5.5 -42.5 -5.5 -62.5c0 -84.667 12.167 -147.334 36.5 -188.001s50.833 -64 79.5 -70
c2 -0.666992 4.16699 -1.16699 6.5 -1.5s4.5 -0.5 6.5 -0.5c33.333 1.33301 60.166 16.5 80.499 45.5s30.5 69.5 30.5 121.5c0 50.667 -11 91.334 -33 122.001s-50.667 46.667 -86 48c-10 -0.666992 -18.5 -2.33398 -25.5 -5.00098s-12.833 -5.66699 -17.5 -9
c-1.33301 -1.33301 -2.66602 -2.5 -3.99902 -3.5s-2.66602 -2.16699 -3.99902 -3.5h-10v40c0.666992 0.666992 1.5 1.16699 2.5 1.5s2.16699 0.833008 3.5 1.5c13.333 5.33301 29.833 10.333 49.5 15s41.167 7 64.5 7h10c54.667 0 98.667 -18.667 132 -56
s50 -84.666 50 -141.999v-10.5c0 -3.66699 -0.333008 -7.16699 -1 -10.5c-4.66699 -50.667 -26.334 -97 -65.001 -139s-97.667 -63 -177 -63l-10 -1c-79.333 0.666992 -138.666 22.167 -177.999 64.5s-63.333 89.166 -72 140.499c-2 9.33301 -3.33301 18.5 -4 27.5
s-1 17.833 -1 26.5c0 26 3 53.167 9 81.5s15.333 56.833 28 85.5c27.333 62.667 72 122.834 134 180.501s145 103.834 249 138.501h10v0z" />
    <glyph glyph-name="seven" unicode="7" horiz-adv-x="541" 
d="M130 487l-42.001 0.00292969l4 18l4 18c6.66699 34 12.167 66.833 16.5 98.5s7.5 57.5 9.5 77.5h10c10 -1.33301 19.667 -2.83301 29 -4.5s18.666 -3.16699 27.999 -4.5c18.667 -2 37.667 -3.83301 57 -5.5s39.333 -2.83398 60 -3.50098
c6.66699 -0.666992 13.167 -1 19.5 -1h19.5h7.5h6.5h4c1.33301 0 2.33301 0.333008 3 1h11h10c41.333 1.33301 73.5 3 96.5 5s40.5 4.33301 52.5 7c6.66699 0.666992 12 1.66699 16 3s7.66699 2.33301 11 3h10l17 -16c-2 -3.33301 -4.16699 -6.5 -6.5 -9.5l-6.5 -8.5
c-18 -26.667 -33.667 -53.5 -47 -80.5s-26.333 -56.5 -39 -88.5c-19.333 -49.333 -40.333 -107.833 -63 -175.5s-53 -151.5 -91 -251.5l-10.5 -26.5c-3 -7.66699 -5.83301 -15.5 -8.5 -23.5c-1.33301 -3.33301 -2.66602 -7 -3.99902 -11s-2.33301 -8 -3 -12
c-2 -4.66699 -3.66699 -9.5 -5 -14.5s-2.66602 -10.5 -3.99902 -16.5l-10 -1c-14.667 7.33301 -29.834 14 -45.501 20l-46.5 17c28.667 50 59 108.167 91 174.5s71 155.166 117 266.499l9 22c2.66699 6.66699 5.33398 13 8.00098 19l2 4l2 4
c5.33301 12.667 11.666 26.5 18.999 41.5s18 35.167 32 60.5c-0.666992 -0.666992 -1.66699 -1.33398 -3 -2.00098l-4 -2c-7.33301 -4.66699 -18.166 -8.83398 -32.499 -12.501s-33.5 -5.5 -57.5 -5.5h-10c-13.333 0 -25.666 0.333008 -36.999 1l-33 2h-3
c-1.33301 0 -2.33301 0.333008 -3 1l-37 2c-12.667 0.666992 -27 1 -43 1h-7.5c-2.33301 0 -4.83301 -0.333008 -7.5 -1c-12.667 -1.33301 -24.834 -7.66602 -36.501 -18.999s-20.167 -35 -25.5 -71h-10v0z" />
    <glyph glyph-name="eight" unicode="8" horiz-adv-x="542" 
d="M256 361c-38.667 21.333 -72.9971 46.501 -102.997 75.501s-45 65.833 -45 110.5c0 42.667 20.5 79.167 61.5 109.5s96.5 45.5 166.5 45.5h10c61.333 0 106.5 -12.667 135.5 -38s46.167 -53 51.5 -83c1.33301 -4.66699 2.16602 -9.16699 2.49902 -13.5
s0.5 -8.83301 0.5 -13.5c0 -44 -14 -78.5 -42 -103.5s-60 -47.167 -96 -66.5c43.333 -20.667 81.666 -46.834 114.999 -78.501s50 -72.5 50 -122.5c0 -5.33301 -0.333008 -11 -1 -17s-1.33398 -11.667 -2.00098 -17c-8.66699 -41.333 -32.667 -79 -72 -113s-96 -51 -170 -51
l-10 -1c-59.333 0.666992 -110.833 15.834 -154.5 45.501s-65.5 68.167 -65.5 115.5c0 11.333 0.833008 23 2.5 35s4.5 24 8.5 36c8.66699 26.667 25 52.667 49 78s60 47.666 108 66.999v0zM304.003 339.001c-31.333 -18 -59.333 -42.3301 -84 -72.9971
s-37 -66.334 -37 -107.001c0 -39.333 12.5 -70.833 37.5 -94.5s52.5 -37.5 82.5 -41.5c2 0 4.16699 -0.166992 6.5 -0.5s4.5 -0.5 6.5 -0.5c30 1.33301 57.167 13.166 81.5 35.499s36.5 50.833 36.5 85.5c0 16 -2.5 33 -7.5 51s-13.5 36.333 -25.5 55
c-10 15.333 -22.833 30.666 -38.5 45.999s-35.167 30 -58.5 44v0zM360.003 408.004c19.333 14 35.5 30.335 48.5 49.002s21.833 38 26.5 58c1.33301 5.33301 2.33301 10.666 3 15.999s1 10.666 1 15.999c0 6 -0.5 12.5 -1.5 19.5s-2.83301 14.167 -5.5 21.5
c-5.33301 18 -15.833 34.5 -31.5 49.5s-38.167 23.167 -67.5 24.5c-34 -0.666992 -58.667 -11.5 -74 -32.5s-23 -44.5 -23 -70.5c0 -15.333 8 -36.5 24 -63.5s49.333 -56.167 100 -87.5v0z" />
    <glyph glyph-name="nine" unicode="9" horiz-adv-x="542" 
d="M148 -28v38c58.667 26 107 56.833 145 92.5s68 72.167 90 109.5c22 38 37.333 75 46 111s13 67 13 93c0 81.333 -11.667 142.666 -35 183.999s-49 66 -77 74c-2.66699 0.666992 -5.5 1.33398 -8.5 2.00098s-5.83301 1 -8.5 1h-4
c-1.33301 0 -2.66602 -0.333008 -3.99902 -1c-26 -3.33301 -49.667 -17.666 -71 -42.999s-32 -66.333 -32 -123c0 -56 11.5 -97.5 34.5 -124.5s48.5 -42.167 76.5 -45.5c1.33301 -0.666992 2.66602 -1 3.99902 -1h4c10 0.666992 18.333 2.33398 25 5.00098
s12.334 5.66699 17.001 9c2 1.33301 3.66699 2.66602 5 3.99902l4 4h10v-41c-0.666992 -0.666992 -1.5 -1.16699 -2.5 -1.5s-2.16699 -0.833008 -3.5 -1.5c-13.333 -5.33301 -30 -10.333 -50 -15s-41.333 -7 -64 -7h-10c-54.667 0 -98.667 18.833 -132 56.5
s-50 85.167 -50 142.5c0 67.333 22.5 121.5 67.5 162.5s103.5 61.5 175.5 61.5h10c80 0 142.5 -24.833 187.5 -74.5s67.5 -111.167 67.5 -184.5c0 -22 -5.33301 -59.167 -16 -111.5s-39.334 -107.5 -86.001 -165.5c-30.667 -38.667 -71.5 -76.334 -122.5 -113.001
s-116.167 -68.667 -195.5 -96l-10 -1v0z" />
    <glyph glyph-name="colon" unicode=":" horiz-adv-x="262" 
d="M115 64c0 22 5.16602 39.167 15.499 51.5s21.833 20.5 34.5 24.5c2.66699 0.666992 5.33398 1.16699 8.00098 1.5s5.33398 0.5 8.00098 0.5h10c18 0 33.833 -7.33301 47.5 -22s20.5 -33.334 20.5 -56.001v-1.5v-1.5c-0.666992 -18.667 -6.66699 -35.5 -18 -50.5
s-28 -22.5 -50 -22.5l-10 -1c-18.667 0.666992 -34.334 7.83398 -47.001 21.501s-19 32.167 -19 55.5v0zM114.999 357c0 23.333 6.33398 42.001 19.001 56.001s28.334 21 47.001 21h10c22 0 38.667 -7.66699 50 -23s17.333 -32.333 18 -51v-1.5v-1.5
c0 -22.667 -6.83301 -41.334 -20.5 -56.001s-29.5 -22 -47.5 -22h-10c-2.66699 0 -5.33398 0.166992 -8.00098 0.5s-5.33398 0.833008 -8.00098 1.5c-12.667 4 -24.167 12.167 -34.5 24.5s-15.5 29.5 -15.5 51.5v0z" />
    <glyph glyph-name="semicolon" unicode=";" horiz-adv-x="262" 
d="M136 -168l-24.0029 31.999l12.5 10.5l14.5 12.5c6.66699 6.66699 13.334 14 20.001 22s12 16.333 16 25c2.66699 4.66699 4.66699 9.33398 6 14.001s2 9.33398 2 14.001c0 8 -1.66699 14 -5 18s-7.66602 7.33301 -12.999 10c-0.666992 0.666992 -1.5 1.16699 -2.5 1.5
s-1.83301 0.833008 -2.5 1.5c-2 1.33301 -4.66699 2.83301 -8 4.5s-6.66602 3.5 -9.99902 5.5c-6 4.66699 -11.5 11.167 -16.5 19.5s-7.5 18.833 -7.5 31.5c0 23.333 6.5 43 19.5 59s31.5 24 55.5 24h10c25.333 0 44.5 -8.83301 57.5 -26.5s19.5 -40.167 19.5 -67.5
c0 -13.333 -1.66699 -26.833 -5 -40.5s-8.33301 -27.834 -15 -42.501c-10.667 -22 -25.5 -43.833 -44.5 -65.5s-42.167 -42.167 -69.5 -61.5l-10 -1v0zM125.997 356.999c0 23.333 6.33398 42.001 19.001 56.001s28.334 21 47.001 21h10c22 0 38.667 -7.66699 50 -23
s17.333 -32.333 18 -51v-1.5v-1.5c0 -22.667 -6.83301 -41.334 -20.5 -56.001s-29.5 -22 -47.5 -22h-10c-2.66699 0 -5.33398 0.166992 -8.00098 0.5s-5.33398 0.833008 -8.00098 1.5c-12.667 4 -24.167 12.167 -34.5 24.5s-15.5 29.5 -15.5 51.5v0z" />
    <glyph glyph-name="less" unicode="&#x3c;" horiz-adv-x="778" 
d="M101 339l594 255h10l17 -43l-510 -212l510 -212l-17 -43h-10l-594 255v0z" />
    <glyph glyph-name="equal" unicode="=" horiz-adv-x="850" 
d="M35 193l17.001 70.0029h10c7.33301 0 25.333 -0.333008 54 -1s60.667 -1.33398 96 -2.00098c5.33301 -0.666992 10.5 -1 15.5 -1h15.5c38 -0.666992 73.833 -1.33398 107.5 -2.00098s56.5 -1 68.5 -1c14.667 0 37.667 0.166992 69 0.5s64.666 0.833008 99.999 1.5
c23.333 0.666992 46 1.16699 68 1.5s41.667 0.833008 59 1.5c11.333 0.666992 21 1.16699 29 1.5s14.333 0.5 19 0.5h10l-12 -68h-10c-24 1.33301 -45.667 2.16602 -65 2.49902s-38.333 0.833008 -57 1.5h-39h-42h-66h-66h-34h-34h-35h-34h-57.5
c-17.667 0 -35.167 -0.333008 -52.5 -1c-19.333 0 -39 -0.5 -59 -1.5s-41.667 -2.16699 -65 -3.5h-10v0zM77.001 417.003l17.001 70.0029h10c7.33301 0 25.333 -0.333008 54 -1s60.667 -1.33398 96 -2.00098c5.33301 -0.666992 10.5 -1 15.5 -1h15.5
c38 -0.666992 73.833 -1.33398 107.5 -2.00098s56.5 -1 68.5 -1c14.667 0 37.667 0.166992 69 0.5s64.666 0.833008 99.999 1.5c23.333 0.666992 46 1.16699 68 1.5s41.667 0.833008 59 1.5c11.333 0.666992 21 1.16699 29 1.5s14.333 0.5 19 0.5h10l-12 -68h-10
c-24 1.33301 -45.667 2.16602 -65 2.49902s-38.333 0.833008 -57 1.5h-39h-42h-66h-66h-34h-34h-35h-34h-57.5c-17.667 0 -35.167 -0.333008 -52.5 -1l-59 -2c-20 -0.666992 -41.667 -1.66699 -65 -3h-10v0z" />
    <glyph glyph-name="greater" unicode="&#x3e;" horiz-adv-x="778" 
d="M722 339l-594 -255h-10l-17 43l509 212l-509 212l17 43h10l594 -255v0z" />
    <glyph glyph-name="question" unicode="?" horiz-adv-x="542" 
d="M224 60c0 19.333 5.83496 37 17.502 53s28.167 24 49.5 24h10c19.333 0 35.333 -7 48 -21s19 -32.667 19 -56c0 -22.667 -6.33301 -41 -19 -55s-28.667 -21 -48 -21l-10 -1c-20.667 0.666992 -36.834 8.5 -48.501 23.5s-17.834 31.833 -18.501 50.5v1.5v1.5v0z
M370.002 263l8.99902 -7.99414c-5.33301 -8.66699 -10.333 -18 -15 -28s-9 -20.667 -13 -32c-1.33301 0 -2.83301 -0.166992 -4.5 -0.5s-3.16699 -0.5 -4.5 -0.5h-5.5h-4.5h-10c-40.667 0 -71.167 12.5 -91.5 37.5s-31.166 52.5 -32.499 82.5v3.5v2.5c0 34 9 63 27 87
s38 44.333 60 61c5.33301 4.66699 11 9.16699 17 13.5l17 12.5l10 8l10 8c22 17.333 42.333 37.166 61 59.499s28 48.166 28 77.499c0 4 -0.5 8.5 -1.5 13.5s-2.5 10.167 -4.5 15.5c-4.66699 9.33301 -12.5 18.166 -23.5 26.499s-27.167 12.833 -48.5 13.5
c-33.333 -1.33301 -61.333 -15 -84 -41s-39.667 -54.333 -51 -85c-2 -5.33301 -3.83301 -10.5 -5.5 -15.5s-3.16699 -9.83301 -4.5 -14.5h-10c-12 19.333 -25 38.5 -39 57.5s-28.667 37.833 -44 56.5c8.66699 12 17.834 22.833 27.501 32.5s19.167 18.167 28.5 25.5
c24.667 17.333 48.167 28.666 70.5 33.999s40.166 8 53.499 8h10c6 0 11.833 -0.333008 17.5 -1l17.5 -2c42.667 -8 81.667 -28.667 117 -62s53 -74 53 -122c0 -33.333 -7.83301 -62.333 -23.5 -87s-32.834 -45.334 -51.501 -62.001
c-10 -8.66699 -19.667 -16.334 -29 -23.001s-17.666 -12.334 -24.999 -17.001c-6 -4 -13.333 -8.5 -22 -13.5s-17.334 -10.5 -26.001 -16.5c-16 -10.667 -30.833 -23.167 -44.5 -37.5s-20.5 -29.833 -20.5 -46.5c0 -2 0.166992 -4.16699 0.5 -6.5s0.833008 -4.5 1.5 -6.5
c1.33301 -8 5.33301 -15.333 12 -22s16.334 -10.667 29.001 -12c10 1.33301 19.5 4.33301 28.5 9s16.833 10.334 23.5 17.001h10v0z" />
    <glyph glyph-name="at" unicode="@" horiz-adv-x="752" 
d="M588 508l-64.001 -213.005c-0.666992 -1.33301 -1.16699 -2.66602 -1.5 -3.99902s-0.5 -2.33301 -0.5 -3c-0.666992 -2 -1.33398 -3.66699 -2.00098 -5s-1 -3 -1 -5c-2.66699 -8 -5 -16.167 -7 -24.5s-3 -16.166 -3 -23.499c0 -14.667 2.83301 -26.334 8.5 -35.001
s13.5 -13.667 23.5 -15c8 0.666992 16.333 2.66699 25 6s17.334 7.66602 26.001 12.999c24 15.333 45.833 38.833 65.5 70.5s29.5 71.5 29.5 119.5c0 86.667 -30.5 154.334 -91.5 203.001s-132.167 73.334 -213.5 74.001c-91.333 -1.33301 -165.166 -35.5 -221.499 -102.5
s-84.5 -141.167 -84.5 -222.5c0 -82.667 28.5 -157.667 85.5 -225s131.833 -101.666 224.5 -102.999c14 0 35.333 2 64 6s59 14.667 91 32c8 4.66699 16.167 9.83398 24.5 15.501s16.5 11.834 24.5 18.501h10l17 -22c-44.667 -34.667 -86 -56 -124 -64s-71.667 -12 -101 -12
l-10 -1c-100.667 0.666992 -181.167 32.5 -241.5 95.5s-96.5 132.167 -108.5 207.5c-1.33301 9.33301 -2.33301 18.333 -3 27s-1 17.334 -1 26.001v7.5v6.5c4 84 36.833 161.167 98.5 231.5s144.834 105.5 249.501 105.5h10c90 0 168.833 -26.833 236.5 -80.5
s101.5 -128.167 101.5 -223.5c0 -66.667 -17.5 -122.667 -52.5 -168s-79.5 -68 -133.5 -68h-10c-6.66699 0 -14.334 0.666992 -23.001 2s-17.667 4.33301 -27 9c-6.66699 3.33301 -13.167 7.66602 -19.5 12.999s-12.5 12 -18.5 20c-6.66699 -4.66699 -13.5 -9 -20.5 -13
s-13.833 -7.66699 -20.5 -11c-10 -4 -20 -7.16699 -30 -9.5s-20.667 -3.5 -32 -3.5h-10c-3.33301 0 -6.83301 0.166992 -10.5 0.5s-7.16699 0.833008 -10.5 1.5c-26 4.66699 -49.833 19 -71.5 43s-32.5 58.333 -32.5 103c0 55.333 19.667 105 59 149s89 66 149 66h10
c6 0 14.667 -1.16699 26 -3.5s23.333 -7.83301 36 -16.5c4 -2.66699 7.83301 -5.66699 11.5 -9s7.5 -7.33301 11.5 -12l9 26h10h64v0zM430.999 236.995l52 186.001c-2.66699 21.333 -10.667 38.833 -24 52.5s-28.666 21.167 -45.999 22.5c-4 0 -7.83301 -0.5 -11.5 -1.5
s-7.5 -2.16699 -11.5 -3.5c-25.333 -10.667 -48.833 -32.834 -70.5 -66.501s-32.5 -75.167 -32.5 -124.5c0 -36 4.33301 -61.833 13 -77.5s18.334 -25.834 29.001 -30.501c3.33301 -2 6.66602 -3.33301 9.99902 -4s6.66602 -1 9.99902 -1
c11.333 0.666992 24 3.83398 38 9.50098s28.667 18.5 44 38.5v0z" />
    <glyph glyph-name="A" unicode="A" horiz-adv-x="710" 
d="M63 -1l0.00195312 39.0059h21c14.667 0 27 4.66699 37 14s18.333 19.666 25 30.999c3.33301 4.66699 6.16602 9.5 8.49902 14.5l6.5 13.5c10 21.333 23.5 54.166 40.5 98.499l53.5 143.5l8 22l8 22l57 170.5c17.333 53.667 28.666 92.5 33.999 116.5
c13.333 2.66699 26.5 6 39.5 10s25.5 8.33301 37.5 13h10c4.66699 -18 16.334 -55.667 35.001 -113s57.334 -168.333 116.001 -333c26 -74 46.167 -126.167 60.5 -156.5s27.5 -49.833 39.5 -58.5c6.66699 -4 13.167 -6.33301 19.5 -7s13.833 -1 22.5 -1h4h4h10v-38h-10h-25
c-5.33301 0 -11 0.333008 -17 1s-11.667 1.66699 -17 3c-2.66699 0 -5.5 0.333008 -8.5 1s-5.83301 1 -8.5 1c-4 0.666992 -8.33301 1.33398 -13 2.00098s-9 1 -13 1c-4.66699 0.666992 -9.33398 1 -14.001 1h-13c-12 0 -23 -0.333008 -33 -1s-19 -1.33398 -27 -2.00098
c-2.66699 -0.666992 -5.16699 -1.16699 -7.5 -1.5s-4.83301 -0.5 -7.5 -0.5c-6 -0.666992 -11.667 -1.33398 -17 -2.00098s-10.333 -1.33398 -15 -2.00098c-6.66699 0 -13.667 -0.166992 -21 -0.5s-16 -0.5 -26 -0.5h-10v38h23c14.667 0 24.167 4 28.5 12
s6.83301 16.667 7.5 26v3.5v3.5v7.5v6.5v2.5v3.5c-0.666992 12 -4.66699 26.667 -12 44s-18.333 46.333 -33 87c-3.33301 0 -7.33301 -0.166992 -12 -0.5s-9.66699 -0.5 -15 -0.5c-8 -0.666992 -16.333 -1.16699 -25 -1.5s-17.334 -0.5 -26.001 -0.5h-10h-10h-10h-10.5
c-3 0 -6.16699 0.333008 -9.5 1c-6.66699 0 -14.334 0.333008 -23.001 1s-22 1.33398 -40 2.00098l-3.5 -10.5c-1 -3 -1.83301 -6.16699 -2.5 -9.5c0 -0.666992 -0.166992 -1.5 -0.5 -2.5s-0.833008 -1.83301 -1.5 -2.5c-1.33301 -3.33301 -2.66602 -7 -3.99902 -11
s-3 -8.66699 -5 -14c-1.33301 -4 -3.16602 -10 -5.49902 -18l-7.5 -26c-0.666992 -2 -1.33398 -4.16699 -2.00098 -6.5s-1.33398 -4.83301 -2.00098 -7.5c-3.33301 -11.333 -6.16602 -22.333 -8.49902 -33s-3.5 -18.667 -3.5 -24c0 -12.667 3.83301 -21.334 11.5 -26.001
s17.167 -7.33398 28.5 -8.00098c3.33301 0 6.83301 0.166992 10.5 0.5s7.16699 0.833008 10.5 1.5h10v-38h-10h-18c-4.66699 0 -10 0.5 -16 1.5l-20 3.5c-7.33301 0.666992 -15.333 1.5 -24 2.5s-18.667 1.5 -30 1.5s-21 -0.333008 -29 -1s-15 -1.33398 -21 -2.00098
c-2 -0.666992 -4 -1.16699 -6 -1.5s-4 -0.5 -6 -0.5c-2.66699 -0.666992 -5.16699 -1.16699 -7.5 -1.5s-4.83301 -0.833008 -7.5 -1.5c-5.33301 -0.666992 -10.833 -1 -16.5 -1h-20.5l-10 -1v0zM374.002 535.006l-0.00292969 -0.00195312
c-1.33301 -8 -5.83301 -24.667 -13.5 -50s-29.5 -93.666 -65.5 -204.999c2 0 4.16699 -0.166992 6.5 -0.5s4.5 -0.833008 6.5 -1.5c11.333 -1.33301 22.833 -2.33301 34.5 -3s24.834 -1 39.501 -1c12.667 0 24 0.333008 34 1s20 1.66699 30 3
c1.33301 0.666992 3 1.16699 5 1.5s4 0.5 6 0.5c-15.333 49.333 -30.166 91.5 -44.499 126.5s-25.166 68.167 -32.499 99.5c-1.33301 5.33301 -2.5 10.333 -3.5 15s-1.83301 9.33398 -2.5 14.001v0z" />
    <glyph glyph-name="B" unicode="B" horiz-adv-x="598" 
d="M84 -1l0.999023 37.9971h18c21.333 0 35.666 11.333 42.999 34s11.333 48 12 76c0.666992 8.66699 1 17.334 1 26.001v25v7.5v6.5v16.5v16.5v15.5v12.5v14.5v19.5v18v19v18v18v21v21v20.5v20.5v7.5v7.5v23v24c-1.33301 28.667 -5.5 55 -12.5 79s-21.833 36 -44.5 36h-18
v39h10c6 0 11 -0.166992 15 -0.5s8 -0.5 12 -0.5h1h2c2.66699 0 5.66699 -0.166992 9 -0.5s7 -0.5 11 -0.5c10.667 -0.666992 22.334 -1.33398 35.001 -2.00098s26.334 -1 41.001 -1c11.333 0 22.833 0.5 34.5 1.5s23.5 2.16699 35.5 3.5l22 2l22 2
c7.33301 0.666992 14.666 1.16699 21.999 1.5s14.666 0.5 21.999 0.5h10c55.333 0 100 -14.667 134 -44s51 -67.666 51 -114.999c0 -44.667 -18 -79.5 -54 -104.5s-75.333 -40.167 -118 -45.5h-1.5h-1.5v-10c60.667 -1.33301 115.167 -17.166 163.5 -47.499
s72.5 -73.833 72.5 -130.5v-6.5v-7.5c-2.66699 -45.333 -20.167 -86.666 -52.5 -123.999s-87.166 -56 -164.499 -56l-10 -1c-18.667 0.666992 -37.334 1.66699 -56.001 3l-56 4c-7.33301 1.33301 -14.666 2.33301 -21.999 3l-22 2
c-7.33301 0.666992 -14.666 1.16699 -21.999 1.5s-14.666 0.5 -21.999 0.5h-9c-3.33301 0 -6.33301 -0.333008 -9 -1c-4 0 -7.83301 -0.333008 -11.5 -1s-7.5 -1 -11.5 -1c-2 -0.666992 -4.16699 -1.16699 -6.5 -1.5s-4.5 -0.5 -6.5 -0.5
c-2.66699 0 -5.83398 -0.166992 -9.50098 -0.5s-7.16699 -0.5 -10.5 -0.5h-3h-2c-6.66699 -0.666992 -13 -1 -19 -1h-15l-10 -1v0zM315.999 344.997h-16c0 -4 -0.166992 -9.83301 -0.5 -17.5s-0.5 -16.167 -0.5 -25.5c0 -6 -0.166992 -12 -0.5 -18s-0.5 -12 -0.5 -18
c0 -14.667 -0.166992 -28.667 -0.5 -42s-0.5 -24 -0.5 -32v-36v-36v-1.5v-1.5v-14.5c0 -5 0.333008 -10.167 1 -15.5c1.33301 -14 6 -27 14 -39s23 -18.667 45 -20c37.333 1.33301 68.5 15 93.5 41s37.5 64.667 37.5 116c0 54 -17.333 94.167 -52 120.5
s-74.667 39.5 -120 39.5v0zM299.999 641.997l0.000976562 -255.999c2.66699 -0.666992 5 -1 7 -1h6c32 1.33301 60.167 12.666 84.5 33.999s36.5 51 36.5 89c0 42 -11 75 -33 99s-49 36.333 -81 37c-2.66699 0 -5.83398 -0.166992 -9.50098 -0.5
s-7.16699 -0.833008 -10.5 -1.5v0z" />
    <glyph glyph-name="C" unicode="C" horiz-adv-x="738" 
d="M730 156l36.9961 -0.00390625c-14 -75.333 -43.333 -122.166 -88 -140.499s-105.667 -27.5 -183 -27.5l-10 -1c-124.667 0.666992 -222.167 36.834 -292.5 108.501s-105.5 155.5 -105.5 251.5c0 14.667 0.833008 30 2.5 46s4.5 32 8.5 48
c15.333 63.333 50.5 121.5 105.5 174.5s139.5 79.5 253.5 79.5h10c32.667 0 58 -1 76 -3s33.333 -4.33301 46 -7c2.66699 -0.666992 5.33398 -1.16699 8.00098 -1.5s5.33398 -0.833008 8.00098 -1.5c8.66699 -2 17.834 -3.66699 27.501 -5s21.5 -2 35.5 -2
c14.667 0 27.834 0.333008 39.501 1s21.167 1.66699 28.5 3h10l-5 -39c-1.33301 -10.667 -2 -21 -2 -31c0 -3.33301 -0.166992 -6.33301 -0.5 -9s-0.5 -5.66699 -0.5 -9s-0.166992 -6.66602 -0.5 -9.99902s-0.5 -6.66602 -0.5 -9.99902
c-0.666992 -3.33301 -1 -6.66602 -1 -9.99902s-0.333008 -6.66602 -1 -9.99902v-7.5v-7.5c0 -4.66699 0.166992 -9.83398 0.5 -15.501s0.833008 -11.834 1.5 -18.501h-10h-39c0.666992 47.333 -17.5 84.166 -54.5 110.499s-82.167 39.833 -135.5 40.5
c-7.33301 0 -23.333 -2.16699 -48 -6.5s-50.667 -14.166 -78 -29.499c-32.667 -18.667 -62.667 -47.834 -90 -87.501s-41 -96.5 -41 -170.5c0 -98 26.5 -177.167 79.5 -237.5s115.5 -91.166 187.5 -92.499c4.66699 0 9.5 0.333008 14.5 1l14.5 2
c38.667 6 75.167 20.5 109.5 43.5s58.5 49.833 72.5 80.5h10v0z" />
    <glyph glyph-name="D" unicode="D" horiz-adv-x="793" 
d="M110 679l32.001 -0.000976562c4 0 8.16699 -0.166992 12.5 -0.5s8.5 -0.5 12.5 -0.5c4 -0.666992 8.16699 -1.16699 12.5 -1.5s8.5 -0.5 12.5 -0.5h15.5h15.5c5.33301 0 10.5 0.166992 15.5 0.5s10.167 0.5 15.5 0.5c14.667 0.666992 27.167 1.33398 37.5 2.00098
s19.833 1.33398 28.5 2.00098c2.66699 0 5.33398 0.166992 8.00098 0.5s5.33398 0.5 8.00098 0.5c5.33301 0.666992 11 1.16699 17 1.5s12.333 0.833008 19 1.5l47 4c15.333 1.33301 30.333 2 45 2h10c89.333 0 168.333 -28.333 237 -85s103 -142 103 -256
c0 -94.667 -33 -178 -99 -250s-152 -108 -258 -108l-10 -1c-18.667 0.666992 -36.667 1.83398 -54 3.50098s-34.333 3.16699 -51 4.5c-1.33301 0.666992 -2.83301 1 -4.5 1h-4.5l-21 2l-21 2c-4.66699 0.666992 -9.16699 1.16699 -13.5 1.5s-8.5 0.5 -12.5 0.5
c-4 0.666992 -8.16699 1 -12.5 1h-13.5c-16 0 -27.333 -0.333008 -34 -1s-12.334 -1.33398 -17.001 -2.00098c0 -0.666992 -0.166992 -1 -0.5 -1h-0.5c-4 -0.666992 -8.83301 -1.33398 -14.5 -2.00098s-14.834 -1 -27.501 -1h-10h-28v39h10
c1.33301 0 2.33301 -0.166992 3 -0.5s1.66699 -0.5 3 -0.5c0.666992 0 1.5 -0.166992 2.5 -0.5s1.83301 -0.5 2.5 -0.5c24 3.33301 39.167 20.5 45.5 51.5s9.16602 67.833 8.49902 110.5v28v29c-0.666992 2.66699 -1 5.66699 -1 9v10v19v19v27v27v26.5v26.5v11.5v10.5v10.5
v11.5v10v9c-0.666992 40 -3.16699 76.333 -7.5 109s-19.833 49 -46.5 49h-27v38h10v0zM327.001 636.999c-0.666992 -8.66699 -1.16602 -22.3359 -1.49902 -41.0029s-0.833008 -39.667 -1.5 -63c0 -7.33301 -0.166992 -15 -0.5 -23s-0.5 -16 -0.5 -24
c-0.666992 -32 -1.33398 -62.333 -2.00098 -91s-1 -48.667 -1 -60v-26v-25v-26v-26c-0.666992 -72 4.33301 -123.667 15 -155s38 -47.666 82 -48.999c69.333 1.33301 127.666 28.333 174.999 81s71 133.334 71 242.001c0 98.667 -21.167 168.834 -63.5 210.501
s-88.833 67.167 -139.5 76.5c-10 2 -20 3.5 -30 4.5s-20 1.5 -30 1.5c-13.333 0 -26.166 -0.666992 -38.499 -2s-23.833 -3 -34.5 -5v0z" />
    <glyph glyph-name="E" unicode="E" horiz-adv-x="571" 
d="M108 678l26.9932 -0.00683594c12.667 0 23.167 -0.333008 31.5 -1l24.5 -2c1.33301 0 2.83301 -0.166992 4.5 -0.5s3.16699 -0.5 4.5 -0.5c10 -1.33301 21 -2.33301 33 -3s28.333 -1 49 -1c50 0 92.833 0.5 128.5 1.5s69.834 2.5 102.501 4.5
c6.66699 0 13.5 0.166992 20.5 0.5s13.833 0.833008 20.5 1.5h10c-2 -12 -3.83301 -22.333 -5.5 -31s-3.5 -16.667 -5.5 -24c-0.666992 -3.33301 -1.5 -6.66602 -2.5 -9.99902s-1.83301 -6.66602 -2.5 -9.99902c-1.33301 -3.33301 -2.33301 -6.83301 -3 -10.5
s-1.66699 -7.16699 -3 -10.5c-0.666992 -3.33301 -1.5 -6.5 -2.5 -9.5s-1.83301 -5.83301 -2.5 -8.5c0 -0.666992 -0.166992 -1.5 -0.5 -2.5s-0.833008 -2.16699 -1.5 -3.5c-1.33301 -5.33301 -2.66602 -11.166 -3.99902 -17.499l-5 -23.5h-10h-38
c0 2 0.333008 4.83301 1 8.5s1 7.83398 1 12.501c0 0.666992 0.166992 1.33398 0.5 2.00098s0.5 1.33398 0.5 2.00098c0.666992 5.33301 1.16699 10.5 1.5 15.5s0.5 8.16699 0.5 9.5c0 16.667 -3.83301 29.167 -11.5 37.5s-16.167 14.166 -25.5 17.499
c-6.66699 2 -12.834 3.33301 -18.501 4s-10.167 1 -13.5 1h-24h-25c-8.66699 0 -17.334 -0.166992 -26.001 -0.5s-16.667 -0.833008 -24 -1.5c-2 -20.667 -3.5 -39 -4.5 -55s-1.5 -31.333 -1.5 -46v-24v-25v-10v-10v-80c5.33301 0 11.833 -0.166992 19.5 -0.5
s15.834 -0.5 24.501 -0.5h14h13c34.667 0 59.5 3.83301 74.5 11.5s22.5 27.167 22.5 58.5v4.5v4.5h10h38c-0.666992 -5.33301 -1.66699 -12.166 -3 -20.499s-2.66602 -17.5 -3.99902 -27.5l-2 -12l-2 -12l-3.99902 -40s-2 -22.667 -2 -30v-68h-10h-36
c1.33301 5.33301 2 10.166 2 14.499v11.5c0 22 -5.16699 37.333 -15.5 46s-21.5 14 -33.5 16l-11.5 2c-3.66699 0.666992 -7.16699 1 -10.5 1h-2h-1h-2h-2h-16.5h-16.5h-11.5h-10.5c-0.666992 -0.666992 -1.16699 -1 -1.5 -1h-0.5h-10h-10
c-0.666992 -16.667 -1 -34.834 -1 -54.501v-59.5v-24.5v-24.5c0 -56 5.5 -91 16.5 -105s27.5 -22.667 49.5 -26l18 -2c6 -0.666992 11.667 -1 17 -1s10.666 0.333008 15.999 1s10.333 1.33398 15 2.00098c5.33301 0.666992 10.5 1.5 15.5 2.5s10.167 2.5 15.5 4.5
c15.333 6 30.333 16.667 45 32s27.334 40.333 38.001 75h10h36c-2.66699 -58.667 -11.5 -99 -26.5 -121s-32.833 -35.333 -53.5 -40c-4.66699 -1.33301 -9.16699 -2.16602 -13.5 -2.49902s-8.83301 -0.5 -13.5 -0.5l-10 -1c-4.66699 0.666992 -9.16699 1.16699 -13.5 1.5
s-8.83301 0.833008 -13.5 1.5c-2 0 -4.16699 0.166992 -6.5 0.5s-4.5 0.5 -6.5 0.5c-6 0.666992 -12 1.16699 -18 1.5s-11.667 0.833008 -17 1.5c-6 0.666992 -12 1.16699 -18 1.5s-12 0.833008 -18 1.5c-4.66699 0.666992 -9.66699 1.16699 -15 1.5
s-10.666 0.5 -15.999 0.5c-2.66699 0.666992 -5.5 1 -8.5 1s-6.16699 0.333008 -9.5 1c-5.33301 0.666992 -10.5 1.16699 -15.5 1.5s-9.83301 0.5 -14.5 0.5c-5.33301 0 -10.5 0.166992 -15.5 0.5s-10.167 0.5 -15.5 0.5s-10.5 0.166992 -15.5 0.5s-10.167 0.5 -15.5 0.5
c-2 0 -4.16699 0.166992 -6.5 0.5s-4.83301 0.5 -7.5 0.5h-7.5h-6.5h-9c-3.33301 0 -6.66602 -0.333008 -9.99902 -1c-2 0 -3.83301 -0.166992 -5.5 -0.5s-3.5 -0.5 -5.5 -0.5c-1.33301 -0.666992 -2.83301 -1 -4.5 -1h-4.5c-7.33301 -1.33301 -15.166 -2.33301 -23.499 -3
s-19.166 -1 -32.499 -1h-10v38h19c24.667 0 40.5 13.333 47.5 40s10.5 56 10.5 88v22v21v2v2c0 27.333 -0.166992 50.833 -0.5 70.5s-0.5 37.167 -0.5 52.5v33.5c0 10.333 -0.333008 20.5 -1 30.5v8v8v12v12c-0.666992 3.33301 -1 7 -1 11v12v15.5v14.5v11v13
c0 6 -0.166992 12.167 -0.5 18.5s-0.5 12.833 -0.5 19.5c-2 20.667 -6.66699 39.834 -14 57.501s-20.333 27.5 -39 29.5c-0.666992 0 -1.5 -0.166992 -2.5 -0.5s-1.83301 -0.5 -2.5 -0.5s-1.5 -0.166992 -2.5 -0.5s-1.83301 -0.5 -2.5 -0.5h-10v38h10v0z" />
    <glyph glyph-name="F" unicode="F" horiz-adv-x="542" 
d="M482 454l39.0059 0.00488281c-0.666992 -3.33301 -1.5 -6.33301 -2.5 -9s-1.83301 -5.33398 -2.5 -8.00098c-0.666992 -6 -1.5 -12 -2.5 -18s-1.83301 -13.333 -2.5 -22c-0.666992 -5.33301 -1.16699 -11.5 -1.5 -18.5s-0.833008 -14.833 -1.5 -23.5
s-1.33398 -16.834 -2.00098 -24.501s-1 -15.167 -1 -22.5c-0.666992 -3.33301 -1 -6.83301 -1 -10.5v-11.5c0 -6.66699 0.166992 -13.334 0.5 -20.001s0.833008 -14 1.5 -22h-10h-42c1.33301 5.33301 2 10.5 2 15.5v13.5c0 28 -7.16699 45.5 -21.5 52.5
s-29.833 10.5 -46.5 10.5h-1.5h-1.5h10h-7.5h-7.5h-13.5h-12.5c-6.66699 0 -13.334 -0.166992 -20.001 -0.5s-14 -1.16602 -22 -2.49902c0 -8.66699 -0.166992 -18.167 -0.5 -28.5s-0.5 -20.833 -0.5 -31.5v-31v-27v-8.5v-9.5v-23v-24c1.33301 -28 5.33301 -53.667 12 -77
s20.334 -35 41.001 -35h28v-38h-10h-3.5h-3.5h-3.5h-3.5c-9.33301 0 -17.666 0.333008 -24.999 1s-14 1.33398 -20 2.00098c-2.66699 0 -5.16699 0.166992 -7.5 0.5s-4.83301 0.833008 -7.5 1.5c-9.33301 2 -19.333 3.66699 -30 5s-22.667 2 -36 2s-25.333 -0.666992 -36 -2
s-20.667 -3 -30 -5c-2.66699 -0.666992 -5 -1.16699 -7 -1.5s-4.33301 -0.5 -7 -0.5c-6 -0.666992 -12.333 -1.33398 -19 -2.00098s-14.667 -1 -24 -1h-10h-5h-6v38h21c21.333 0 35.5 11.5 42.5 34.5s11.167 48.5 12.5 76.5c0.666992 9.33301 1 18.5 1 27.5v25.5v6v6v25.5
v25.5c0 104.667 -2.5 193.667 -7.5 267s-23.5 110 -55.5 110h-14v38h10c13.333 0 24.666 -0.166992 33.999 -0.5s18.333 -0.833008 27 -1.5l18.5 -2c6.33301 -0.666992 13.166 -1.33398 20.499 -2.00098c4.66699 -0.666992 9.33398 -1.16699 14.001 -1.5
s9.33398 -0.5 14.001 -0.5c4 -0.666992 8.33301 -1 13 -1h14h-10h33.5h32.5h16.5h16.5c6 0 11.833 0.166992 17.5 0.5s11.5 0.5 17.5 0.5h9.5h8.5c8.66699 0 17.5 0.166992 26.5 0.5s17.833 0.833008 26.5 1.5c3.33301 0 6.33301 0.166992 9 0.5s5.66699 0.5 9 0.5
c6 0.666992 12 1.16699 18 1.5s12 0.5 18 0.5c2.66699 0 5.33398 0.166992 8.00098 0.5s5 0.5 7 0.5c5.33301 0.666992 10.666 1.16699 15.999 1.5s12 0.5 20 0.5h10c-0.666992 -5.33301 -1.5 -10.333 -2.5 -15s-2.16699 -9 -3.5 -13c0 -2 -0.166992 -3.83301 -0.5 -5.5
s-0.833008 -3.5 -1.5 -5.5c-1.33301 -6 -2.83301 -12.333 -4.5 -19l-5.5 -23c-1.33301 -3.33301 -2.33301 -6.5 -3 -9.5s-1.33398 -6.16699 -2.00098 -9.5c0 -0.666992 -0.166992 -1.33398 -0.5 -2.00098l-0.5 -1c-1.33301 -6.66699 -3 -14.334 -5 -23.001l-9 -38h-10h-39
c1.33301 5.33301 2.66602 11.5 3.99902 18.5s2 13.833 2 20.5v2.5v3.5c-1.33301 16.667 -8 32 -20 46s-34.667 21.333 -68 22c-5.33301 0 -11.833 -0.166992 -19.5 -0.5s-15.5 -0.5 -23.5 -0.5c-2.66699 -0.666992 -5.33398 -1 -8.00098 -1h-7
c-7.33301 -0.666992 -13.833 -1.16699 -19.5 -1.5s-10.5 -0.5 -14.5 -0.5v-248c5.33301 -0.666992 10.666 -1.16699 15.999 -1.5s10.666 -0.833008 15.999 -1.5c7.33301 0 14.666 -0.166992 21.999 -0.5s15.333 -0.5 24 -0.5h-10h2.5h2.5h14.5c5 0 10.167 0.333008 15.5 1
c14.667 2 28 7.66699 40 17s17.667 27.333 17 54v4.5v4.5h10v0z" />
    <glyph glyph-name="G" unicode="G" horiz-adv-x="766" 
d="M702 502l-37.999 0.000976562c-0.666992 8 -2.33398 17.167 -5.00098 27.5s-6.33398 21.166 -11.001 32.499c-10 21.333 -26.167 40.833 -48.5 58.5s-54.5 26.834 -96.5 27.501c-68 -0.666992 -128.833 -24.834 -182.5 -72.501s-80.5 -123.834 -80.5 -228.501
c0 -101.333 24 -177 72 -227s101 -79 159 -87c5.33301 -1.33301 10.666 -2.16602 15.999 -2.49902s10.666 -0.5 15.999 -0.5c18.667 0 34.667 1.16699 48 3.5s25.333 5.83301 36 10.5l3 52c0.666992 11.333 1 21.333 1 30v1.5v1.5c0 6.66699 0.166992 14 0.5 22
s0.833008 18.667 1.5 32c0.666992 5.33301 1 10.333 1 15v14c0 38.667 -5.16699 65.334 -15.5 80.001s-26.5 22 -48.5 22h-16v36h10h20c9.33301 0 16.333 -0.166992 21 -0.5s9 -0.833008 13 -1.5c1.33301 0 2.5 -0.166992 3.5 -0.5s2.16699 -0.5 3.5 -0.5
c6 -0.666992 14 -1.33398 24 -2.00098s25.667 -1 47 -1c20.667 0 34.834 0.333008 42.501 1s13.5 1.33398 17.5 2.00098h1.5c0.333008 0 0.833008 0.333008 1.5 1c3.33301 0.666992 7.33301 1.16699 12 1.5s13 0.5 25 0.5h10h32v-36h-15
c-20.667 0 -36.167 -11.667 -46.5 -35s-15.166 -77.666 -14.499 -162.999v-39c0 -14 0.333008 -28.667 1 -44c-17.333 -7.33301 -37.166 -14 -59.499 -20s-45.166 -11 -68.499 -15c-21.333 -4 -42 -7.16699 -62 -9.5s-38.333 -3.5 -55 -3.5l-10 -1
c-14 0.666992 -28.333 2 -43 4s-29.667 4.66699 -45 8c-72 17.333 -138.167 56.666 -198.5 117.999s-90.5 144 -90.5 248c0 109.333 37 191.166 111 245.499s171.667 81.5 293 81.5h10c19.333 0 35.833 -0.666992 49.5 -2s25.834 -3 36.501 -5
c5.33301 -0.666992 10.166 -1.5 14.499 -2.5s8.83301 -1.5 13.5 -1.5l14 -2c4.66699 -0.666992 9.66699 -1 15 -1c12 0.666992 23.667 1.66699 35 3s21 2.66602 29 3.99902h10c-0.666992 -8.66699 -1.33398 -16.334 -2.00098 -23.001l-2 -20
c-0.666992 -8 -1.16699 -16 -1.5 -24s-0.5 -17.333 -0.5 -28c-0.666992 -10.667 -1.16699 -19.5 -1.5 -26.5s-0.5 -13.5 -0.5 -19.5v-2v-2c-0.666992 -5.33301 -1 -10.666 -1 -15.999s-0.333008 -11.666 -1 -18.999h-10v0z" />
    <glyph glyph-name="H" unicode="H" horiz-adv-x="850" 
d="M304 428v-47.999c20.667 -2.66699 43.667 -4.83398 69 -6.50098s63 -2.5 113 -2.5c32.667 0 60.334 0.5 83.001 1.5s42 2.16699 58 3.5c6.66699 0.666992 12.5 1.16699 17.5 1.5s9.83301 0.833008 14.5 1.5v33.5v32.5c0.666992 54 -1 100.333 -5 139s-19.667 58 -47 58
h-21v37h10h33c4 0 8.16699 -0.166992 12.5 -0.5s8.5 -0.833008 12.5 -1.5c2 0 4 -0.166992 6 -0.5s4 -0.5 6 -0.5c2.66699 -0.666992 5 -1.16699 7 -1.5s4 -0.5 6 -0.5c8 -0.666992 16 -1.5 24 -2.5s16.333 -1.5 25 -1.5c4 0 8 0.166992 12 0.5s8.33301 0.5 13 0.5
c4 0.666992 8 1.16699 12 1.5s8 0.833008 12 1.5c2 0 4 0.166992 6 0.5s4.33301 0.833008 7 1.5c2 0 4 0.166992 6 0.5s4 0.5 6 0.5c4 0.666992 8.16699 1.16699 12.5 1.5s8.5 0.5 12.5 0.5h10h33v-37h-21c-28 0 -44.167 -21.333 -48.5 -64s-5.83301 -98 -4.5 -166v-49.5
v-52.5v-16v-16v-8v-7v-24v-24v-11.5v-12.5v-23.5c0 -8.33301 0.333008 -16.5 1 -24.5c0.666992 -26 4.5 -50 11.5 -72s20.833 -33 41.5 -33h21v-38h-10h-3h-3h-3.5h-3.5c-8 0 -15 0.166992 -21 0.5s-12 1.16602 -18 2.49902c-2.66699 0 -5.33398 0.166992 -8.00098 0.5
s-5.33398 0.833008 -8.00098 1.5c-8.66699 2 -18.5 3.66699 -29.5 5s-23.167 2 -36.5 2s-25.333 -0.666992 -36 -2s-20.667 -3 -30 -5c-2.66699 -0.666992 -5.16699 -1.16699 -7.5 -1.5s-4.83301 -0.5 -7.5 -0.5c-6 -1.33301 -12.167 -2.16602 -18.5 -2.49902
s-13.833 -0.5 -22.5 -0.5h-10h-5h-6v38h21c14.667 0 25.334 5.33301 32.001 16s11.334 22.334 14.001 35.001c0.666992 6 1.33398 11.5 2.00098 16.5s1 9.83301 1 14.5c0.666992 12 1.16699 23 1.5 33s0.833008 19.667 1.5 29c0.666992 16.667 1.16699 34.167 1.5 52.5
s0.5 41.833 0.5 70.5v26c-19.333 -1.33301 -40.666 -2.33301 -63.999 -3s-56 -1.33398 -98 -2.00098h-10h-20h-20h-20h-20c-22.667 0.666992 -42.334 1.5 -59.001 2.5s-31.334 1.83301 -44.001 2.5c0 -6 -0.333008 -13 -1 -21s-1 -16.667 -1 -26
c-0.666992 -12 -1.33398 -24.833 -2.00098 -38.5s-1 -27.5 -1 -41.5v-2.5v-3.5c0.666992 -40 4.83398 -76.667 12.501 -110s22.834 -50 45.501 -50h20v-38h-10h-6h-6c-8 0 -15 0.166992 -21 0.5s-12 1.16602 -18 2.49902c-2.66699 0 -5.33398 0.166992 -8.00098 0.5
s-5.33398 0.833008 -8.00098 1.5c-8.66699 2 -18.5 3.66699 -29.5 5s-23.167 2 -36.5 2s-25.333 -0.666992 -36 -2s-20.667 -3 -30 -5c-2.66699 -0.666992 -5.16699 -1.16699 -7.5 -1.5s-4.83301 -0.5 -7.5 -0.5c-6 -1.33301 -12.167 -2.16602 -18.5 -2.49902
s-13.833 -0.5 -22.5 -0.5h-10h-5h-6v38h21c20 0 33.667 11.167 41 33.5s11.333 46.833 12 73.5c0.666992 10 1 19.667 1 29v27v8v8v22.5v20.5v2.5v2.5c-0.666992 7.33301 -1 15 -1 23v27v24.5v22.5v2v2c0.666992 8 1 16.167 1 24.5v27.5v39.5v38.5v10v10
c0.666992 32 -1.16602 61 -5.49902 87s-19.5 39 -45.5 39h-21v37h10h33c4 0 8.16699 -0.166992 12.5 -0.5s8.5 -0.833008 12.5 -1.5c2 0 4 -0.166992 6 -0.5s4 -0.5 6 -0.5c2.66699 -0.666992 5 -1.16699 7 -1.5s4 -0.5 6 -0.5c8 -0.666992 16 -1.5 24 -2.5
s16.333 -1.5 25 -1.5c4 0 8 0.166992 12 0.5s8.33301 0.5 13 0.5c4 0.666992 8 1.16699 12 1.5s8 0.833008 12 1.5c2 0 4 0.166992 6 0.5s4.33301 0.833008 7 1.5c2 0 4 0.166992 6 0.5s4 0.5 6 0.5c4 0.666992 8.16699 1.16699 12.5 1.5s8.5 0.5 12.5 0.5h10h33v-37h-21
c-26.667 0 -42.334 -18.5 -47.001 -55.5s-6.66699 -77.5 -6 -121.5v-3v-3v-15.5v-15.5v0z" />
    <glyph glyph-name="I" unicode="I" horiz-adv-x="374" 
d="M103 641l-0.00292969 38.0029h10c24.667 0 41 -0.5 49 -1.5s13.667 -1.83301 17 -2.5c0 -0.666992 0.166992 -1 0.5 -1h0.5c4 -1.33301 9.5 -2.33301 16.5 -3s23.167 -1 48.5 -1s41.5 0.333008 48.5 1s12.5 1.66699 16.5 3h0.5c0.333008 0 0.5 0.333008 0.5 1
c3.33301 0.666992 9 1.5 17 2.5s24.333 1.5 49 1.5h10v-38h-21c-23.333 0 -38 -18.333 -44 -55s-8.66699 -115.667 -8 -237v-19.5v-19.5v-14v-15v-20.5c0 -7 -0.333008 -13.833 -1 -20.5v-5.5v-5.5c0 -8.66699 -0.166992 -17.334 -0.5 -26.001s-0.5 -17 -0.5 -25
c0 -37.333 3.33301 -69.833 10 -97.5s21.334 -42.5 44.001 -44.5c1.33301 0 2.5 0.166992 3.5 0.5s1.83301 0.5 2.5 0.5c1.33301 0 2.5 0.166992 3.5 0.5s1.83301 0.5 2.5 0.5h10v-38h-10h-37c-6.66699 0 -13.5 0.666992 -20.5 2l-20.5 4
c-1.33301 0 -2.83301 0.166992 -4.5 0.5s-3.5 0.833008 -5.5 1.5c-5.33301 0.666992 -11.833 1.33398 -19.5 2.00098s-16.5 1 -26.5 1s-18.667 -0.333008 -26 -1s-13.666 -1.33398 -18.999 -2.00098c-2 -0.666992 -3.83301 -1.16699 -5.5 -1.5s-3.16699 -0.5 -4.5 -0.5
c-4 -0.666992 -8.5 -1.5 -13.5 -2.5s-9.83301 -1.83301 -14.5 -2.5c-2 -0.666992 -4.16699 -1 -6.5 -1h-7.5h-10h-36v38h10h1.5h1.5c0 -0.666992 0.166992 -1 0.5 -1h1.5c16 0.666992 29 8.33398 39 23.001s15.333 34.667 16 60c0.666992 14 1.16699 27 1.5 39
s0.5 23.667 0.5 35l2 42c0.666992 13.333 1 26.666 1 39.999c0 5.33301 0.166992 10.666 0.5 15.999s0.5 11 0.5 17c0.666992 9.33301 1 18.666 1 27.999v27v12v13c-0.666992 4 -1 8 -1 12v12v15.5v14.5c-0.666992 5.33301 -1 10.333 -1 15v14
c-0.666992 51.333 -3.66699 92.333 -9 123s-19.666 46 -42.999 46h-21v0z" />
    <glyph glyph-name="J" unicode="J" horiz-adv-x="402" 
d="M41 -68l35 0.000976562c-1.33301 -5.33301 -2.5 -11.5 -3.5 -18.5s-1.5 -13.833 -1.5 -20.5v-1.5v-1.5c0.666992 -16.667 4.16699 -32 10.5 -46s17.5 -21.667 33.5 -23c50.667 4.66699 80.834 59.167 90.501 163.5s14.5 219.166 14.5 344.499v18.5v18.5v26v26
c0 8 0.166992 16.333 0.5 25s0.5 17.334 0.5 26.001c0 8 0.166992 16.333 0.5 25s0.5 17 0.5 25c0 33.333 -3.16699 62.166 -9.5 86.499s-21.166 36.5 -44.499 36.5h-21v37h10h33c4 0 8 -0.166992 12 -0.5s8.33301 -0.833008 13 -1.5c2 0 4 -0.166992 6 -0.5s4 -0.5 6 -0.5
c2 -0.666992 4 -1.16699 6 -1.5s4 -0.5 6 -0.5c4 -0.666992 8 -1.16699 12 -1.5s8.33301 -0.833008 13 -1.5c4 0 8 -0.166992 12 -0.5s8 -0.5 12 -0.5c8.66699 0 17.167 0.5 25.5 1.5s16.5 1.83301 24.5 2.5c2 0 4 0.166992 6 0.5s4 0.833008 6 1.5c2 0 4 0.166992 6 0.5
s4.33301 0.5 7 0.5c4 0.666992 8 1.16699 12 1.5s8 0.5 12 0.5h10h33v-37h-21c-24.667 0 -39.5 -20.333 -44.5 -61s-7.83301 -106 -8.5 -196c0 -12 -0.166992 -24.333 -0.5 -37s-0.5 -25.667 -0.5 -39c-0.666992 -8.66699 -1 -17.334 -1 -26.001v-26v-11.5
c0 -3.66699 0.333008 -7.5 1 -11.5v-11.5v-11.5c0 -12 0.166992 -24.167 0.5 -36.5s0.5 -24.5 0.5 -36.5v-36.5v-36.5c0 -15.333 -1.83301 -31.166 -5.5 -47.499s-8.83398 -32.833 -15.501 -49.5c-18.667 -46.667 -46.334 -90.667 -83.001 -132
s-75.334 -68.333 -116.001 -81c-6.66699 -2 -13.667 -3.66699 -21 -5s-14.333 -2 -21 -2l-10 -1c-29.333 0.666992 -50.666 8.5 -63.999 23.5s-20 32.167 -20 51.5c0 2.66699 0.166992 5 0.5 7s0.5 4 0.5 6c2 8 5.5 18 10.5 30s11.5 34.667 19.5 68l10 -1v0z" />
    <glyph glyph-name="K" unicode="K" horiz-adv-x="737" 
d="M506 641l-0.00195312 37.9932c4 0.666992 7.66699 1 11 1h9h10c4.66699 0 9 -0.166992 13 -0.5s8 -0.833008 12 -1.5c3.33301 0 6.5 -0.166992 9.5 -0.5s5.83301 -0.833008 8.5 -1.5c6.66699 -0.666992 14.334 -1.5 23.001 -2.5s19 -1.5 31 -1.5
c8 0 16.833 0.333008 26.5 1s20.834 1.66699 33.501 3c8 0.666992 16.333 1.16699 25 1.5s18 0.833008 28 1.5h10v-38h-10c-0.666992 0 -1.5 0.166992 -2.5 0.5s-1.83301 0.5 -2.5 0.5h-3h-3c-13.333 0 -25.666 -1.83301 -36.999 -5.5s-22.333 -8.83398 -33 -15.501
c-29.333 -18 -62.166 -47.333 -98.499 -88s-90.5 -91.667 -162.5 -153c37.333 -13.333 69.166 -35.5 95.499 -66.5s50.166 -63.833 71.499 -98.5l34 -59c10.667 -19.333 21.334 -37 32.001 -53c12 -18 24.167 -32.833 36.5 -44.5s25.5 -18.167 39.5 -19.5l10 2
c3.33301 0.666992 7 1.33398 11 2.00098c2 0.666992 4.16699 1.33398 6.5 2.00098s4.5 1.33398 6.5 2.00098c4 1.33301 7.66699 2.66602 11 3.99902s6 2.33301 8 3h10v-39l-38 -13c-10 -3.33301 -19.667 -5.66602 -29 -6.99902
c-4.66699 -1.33301 -9.33398 -2.16602 -14.001 -2.49902s-9.66699 -0.5 -15 -0.5l-10 -1c-22 0.666992 -41.5 4.83398 -58.5 12.501s-33.167 19.5 -48.5 35.5c-28 28 -59.167 68.333 -93.5 121s-84.166 116.334 -149.499 191.001c96 100 158.5 169.167 187.5 207.5
s43.5 60.833 43.5 67.5c0 4.66699 -3 8.33398 -9 11.001s-13 4.33398 -21 5.00098c-0.666992 -0.666992 -1.33398 -1 -2.00098 -1h-3h-10v0zM99.998 641.993l0.00292969 37h10h33c4 0 8 -0.166992 12 -0.5s8.33301 -0.833008 13 -1.5c2 0 4 -0.166992 6 -0.5s4 -0.5 6 -0.5
c2 -0.666992 4 -1.16699 6 -1.5s4 -0.5 6 -0.5c4 -0.666992 8 -1.16699 12 -1.5s8.33301 -0.833008 13 -1.5c4 0 8 -0.166992 12 -0.5s8 -0.5 12 -0.5c8.66699 0 17.167 0.5 25.5 1.5s16.5 1.83301 24.5 2.5c2 0 4 0.166992 6 0.5s4 0.833008 6 1.5c2 0 4 0.166992 6 0.5
s4.33301 0.5 7 0.5c4 0.666992 8 1.16699 12 1.5s8 0.5 12 0.5h10h34v-37h-21c-26.667 0 -42 -18.167 -46 -54.5s-6 -83.833 -6 -142.5v-14.5v-14.5v-12.5v-13.5v-13.5v-12.5v-64.5v-17.5v-2v-2c-0.666992 -2.66699 -1 -8.16699 -1 -16.5v-46.5v-9.5v-10.5v-25v-27
c1.33301 -26 5.5 -50 12.5 -72s20.833 -33 41.5 -33h20v-38h-10h-6h-6c-8 0 -15 0.166992 -21 0.5s-12 1.16602 -18 2.49902c-2.66699 0 -5.33398 0.166992 -8.00098 0.5s-5.33398 0.833008 -8.00098 1.5c-8.66699 2 -18.5 3.66699 -29.5 5s-23.167 2 -36.5 2
s-25.333 -0.666992 -36 -2s-20.667 -3 -30 -5c-2.66699 -0.666992 -5.16699 -1.16699 -7.5 -1.5s-4.83301 -0.5 -7.5 -0.5c-6 -1.33301 -12.167 -2.16602 -18.5 -2.49902s-13.833 -0.5 -22.5 -0.5h-10h-5h-6v38h20c21.333 0 35.666 11.333 42.999 34
s11.666 47.667 12.999 75c0.666992 10 0.833984 19.833 0.500977 29.5s-0.5 18.5 -0.5 26.5v5v4c0 8 -0.166992 16.167 -0.5 24.5s-0.5 16.5 -0.5 24.5v24.5v24.5v10v11v10v10v10.5v10.5c0 98 -2.16699 167.5 -6.5 208.5s-19.5 61.5 -45.5 61.5h-21v0z" />
    <glyph glyph-name="L" unicode="L" horiz-adv-x="597" 
d="M594 156l38.002 -0.000976562c-4 -20.667 -7.83301 -38.834 -11.5 -54.501s-7.16699 -29.167 -10.5 -40.5c-10.667 -34 -22.834 -54.5 -36.501 -61.5s-36.5 -10.5 -68.5 -10.5l-10 -1c-22.667 0.666992 -41 1.5 -55 2.5s-27.333 2.16699 -40 3.5
c-5.33301 0 -10.5 0.333008 -15.5 1s-10.5 1.33398 -16.5 2.00098c-2 0 -4.16699 0.166992 -6.5 0.5s-4.83301 0.5 -7.5 0.5c-2.66699 0.666992 -5.16699 1.16699 -7.5 1.5s-4.5 0.5 -6.5 0.5c-4.66699 0 -9.33398 0.166992 -14.001 0.5s-9.33398 0.833008 -14.001 1.5
c-4.66699 0 -9.33398 0.166992 -14.001 0.5s-9.33398 0.833008 -14.001 1.5c-8 1.33301 -16.167 2.33301 -24.5 3s-16.833 1 -25.5 1c-4 0 -7.83301 -0.166992 -11.5 -0.5s-7.5 -0.5 -11.5 -0.5c-4 -0.666992 -8 -1.16699 -12 -1.5s-8 -0.833008 -12 -1.5
c-8 -0.666992 -16 -1.5 -24 -2.5s-16 -1.5 -24 -1.5h-10h-31v38h23c22 0 36.167 11.833 42.5 35.5s9.5 49.5 9.5 77.5v4v4v15v14c-0.666992 4.66699 -1 9.33398 -1 14.001v13v25.5v23.5c-0.666992 8 -1 16 -1 24v25v39c0 6 0.333008 10.667 1 14v14v39v1.5v1.5v16v16
c0.666992 49.333 -1.16602 93 -5.49902 131s-19.833 57 -46.5 57h-21v37h10h33c4 0 8 -0.166992 12 -0.5s8.33301 -0.833008 13 -1.5c2 0 4 -0.166992 6 -0.5s4 -0.5 6 -0.5c2 -0.666992 4 -1.16699 6 -1.5s4 -0.5 6 -0.5c8 -0.666992 16 -1.5 24 -2.5s16.333 -1.5 25 -1.5
c4 0 8 0.166992 12 0.5s8.33301 0.5 13 0.5c4 0.666992 8 1.16699 12 1.5s8 0.833008 12 1.5c2 0 4 0.166992 6 0.5s4.33301 0.833008 7 1.5c2 0 4 0.166992 6 0.5s4 0.5 6 0.5c4 0.666992 8.16699 1.16699 12.5 1.5s8.5 0.5 12.5 0.5h10h33v-37h-21
c-25.333 0 -40.166 -12.167 -44.499 -36.5s-6.5 -53.5 -6.5 -87.5v-11.5v-11.5v-18.5v-19.5v-19.5v-18.5c0 -32 0.166992 -55.833 0.5 -71.5s0.5 -28.834 0.5 -39.501v-4v-4c0 -8.66699 0.166992 -18.334 0.5 -29.001s0.5 -25.667 0.5 -45v-17v-16
c0 -68 6.16699 -111.167 18.5 -129.5s54.833 -27.833 127.5 -28.5c24 0.666992 46.833 8.83398 68.5 24.501s40.834 47.834 57.501 96.501h10v0z" />
    <glyph glyph-name="M" unicode="M" horiz-adv-x="935" 
d="M67 0l-0.000976562 36.9961c33.333 0 57 10 71 30s23.333 42.333 28 67c2 8.66699 3.5 17.5 4.5 26.5s1.83301 17.5 2.5 25.5c2 16 4 33.833 6 53.5s4 40.5 6 62.5c2 29.333 4.33301 60.166 7 92.499s5 64.833 7 97.5c2.66699 33.333 4.66699 66.5 6 99.5
s2.33301 64.167 3 93.5c10.667 1.33301 21.5 3.33301 32.5 6s22.167 6.33398 33.5 11.001h10c2 -4 3.66699 -7.66699 5 -11l4 -10c0 -0.666992 0.166992 -1.16699 0.5 -1.5s0.5 -0.833008 0.5 -1.5l14.5 -37.5c5.66699 -15 16.167 -39.833 31.5 -74.5l17 -37
c3.33301 -7.33301 6.33301 -13.666 9 -18.999c3.33301 -6 7.5 -14.667 12.5 -26l28.5 -66c24.667 -55.333 45.5 -99.833 62.5 -133.5s30.833 -64.834 41.5 -93.501c2.66699 -6 5 -12.167 7 -18.5l6 -18.5c1.33301 5.33301 2.83301 10.5 4.5 15.5l4.5 13.5
c1.33301 4.66699 2.83301 9.16699 4.5 13.5s3.16699 8.5 4.5 12.5c5.33301 12 11.333 24.833 18 38.5l27 54.5l35 70.5l41 84.5l6 14l6 14l50.5 112c15.667 36 27.5 65.333 35.5 88c16 1.33301 31.833 3.5 47.5 6.5s30.834 6.5 45.501 10.5h10
c0.666992 -8.66699 1.16699 -16.167 1.5 -22.5s0.5 -12.166 0.5 -17.499v-1.5v-1.5c0 -2 0.166992 -4.16699 0.5 -6.5s0.5 -4.83301 0.5 -7.5v-4v-4c0 -7.33301 0.166992 -15.333 0.5 -24s1.16602 -20 2.49902 -34c0 -2.66699 0.166992 -5.16699 0.5 -7.5
s0.5 -4.83301 0.5 -7.5v-1v-1l2.5 -41c1 -16 2.83301 -43.333 5.5 -82c0 -2.66699 0.166992 -5.16699 0.5 -7.5s0.5 -4.83301 0.5 -7.5s0.166992 -5.33398 0.5 -8.00098s0.5 -5.33398 0.5 -8.00098c0.666992 -10 1.33398 -20.833 2.00098 -32.5s1.33398 -25.5 2.00098 -41.5
c0.666992 -8 1.16699 -16.667 1.5 -26s0.5 -19 0.5 -29c0.666992 -9.33301 1.16699 -19 1.5 -29s0.833008 -20 1.5 -30c2 -46 7.83301 -88 17.5 -126s29.5 -57 59.5 -57h15v-37h-10c-16.667 0 -30.834 0.666992 -42.501 2l-33.5 4l-27 4c-9.33301 1.33301 -20 2 -32 2
c-10 0 -19.333 -0.666992 -28 -2l-26 -4c-1.33301 -0.666992 -2.5 -1 -3.5 -1s-2.16699 -0.333008 -3.5 -1c-8 -1.33301 -16 -2.33301 -24 -3s-16.667 -1 -26 -1l-10 -1c-2.66699 0.666992 -5.5 1 -8.5 1h-9.5v37c32 0.666992 50.833 9.33398 56.5 26.001
s8.5 42.334 8.5 77.001c0 50 -0.833008 92.167 -2.5 126.5s-3.5 63.833 -5.5 88.5c-2 22 -3.83301 41.167 -5.5 57.5s-2.83398 32.5 -3.50098 48.5v5v6v10v9l-10 -24l-8 -20l-0.5 -0.5c-0.333008 -0.333008 -0.5 -0.833008 -0.5 -1.5
c-2 -5.33301 -4.16699 -10.833 -6.5 -16.5s-5.16602 -11.834 -8.49902 -18.501c-2 -5.33301 -6.83301 -16 -14.5 -32l-23.5 -51l-23 -49.5l-15 -31.5l-20.5 -42l-13.5 -28l-13.5 -27.5l-21.5 -44.5c-4 -9.33301 -7.16699 -16.5 -9.5 -21.5l-6.5 -13.5l-9 -18.5l-17 -35.5
h-10h-37c-5.33301 10.667 -9.5 19.334 -12.5 26.001s-5.5 12.667 -7.5 18l-0.5 0.5l-0.5 0.5c-1.33301 4 -3.16602 8.16699 -5.49902 12.5s-4.83301 9.5 -7.5 15.5l-17 34.5l-19 37.5l-2 4c-0.666992 1.33301 -1.33398 3 -2.00098 5
c-8.66699 15.333 -16.834 30.5 -24.501 45.5l-20.5 40.5c-44.667 90 -72.667 150.833 -84 182.5s-18 52.834 -20 63.501h-1v-16c0 -19.333 -0.5 -39.5 -1.5 -60.5l-3.5 -71.5c0 -6.66699 -0.166992 -13.5 -0.5 -20.5s-0.833008 -13.833 -1.5 -20.5
c-0.666992 -7.33301 -1.16699 -14.333 -1.5 -21s-0.5 -13.667 -0.5 -21c-0.666992 -18.667 -1.16699 -37.5 -1.5 -56.5s-1.16602 -38.167 -2.49902 -57.5c-0.666992 -8 -1.16699 -15.667 -1.5 -23s-0.5 -14.666 -0.5 -21.999c0 -21.333 3.83301 -39 11.5 -53
s25.5 -21 53.5 -21h6v-37h-9.5h-8.5l-10 -1c-2.66699 0.666992 -5.16699 1 -7.5 1h-7.5c-2.66699 0 -5.16699 0.333008 -7.5 1s-4.83301 1.33398 -7.5 2.00098c-1.33301 0 -2.5 0.166992 -3.5 0.5s-2.16699 0.833008 -3.5 1.5c-6 1.33301 -12.667 2.33301 -20 3s-17 1 -29 1
c-10 0 -18.5 -0.333008 -25.5 -1s-13.167 -1.66699 -18.5 -3c-2 0 -4 -0.166992 -6 -0.5s-4 -0.833008 -6 -1.5c-2.66699 0 -5.66699 -0.333008 -9 -1s-6.33301 -1 -9 -1c-2.66699 -0.666992 -5.16699 -1 -7.5 -1h-7.5h-10h-30v0z" />
    <glyph glyph-name="N" unicode="N" horiz-adv-x="822" 
d="M79 0l0.00292969 38.001h14c33.333 0 53 12.333 59 37s9.33301 72 10 142c0 9.33301 0.166992 19.5 0.5 30.5s0.5 22.5 0.5 34.5v32.5v32.5v10.5v11.5v21.5v21.5v40c0 12.667 -0.333008 24.334 -1 35.001c0 29.333 -0.166992 54.333 -0.5 75
s-0.833008 40.334 -1.5 59.001c0 9.33301 -0.166992 18.666 -0.5 27.999s-0.833008 19 -1.5 29l30 10c10 3.33301 19.333 7 28 11h10l93 -112c43.333 -51.333 99.666 -113.333 168.999 -186c75.333 -78.667 126.5 -134.334 153.5 -167.001s45.833 -57 56.5 -73v166v24.5
c0 8.33301 0.333008 16.833 1 25.5v37.5v36.5c0 50.667 -4.66699 94.5 -14 131.5s-31.333 56.167 -66 57.5h-3.5c-1.66699 0 -3.16699 -0.333008 -4.5 -1h-10v39h10h30c14.667 0 24 -0.333008 28 -1s7.33301 -1.66699 10 -3v0h1c2 -1.33301 6.16699 -2.5 12.5 -3.5
s20.166 -1.5 41.499 -1.5c14.667 0 25 0.5 31 1.5s10.667 2.16699 14 3.5h1v0c4 0.666992 8.5 1.5 13.5 2.5s14.167 1.5 27.5 1.5h10h26v-39h-10c-1.33301 0 -2.5 0.166992 -3.5 0.5s-2.16699 0.5 -3.5 0.5s-2.5 0.166992 -3.5 0.5s-2.16699 0.5 -3.5 0.5
c-28.667 -2 -45.5 -16.5 -50.5 -43.5s-7.83301 -61.833 -8.5 -104.5v-6v-6v-9v-10c-0.666992 -2.66699 -1 -5.66699 -1 -9v-10c0 -10 -0.333008 -22.5 -1 -37.5s-1 -31.5 -1 -49.5c-0.666992 -18.667 -1.33398 -38.334 -2.00098 -59.001s-1 -41.667 -1 -63
c-0.666992 -32 -1.16699 -63.333 -1.5 -94s-0.5 -58 -0.5 -82v-32.5c0 -9.66699 0.333008 -18.167 1 -25.5c-5.33301 -0.666992 -10.833 -1.83398 -16.5 -3.50098s-11.167 -3.5 -16.5 -5.5c-6 -1.33301 -11.833 -3 -17.5 -5l-16.5 -6l-10 -1l-56.5 67l-60.5 71
c-4.66699 4.66699 -9.16699 9.5 -13.5 14.5s-8.5 10.167 -12.5 15.5l-84 93l-75 82c-52.667 57.333 -89.834 99 -111.501 125s-38.167 47.333 -49.5 64c0.666992 -8 1.33398 -19.833 2.00098 -35.5s1.33398 -32.167 2.00098 -49.5c0 -17.333 0.166992 -34 0.5 -50
s0.5 -28 0.5 -36v-16.5v-16.5v-8.5v-8.5v-25.5v-24.5v-6v-6c1.33301 -62 5.16602 -109.333 11.499 -142s24.5 -49.667 54.5 -51c4 0 8 0.333008 12 1s8.33301 1.33398 13 2.00098h10v-38h-9.5h-8.5l-10 -1c-4.66699 0.666992 -9 1 -13 1s-8 0.333008 -12 1
c-2.66699 0.666992 -5.33398 1.16699 -8.00098 1.5s-5.66699 0.833008 -9 1.5c-6 1.33301 -12.833 2.5 -20.5 3.5s-16.5 1.5 -26.5 1.5c-8.66699 0 -17 -0.666992 -25 -2s-15.667 -2.33301 -23 -3c-0.666992 -0.666992 -1.16699 -1 -1.5 -1h-1.5
c-8 -1.33301 -16.167 -2.33301 -24.5 -3s-17.166 -1 -26.499 -1l-10 -1c-4 0.666992 -8 1.16699 -12 1.5s-8.33301 0.5 -13 0.5v0z" />
    <glyph glyph-name="O" unicode="O" horiz-adv-x="766" 
d="M91 354c2 106 38.499 188.834 109.499 248.501s153.5 89.5 247.5 89.5h10c84 0 160.833 -31.333 230.5 -94s104.5 -152.334 104.5 -269.001c0 -105.333 -34 -188.833 -102 -250.5s-146.333 -92.5 -235 -92.5l-10 -1c-98.667 0.666992 -182.667 35 -252 103
s-103.666 154.333 -102.999 259v2v2v1v2v0zM241.999 347.001c0 -86.667 18.168 -155.829 54.501 -207.496s76.166 -84.834 119.499 -99.501c7.33301 -2.66699 14.833 -4.83398 22.5 -6.50098s15.167 -2.5 22.5 -2.5c8 0.666992 16.5 2 25.5 4s18.167 5 27.5 9
c31.333 14 60 43 86 87s39 111 39 201c0 91.333 -18.5 163.666 -55.5 216.999s-77.833 85.666 -122.5 96.999c-5.33301 1.33301 -10.5 2.5 -15.5 3.5s-10.167 1.5 -15.5 1.5c-47.333 -1.33301 -90.5 -26 -129.5 -74s-58.5 -124.667 -58.5 -230v0z" />
    <glyph glyph-name="P" unicode="P" horiz-adv-x="598" 
d="M343 294l-0.00292969 33.001h10c2 -0.666992 3.83301 -1.16699 5.5 -1.5s3.5 -0.5 5.5 -0.5c2 -0.666992 3.83301 -1 5.5 -1h5.5c27.333 1.33301 52.5 14 75.5 38s34.5 61.333 34.5 112c0 52 -10.667 89.667 -32 113s-45 38.666 -71 45.999
c-9.33301 2.66699 -18.5 4.66699 -27.5 6s-17.5 2 -25.5 2h-4h-3c-1.33301 -0.666992 -2.66602 -1 -3.99902 -1h-4c0 -6.66699 -0.166992 -13.667 -0.5 -21s-0.5 -15 -0.5 -23c-0.666992 -14.667 -1.16699 -30 -1.5 -46s-0.5 -32.333 -0.5 -49v-38v-37v-38v-38v-20.5v-20.5
v-20.5v-20.5v-13.5v-12.5v-13.5v-13.5v-11v-12v-20.5c0 -7 0.333008 -14.167 1 -21.5c0.666992 -28 4.33398 -53.667 11.001 -77s20.334 -35 41.001 -35h28v-38h-10h-3.5h-3.5h-3.5h-3.5c-9.33301 -0 -17.666 0.333008 -24.999 1s-14 1.33398 -20 2.00098
c-2.66699 0 -5.16699 0.166992 -7.5 0.5s-4.83301 0.833008 -7.5 1.5c-8.66699 2 -18.5 3.66699 -29.5 5s-23.5 2 -37.5 2c-12.667 0 -24.334 -0.666992 -35.001 -2s-20.667 -3 -30 -5c-2.66699 -0.666992 -5 -1.16699 -7 -1.5s-4.33301 -0.5 -7 -0.5
c-6 -0.666992 -12.333 -1.33398 -19 -2.00098s-14.667 -1 -24 -1h-10h-5h-6v38h21c24.667 0 40.167 15.667 46.5 47s9.16602 67.333 8.49902 108v13.5v12.5v13.5v13.5c-0.666992 8.66699 -1 17.334 -1 26.001v25v22v22v22v22v13.5v12.5
c0 8.66699 0.166992 17.334 0.5 26.001s0.166016 17.334 -0.500977 26.001v15.5c0 5 -0.333008 9.83301 -1 14.5v9.5v9.5c-1.33301 31.333 -4.83301 60.166 -10.5 86.499s-19.5 40.833 -41.5 43.5c-0.666992 0 -1.5 -0.166992 -2.5 -0.5s-2.16699 -0.5 -3.5 -0.5
c-0.666992 0 -1.5 -0.166992 -2.5 -0.5s-1.83301 -0.5 -2.5 -0.5h-10l-1 40h10l48.5 -3c11 -0.666992 20.833 -1.33398 29.5 -2.00098c4.66699 -0.666992 9.16699 -1 13.5 -1h15.5c12.667 0 24.834 0.666992 36.501 2l34.5 4l37.5 4c13 1.33301 27.167 2 42.5 2h10
c69.333 0 121.333 -11 156 -33s59 -46.333 73 -73c8.66699 -17.333 14.334 -33.833 17.001 -49.5s4 -28.5 4 -38.5c0 -58.667 -19.667 -107.334 -59 -146.001s-91.666 -57.667 -156.999 -57h-10c-8.66699 0 -17.834 0.333008 -27.501 1s-19.5 2 -29.5 4v0z" />
    <glyph glyph-name="Q" unicode="Q" horiz-adv-x="766" 
d="M718 -72l98.999 -54.9971c-7.33301 -40 -21.666 -68.833 -42.999 -86.5s-44.333 -28.834 -69 -33.501c-4.66699 -0.666992 -9.5 -1.16699 -14.5 -1.5s-9.83301 -0.5 -14.5 -0.5l-10 -1c-52.667 0.666992 -100.167 11.5 -142.5 32.5s-83.833 48.167 -124.5 81.5
c-1.33301 1.33301 -2.83301 2.66602 -4.5 3.99902s-3.16699 2.66602 -4.5 3.99902c-2 2 -4.16699 4 -6.5 6s-4.5 4 -6.5 6l-25 18.5c-8.66699 6.33301 -17.334 11.166 -26.001 14.499c-3.33301 1.33301 -6.66602 2.33301 -9.99902 3l-10 2
c-12 -1.33301 -23.167 -7.33301 -33.5 -18s-17.166 -30.334 -20.499 -59.001l-10 -1c-7.33301 13.333 -15.166 25.5 -23.499 36.5l-25.5 32.5c15.333 13.333 31.666 23.666 48.999 30.999s36.333 11 57 11l10 -1c4 0.666992 8 0.833984 12 0.500977s8 -0.5 12 -0.5
c28.667 -3.33301 57.167 -10.5 85.5 -21.5s53.833 -23.167 76.5 -36.5c20 -11.333 37.167 -22 51.5 -32s24.5 -17.333 30.5 -22c1.33301 -1.33301 2.83301 -2.66602 4.5 -3.99902s3.5 -2.66602 5.5 -3.99902c13.333 -10 27 -19.5 41 -28.5s28.667 -13.833 44 -14.5
c2 0 4.16699 0.166992 6.5 0.5s4.5 0.833008 6.5 1.5c9.33301 2.66699 17.666 8.16699 24.999 16.5s11 21.5 11 39.5c0 14 -2 27 -6 39s-9.33301 22.667 -16 32l9 8h10v0zM83.999 354.003c0 100.667 30.001 178.001 90.001 232.001s126 87.333 198 100
c12 2 23.667 3.5 35 4.5s22.666 1.5 33.999 1.5h10c84 0 160.833 -31.333 230.5 -94s104.5 -152.334 104.5 -269.001c0 -105.333 -34 -188.833 -102 -250.5s-146.333 -92.5 -235 -92.5l-10 -1c-100 0.666992 -184.167 35.667 -252.5 105s-102.5 157.333 -102.5 264v0z
M235 347.004c0 -86.667 18.168 -155.829 54.501 -207.496s76.166 -84.834 119.499 -99.501c7.33301 -2.66699 14.833 -4.83398 22.5 -6.50098s15.167 -2.5 22.5 -2.5c8 0.666992 16.5 2 25.5 4s18.167 5 27.5 9c31.333 14 60 43 86 87s39 111 39 201
c0 91.333 -18.5 163.666 -55.5 216.999s-77.833 85.666 -122.5 96.999c-5.33301 1.33301 -10.5 2.5 -15.5 3.5s-10.167 1.5 -15.5 1.5c-47.333 -1.33301 -90.5 -26 -129.5 -74s-58.5 -124.667 -58.5 -230v0z" />
    <glyph glyph-name="R" unicode="R" horiz-adv-x="682" 
d="M91 640l0.0078125 38.001c3.33301 0.666992 6.5 1 9.5 1h8.5h4.5h4.5h10c6 0 11.667 -0.166992 17 -0.5s10.666 -0.5 15.999 -0.5c2 0 3.66699 -0.166992 5 -0.5s3 -0.5 5 -0.5c6.66699 -0.666992 13.834 -1.16699 21.501 -1.5s15.5 -0.5 23.5 -0.5
c15.333 0 30.333 0.666992 45 2l44 4l22 2l23 2c7.33301 0 14.666 0.166992 21.999 0.5s14.666 0.5 21.999 0.5h10c65.333 0 114.166 -12.833 146.499 -38.5s54.166 -53.5 65.499 -83.5c4.66699 -12.667 8 -25 10 -37s3 -23 3 -33c0 -11.333 -1.5 -24 -4.5 -38
s-7.83301 -28 -14.5 -42c-13.333 -26.667 -35.333 -51.667 -66 -75s-74 -37.666 -130 -42.999v-12c41.333 -9.33301 74.666 -22.5 99.999 -39.5s49 -39.167 71 -66.5l23 -31.5c8 -11 16.333 -23.167 25 -36.5c1.33301 -2.66699 2.83301 -5.16699 4.5 -7.5l5.5 -7.5
c12.667 -18.667 27.334 -36 44.001 -52s37 -24.333 61 -25h2h2l1 0.5c0.666992 0.333008 1.33398 0.5 2.00098 0.5h10v-35h-10c-68 2.66699 -117.667 11.334 -149 26.001s-59.333 37.667 -84 69c-8 10 -16.167 21.167 -24.5 33.5l-27.5 39.5l-12.5 18l-13.5 19
c-16.667 22 -36.167 42.167 -58.5 60.5s-48.5 27.5 -78.5 27.5h-3v-24v-27v-20.5c0 -7 0.333008 -14.167 1 -21.5c1.33301 -36.667 5.33301 -70.167 12 -100.5s20.667 -45.5 42 -45.5h21v-38h-10h-6h-6c-8 0 -15 0.166992 -21 0.5s-12 1.16602 -18 2.49902
c-2.66699 0 -5.33398 0.166992 -8.00098 0.5s-5.33398 0.833008 -8.00098 1.5c-8.66699 2 -18.5 3.66699 -29.5 5s-23.167 2 -36.5 2s-25.333 -0.666992 -36 -2s-20.667 -3 -30 -5c-2.66699 -0.666992 -5.16699 -1.16699 -7.5 -1.5s-4.83301 -0.5 -7.5 -0.5
c-6 -1.33301 -12.167 -2.16602 -18.5 -2.49902s-13.833 -0.5 -22.5 -0.5h-10h-5h-6v38h21c21.333 0 35.5 11.667 42.5 35s11.167 48.666 12.5 75.999v13.5v13.5v11v10c-0.666992 3.33301 -1 6.66602 -1 9.99902v9c0 16.667 -0.166992 32.5 -0.5 47.5s-0.5 29.833 -0.5 44.5
c-1.33301 112.667 -4.83301 195.667 -10.5 249s-21.5 81.666 -47.5 84.999c-0.666992 0 -1.33398 -0.166992 -2.00098 -0.5s-1.33398 -0.5 -2.00098 -0.5c-1.33301 0 -2.33301 -0.166992 -3 -0.5s-1.33398 -0.5 -2.00098 -0.5h-10v0zM301.008 375.001l0.00195312 -59.9971
c1.33301 0 2.66602 -0.166992 3.99902 -0.5s3 -0.5 5 -0.5h4h4c60.667 0.666992 104.167 18 130.5 52s40.5 71.333 42.5 112v5v4c0 51.333 -14.833 90.666 -44.5 117.999s-64.834 41.333 -105.501 42c-2.66699 0 -5.66699 -0.166992 -9 -0.5s-6.33301 -0.5 -9 -0.5
c-3.33301 -0.666992 -6.5 -1.33398 -9.5 -2.00098s-6.16699 -1.33398 -9.5 -2.00098c0 -6.66699 -0.166992 -16 -0.5 -28s-0.833008 -24.667 -1.5 -38v-14.5c0 -5 -0.333008 -10.167 -1 -15.5c0 -16 -0.166992 -31.667 -0.5 -47s-0.5 -28.333 -0.5 -39v-24
c0 -6.66699 0.333008 -13 1 -19v0v-1v-18.5v-22.5v0z" />
    <glyph glyph-name="S" unicode="S" horiz-adv-x="486" 
d="M94 191l42.002 0.00488281c2 -42.667 16.167 -79.5 42.5 -110.5s62.166 -47.167 107.499 -48.5c36.667 1.33301 63.5 12.666 80.5 33.999s25.5 45 25.5 71c0 31.333 -11.333 60 -34 86s-47.334 49.333 -74.001 70l-28 21l-27 19l-7.5 5.5l-7.5 5.5
c-29.333 21.333 -56.166 46 -80.499 74s-36.5 65.667 -36.5 113c0 50 18.5 89 55.5 117s84.833 42 143.5 42h10c8 0 14.833 -0.166992 20.5 -0.5s11.167 -0.833008 16.5 -1.5c7.33301 -0.666992 15.5 -1.5 24.5 -2.5s21.167 -2.16699 36.5 -3.5
c10.667 -0.666992 22.167 -1.33398 34.5 -2.00098l37.5 -2v-67c0 -10.667 0.166992 -20.334 0.5 -29.001s0.5 -17.334 0.5 -26.001l2 -22c0.666992 -7.33301 1.66699 -15.333 3 -24h-10h-37c-0.666992 6.66699 -1.66699 13.5 -3 20.5s-3 14.167 -5 21.5
c-7.33301 24.667 -19.5 47.167 -36.5 67.5s-42.167 31.166 -75.5 32.499c-32.667 -0.666992 -57.5 -9.83398 -74.5 -27.501s-25.5 -37.5 -25.5 -59.5c0 -29.333 11.667 -55.333 35 -78s48.666 -44 75.999 -64l13.5 -9.5l13.5 -9.5c41.333 -30 78.5 -63 111.5 -99
s49.5 -81 49.5 -135c0 -56 -26.167 -100 -78.5 -132s-109.833 -49 -172.5 -51h-5.5h-5.5l-10 -1c-75.333 0.666992 -119.833 12.834 -133.5 36.501s-21.167 62.5 -22.5 116.5c-0.666992 8 -1 16.333 -1 25s-0.333008 17.667 -1 27h10v0z" />
    <glyph glyph-name="T" unicode="T" horiz-adv-x="682" 
d="M328 627l-66.9941 0.00390625c-31.333 0 -59.5 -8 -84.5 -24s-44.5 -49.667 -58.5 -101h-10h-38c1.33301 8 2.33301 14.833 3 20.5l2 16.5c0.666992 0.666992 1 1.33398 1 2.00098v3c0.666992 2.66699 1.16699 5.66699 1.5 9s0.833008 7 1.5 11l7 47.5
c2 13.667 3.66699 26.5 5 38.5c0.666992 4.66699 1.16699 9.5 1.5 14.5s0.833008 10.167 1.5 15.5h10c46 -4 80.167 -6.83301 102.5 -8.5l59.5 -4.5c15.333 -0.666992 32.166 -1 50.499 -1h78.5c16 0 33.833 0.166992 53.5 0.5s39.834 1.16602 60.501 2.49902
c24.667 0.666992 48.667 1.66699 72 3s43.666 2.66602 60.999 3.99902c10 0.666992 18.167 1.16699 24.5 1.5s11.833 0.5 16.5 0.5h3h3c3.33301 0.666992 7.16602 1 11.499 1s9.5 0.333008 15.5 1h10c-1.33301 -15.333 -2.83301 -29.333 -4.5 -42l-4.5 -35
c-1.33301 -10 -2.83301 -18.833 -4.5 -26.5l-4.5 -20.5c-0.666992 -3.33301 -1.33398 -6.5 -2.00098 -9.5s-1.33398 -5.83301 -2.00098 -8.5v-1.5v-1.5c-0.666992 -4 -1.5 -8.5 -2.5 -13.5s-2.16699 -11.5 -3.5 -19.5h-10h-39c1.33301 4.66699 2.33301 9.5 3 14.5
s1 10.167 1 15.5c0.666992 2.66699 1 5.16699 1 7.5v7.5c0 23.333 -6.83301 43.166 -20.5 59.499s-45.167 24.5 -94.5 24.5h-28c-8 0 -15.667 -0.333008 -23 -1c-3.33301 0 -6.33301 -0.166992 -9 -0.5s-5.66699 -0.833008 -9 -1.5
c-2 -45.333 -3.16699 -84.166 -3.5 -116.499s-0.166016 -63.5 0.500977 -93.5v-10.5v-11.5v-29v-31v-30.5v-31.5v-31.5v-30.5v-6.5v-7.5v-26c0 -9.33301 0.333008 -18.666 1 -27.999c1.33301 -26.667 5.66602 -51 12.999 -73s21.333 -33 42 -33h21v-38h-10h-3h-3h-3.5h-3.5
c-8 0 -15 0.166992 -21 0.5s-12 1.16602 -18 2.49902c-2.66699 0 -5.33398 0.166992 -8.00098 0.5s-5.33398 0.833008 -8.00098 1.5c-8.66699 2 -18.5 3.66699 -29.5 5s-23.167 2 -36.5 2s-25.333 -0.666992 -36 -2s-20.667 -3 -30 -5
c-4 -0.666992 -7.83301 -1.16699 -11.5 -1.5s-7.16699 -0.833008 -10.5 -1.5c-6 -0.666992 -12 -1.16699 -18 -1.5s-12.667 -0.5 -20 -0.5h-10h-5h-6v38h21c22.667 0 37.834 17.167 45.501 51.5s12.167 72.166 13.5 113.499c0.666992 14.667 1 29.5 1 44.5
s-0.333008 29.167 -1 42.5v25v21v29.5v29.5c0 20 0.166992 39.833 0.5 59.5s0.166016 39.167 -0.500977 58.5v28.5c0 9 -0.333008 17.833 -1 26.5c0 9.33301 -0.333008 18.666 -1 27.999s-1.66699 19.666 -3 30.999v0z" />
    <glyph glyph-name="U" unicode="U" horiz-adv-x="822" 
d="M627 118c-10.667 -14 -21.6602 -26.499 -32.9932 -37.499s-22.333 -20.833 -33 -29.5c-40.667 -31.333 -79.334 -50 -116.001 -56s-64.334 -9 -83.001 -9l-10 -1c-65.333 0.666992 -113.166 15.834 -143.499 45.501s-50.5 62.5 -60.5 98.5
c-6.66699 22 -10.667 43.5 -12 64.5s-2 38.5 -2 52.5c0 18.667 0.5 37.334 1.5 56.001s2.16699 36.667 3.5 54c0.666992 4.66699 1.16699 9.16699 1.5 13.5s0.5 8.83301 0.5 13.5c1.33301 18.667 2.5 36 3.5 52s1.83301 32 2.5 48v6.5v6.5c0.666992 6 1 12 1 18v18v9v9
c-0.666992 2.66699 -1 5.5 -1 8.5v8.5c0 4 -0.166992 8.66699 -0.5 14s-1.16602 11 -2.49902 17c-2 10.667 -6.33301 20.667 -13 30s-17.667 14 -33 14h-21v37h10h33c4 0 8 -0.166992 12 -0.5s8.33301 -0.833008 13 -1.5c2 0 4 -0.166992 6 -0.5s4 -0.5 6 -0.5
c2 -0.666992 4 -1.16699 6 -1.5s4 -0.5 6 -0.5c4 -0.666992 8 -1.16699 12 -1.5s8.33301 -0.833008 13 -1.5c4 0 8 -0.166992 12 -0.5s8 -0.5 12 -0.5c8.66699 0 17.167 0.5 25.5 1.5s16.5 1.83301 24.5 2.5c2 0 4 0.166992 6 0.5s4 0.833008 6 1.5c2 0 4 0.166992 6 0.5
s4.33301 0.5 7 0.5c4 0.666992 8 1.16699 12 1.5s8 0.5 12 0.5h10h33v-37h-21c-26.667 0 -43 -24.5 -49 -73.5s-9 -141.5 -9 -277.5v-18.5v-18.5c1.33301 -52 10.166 -99.833 26.499 -143.5s56.166 -66.167 119.499 -67.5c9.33301 0 19.166 1.16699 29.499 3.5
s20.833 5.5 31.5 9.5c32 12.667 61.333 36.667 88 72s40.667 86.666 42 153.999c0 6 0.166992 11.667 0.5 17s0.5 10.666 0.5 15.999s0.166992 10.666 0.5 15.999s0.5 11 0.5 17v10.5v10.5c0 96.667 -2.16699 166.334 -6.5 209.001s-19.5 64 -45.5 64h-21v37h10h33
c4 0 8 -0.166992 12 -0.5s8.33301 -0.833008 13 -1.5c2 0 4 -0.166992 6 -0.5s4 -0.5 6 -0.5c2 -0.666992 4 -1.16699 6 -1.5s4 -0.5 6 -0.5c4 -0.666992 8 -1.16699 12 -1.5s8.33301 -0.833008 13 -1.5c4 0 8 -0.166992 12 -0.5s8 -0.5 12 -0.5
c8.66699 0 17.167 0.5 25.5 1.5s16.5 1.83301 24.5 2.5c2 0 4 0.166992 6 0.5s4.33301 0.833008 7 1.5c2 0 4 0.166992 6 0.5s4 0.5 6 0.5c4 0.666992 8.16699 1.16699 12.5 1.5s8.5 0.5 12.5 0.5h10h33v-37h-21c-26 0 -41.333 -18.167 -46 -54.5s-7 -82.5 -7 -138.5v-17
v-17v-26.5v-26.5v-27v-27v-16v-16v-19v-19c-0.666992 -52.667 1.16602 -99.167 5.49902 -139.5s21.833 -61.833 52.5 -64.5c2.66699 0.666992 5.5 1.16699 8.5 1.5s5.83301 0.833008 8.5 1.5h10v-38h-10h-24c-7.33301 0.666992 -16 1.16699 -26 1.5
s-22.333 0.833008 -37 1.5c-13.333 1.33301 -24.333 2.16602 -33 2.49902s-16.334 0.5 -23.001 0.5c-8.66699 0 -17.334 -0.5 -26.001 -1.5s-17.334 -2.16699 -26.001 -3.5l-10 -1v119v0z" />
    <glyph glyph-name="V" unicode="V" horiz-adv-x="738" 
d="M66 680l21.001 -0.000976562c8.66699 0 17.167 -0.333008 25.5 -1s16.833 -1.66699 25.5 -3c5.33301 -0.666992 10.833 -1.16699 16.5 -1.5s11.5 -0.833008 17.5 -1.5c5.33301 0 10.833 -0.166992 16.5 -0.5s11.167 -0.5 16.5 -0.5c9.33301 0 18.166 0.166992 26.499 0.5
s15.833 0.833008 22.5 1.5c4.66699 0.666992 9.16699 1.16699 13.5 1.5s8.16602 0.5 11.499 0.5c4.66699 0.666992 9 1.16699 13 1.5s7.66699 0.833008 11 1.5c6.66699 0 13.5 0.166992 20.5 0.5s15.167 0.5 24.5 0.5h10v-41h-16h-1.5h-1.5h-5h-5
c-9.33301 -0.666992 -17.666 -3.16699 -24.999 -7.5s-11 -14.166 -11 -29.499v-5.5v-5.5c2 -20.667 10.667 -47.834 26 -81.501s42.333 -100.834 81 -201.501c27.333 -71.333 44 -117.166 50 -137.499s9.33301 -34.833 10 -43.5h1c4.66699 24 11.667 48.667 21 74
s19.666 50.666 30.999 75.999l11.5 25.5l10.5 24.5c20.667 44 39.334 86.5 56.001 127.5s25 77.167 25 108.5c0 24.667 -4.5 43.5 -13.5 56.5s-21.833 19.833 -38.5 20.5h-2h-2c-0.666992 0 -1.33398 -0.166992 -2.00098 -0.5s-1.33398 -0.5 -2.00098 -0.5h-10v41h10h6l6 -1
h4h4h4h4c18 -1.33301 30.833 -2.5 38.5 -3.5l19.5 -2.5c3.33301 0 7 -0.166992 11 -0.5s9.66699 -0.5 17 -0.5c12.667 0 24.167 0.5 34.5 1.5s19.5 1.83301 27.5 2.5c4 0.666992 7.66699 1.16699 11 1.5s6.66602 0.833008 9.99902 1.5
c4.66699 0 9.33398 0.166992 14.001 0.5s10.334 0.5 17.001 0.5h10v-41h-10c-2 0.666992 -3.83301 1 -5.5 1h-4.5c-23.333 -0.666992 -42 -9.5 -56 -26.5s-27 -39.833 -39 -68.5l-23.5 -61.5c-8.33301 -22.333 -17.833 -46.166 -28.5 -71.499l-32 -78l-40 -99
c-2 -4.66699 -3.83301 -9.33398 -5.5 -14.001s-3.5 -9.33398 -5.5 -14.001l-43.5 -117c-13.667 -37.333 -23.5 -67.333 -29.5 -90c-15.333 -1.33301 -30.5 -3.16602 -45.5 -5.49902s-29.833 -5.16602 -44.5 -8.49902l-10 -1c-5.33301 24.667 -14.166 55.334 -26.499 92.001
s-35.166 97 -68.499 181l-81 206.5c-20.667 53 -40 93.5 -58 121.5c-12 18.667 -24.333 32.167 -37 40.5s-27.334 12.5 -44.001 12.5v41h10v0z" />
    <glyph glyph-name="W" unicode="W" horiz-adv-x="1018" 
d="M59 641l-0.00390625 38.001h10c30.667 -1.33301 51.334 -2.66602 62.001 -3.99902s19.334 -2.33301 26.001 -3c5.33301 -0.666992 11.5 -1.16699 18.5 -1.5s18.833 -0.5 35.5 -0.5c25.333 0 42 0.5 50 1.5s13.333 2.16699 16 3.5h1h1c2.66699 1.33301 6.5 2.33301 11.5 3
s16.5 1 34.5 1h10h13v-38h-13c-2 0 -4.33301 -0.166992 -7 -0.5s-5 -0.833008 -7 -1.5c-7.33301 -2 -14 -6.83301 -20 -14.5s-9 -20.834 -9 -39.501c0 -69.333 6.83301 -119.666 20.5 -150.999s29.5 -58.666 47.5 -81.999l10.5 -13l10.5 -14
c14 -18.667 27.5 -41.334 40.5 -68.001s23.833 -63.667 32.5 -111c2.66699 6 4.83398 11.667 6.50098 17s3.5 10.333 5.5 15l0.5 0.5c0.333008 0.333008 0.5 0.833008 0.5 1.5c2.66699 6 5.16699 12.333 7.5 19l8.5 24l23.5 61l17.5 48l4.5 15
c1.66699 5.33301 3.5 10.666 5.5 15.999c0.666992 2.66699 1.5 5.5 2.5 8.5s1.83301 6.16699 2.5 9.5c-8.66699 25.333 -15.167 43.5 -19.5 54.5s-8.16602 20.167 -11.499 27.5c-0.666992 0.666992 -1 1.16699 -1 1.5v0.5c-4.66699 9.33301 -10.167 21.333 -16.5 36
s-16.833 42.667 -31.5 84c-7.33301 21.333 -15 36 -23 44s-17.333 12 -28 12v38h10h111l11 -30.5c2.66699 -7.66699 5.33398 -14.5 8.00098 -20.5c0 -0.666992 0.166992 -1.16699 0.5 -1.5s0.5 -0.833008 0.5 -1.5l4.5 -11l5.5 -13l7.5 -17.5
c2.33301 -5.66699 4.5 -11.167 6.5 -16.5c4.66699 -12.667 9 -25.667 13 -39s7.66699 -27.333 11 -42l21 67l39 126h10h107v-38h-8c-17.333 0 -35.833 -10.167 -55.5 -30.5s-45.167 -79.166 -76.5 -176.499l38 -97.5l21 -51.5c0 -0.666992 0.166992 -1.5 0.5 -2.5
s0.833008 -1.83301 1.5 -2.5c0.666992 -1.33301 1.33398 -2.83301 2.00098 -4.5s1.33398 -3.16699 2.00098 -4.5l11 -26l10 -23l6 -17.5c2 -5.66699 4 -11.834 6 -18.501l6.5 -20c2.33301 -7.33301 4.5 -15.333 6.5 -24c0.666992 1.33301 1.16699 2.66602 1.5 3.99902
s0.5 2.66602 0.5 3.99902c5.33301 17.333 11.666 36.166 18.999 56.499l30 82.5l19.5 50.5l28.5 77.5c1.33301 2.66699 2.5 5.5 3.5 8.5s1.83301 5.83301 2.5 8.5c12 32.667 22.5 63.334 31.5 92.001s13.5 47.334 13.5 56.001c0 18.667 -3.66699 32.167 -11 40.5
s-15.333 13.833 -24 16.5c-3.33301 0.666992 -6.5 1.16699 -9.5 1.5s-5.83301 0.5 -8.5 0.5h-4.5h-4.5v38h10h26c3.33301 0 6.83301 -0.166992 10.5 -0.5s7.5 -0.833008 11.5 -1.5c1.33301 0 3 -0.166992 5 -0.5s3.66699 -0.5 5 -0.5c2 -0.666992 3.83301 -1.16699 5.5 -1.5
s3.5 -0.5 5.5 -0.5c2.66699 -0.666992 5.5 -1.16699 8.5 -1.5s5.83301 -0.5 8.5 -0.5c2.66699 -0.666992 5.5 -1 8.5 -1h8.5c7.33301 0 14.5 0.333008 21.5 1l20.5 2c2.66699 0.666992 5.16699 1.16699 7.5 1.5s4.5 0.5 6.5 0.5
c3.33301 0.666992 6.66602 1.16699 9.99902 1.5s6.66602 0.5 9.99902 0.5c3.33301 0.666992 6.66602 1 9.99902 1h10h10h22v-38h-5c-16 0 -33.167 -11 -51.5 -33s-36.833 -50.667 -55.5 -86c-16 -30 -31.833 -63.333 -47.5 -100s-30.5 -73.667 -44.5 -111
c-25.333 -66 -47.166 -128.5 -65.499 -187.5s-30.833 -100.167 -37.5 -123.5l-53 -16h-10l-12.5 31.5l-16.5 39.5l-14 35.5l-12 29.5c-24.667 60 -41.667 103 -51 129s-16.333 49 -21 69c0 0.666992 -0.166992 1.5 -0.5 2.5s-0.5 1.83301 -0.5 2.5
c0 -0.666992 -0.166992 -1.5 -0.5 -2.5s-0.5 -1.83301 -0.5 -2.5c-3.33301 -13.333 -11.5 -36.5 -24.5 -69.5s-42.5 -115.833 -88.5 -248.5l-65 -16h-10c-10.667 34.667 -20.834 66 -30.501 94l-28.5 79l-9.5 25.5c-3 8.33301 -6.16699 16.5 -9.5 24.5l-19.5 48.5
l-20.5 50.5c-59.333 147.333 -101.666 240 -126.999 278s-46 57 -62 57h-21v0z" />
    <glyph glyph-name="X" unicode="X" horiz-adv-x="654" 
d="M354 641l-11.9951 0.000976562c-1.33301 0 -3.33301 -0.166992 -6 -0.5s-5.33398 -1.16602 -8.00098 -2.49902c-4 -2 -7.66699 -5.66699 -11 -11s-5 -13.666 -5 -24.999c0 -7.33301 3.83301 -19.666 11.5 -36.999s16.5 -35.666 26.5 -54.999
c1.33301 -2.66699 2.83301 -5.33398 4.5 -8.00098s3.16699 -5.33398 4.5 -8.00098c6.66699 -13.333 13.334 -25.666 20.001 -36.999l17 -29l16.5 28.5l19.5 35.5c1.33301 2 2.66602 4.16699 3.99902 6.5s2.66602 4.83301 3.99902 7.5
c10.667 19.333 20.167 37.666 28.5 54.999s13.166 30.333 14.499 39c0 0.666992 0.166992 1.5 0.5 2.5s0.5 1.83301 0.5 2.5v2.5v2.5v2v3c-0.666992 0.666992 -1 1.33398 -1 2.00098v2c-1.33301 8 -4.33301 13.5 -9 16.5s-9.66699 4.83301 -15 5.5h-5.5h-5.5h-8v38h10h15
c5.33301 0 10.833 -0.333008 16.5 -1s11.167 -1.66699 16.5 -3c7.33301 -1.33301 14.833 -2.33301 22.5 -3s15.167 -1 22.5 -1c5.33301 0 10.833 0.333008 16.5 1l17.5 2c1.33301 0 2.5 0.166992 3.5 0.5s2.16699 0.5 3.5 0.5c8 0.666992 15.833 1.5 23.5 2.5
s14.834 1.5 21.501 1.5h10h24v-38h-12c-4.66699 0 -9.5 -0.166992 -14.5 -0.5s-9.83301 -1.16602 -14.5 -2.49902c-22.667 -6 -47.667 -26 -75 -60s-65 -99.667 -113 -197c83.333 -140 138.833 -231.333 166.5 -274s50.167 -66.334 67.5 -71.001
c2 -0.666992 4.33301 -1.16699 7 -1.5s5.33398 -0.5 8.00098 -0.5h13v-34h-10c-6.66699 0 -14.167 0.166992 -22.5 0.5s-16.5 0.833008 -24.5 1.5c-6.66699 0 -13 0.166992 -19 0.5s-11.667 0.833008 -17 1.5l-15.5 2c-5 0.666992 -9.83301 1 -14.5 1
c-3.33301 0.666992 -6.66602 1 -9.99902 1h-10c-14 0 -24.333 -0.166992 -31 -0.5s-12.667 -0.833008 -18 -1.5c-2 -0.666992 -4.33301 -1.16699 -7 -1.5s-5.66699 -0.5 -9 -0.5c-6.66699 -0.666992 -16 -1.33398 -28 -2.00098s-29.333 -1.33398 -52 -2.00098h-10v34h10
c2 -0.666992 4 -1 6 -1h6c14.667 0.666992 25.334 3.5 32.001 8.5s11 10.833 13 17.5c0.666992 2.66699 1.16699 5.16699 1.5 7.5s0.5 4.5 0.5 6.5c0 7.33301 -6.33301 25 -19 53s-42.667 82 -90 162c-7.33301 -12 -13.666 -23 -18.999 -33l-15 -29
c-1.33301 -1.33301 -2.33301 -2.66602 -3 -3.99902s-1.33398 -3 -2.00098 -5c-2.66699 -4.66699 -5.33398 -9.66699 -8.00098 -15l-8 -16c-15.333 -30 -26 -51.5 -32 -64.5s-9.66699 -23.833 -11 -32.5c0 -0.666992 -0.166992 -1.66699 -0.5 -3s-0.5 -2.33301 -0.5 -3v-3.5
v-3.5v-7c0 -2 0.333008 -4 1 -6c2 -9.33301 5.5 -16 10.5 -20s10.5 -6.66699 16.5 -8c3.33301 -0.666992 6.5 -1 9.5 -1h8.5h13v-34h-10c-12 0.666992 -21.5 1.16699 -28.5 1.5s-12.167 0.5 -15.5 0.5c-2.66699 0.666992 -4.83398 1.16699 -6.50098 1.5
s-3.16699 0.5 -4.5 0.5c-4 0.666992 -8.5 1.16699 -13.5 1.5s-14.5 0.5 -28.5 0.5c-8 0 -15.5 -0.166992 -22.5 -0.5s-14.167 -0.833008 -21.5 -1.5c-1.33301 0 -2.5 -0.166992 -3.5 -0.5s-2.16699 -0.5 -3.5 -0.5c-8 -0.666992 -16.5 -1.33398 -25.5 -2.00098
s-19.167 -1 -30.5 -1h-10h-24v34h5c12 0 23.5 2.16699 34.5 6.5s21.833 11.166 32.5 20.499c24.667 20 50.5 52.5 77.5 97.5s60.5 104.167 100.5 177.5c-50.667 96 -91.5 166.333 -122.5 211s-59.833 73 -86.5 85c-6.66699 3.33301 -13.334 5.66602 -20.001 6.99902
s-13.667 2 -21 2v38h10h21c14 0 23.5 -0.333008 28.5 -1s8.83301 -1.33398 11.5 -2.00098l0.5 -0.5c0.333008 -0.333008 0.833008 -0.5 1.5 -0.5c3.33301 -0.666992 9.16602 -1.5 17.499 -2.5s24.5 -1.5 48.5 -1.5c18.667 0 33 0.5 43 1.5s18.667 1.83301 26 2.5
c0.666992 0 1.66699 0.166992 3 0.5s2.66602 0.5 3.99902 0.5c5.33301 0.666992 11.166 1.33398 17.499 2.00098s14.833 1 25.5 1h10h16v-38v0z" />
    <glyph glyph-name="Y" unicode="Y" horiz-adv-x="683" 
d="M437 316c2.66699 9.33301 8.66992 23.334 18.0029 42.001s19.666 38.334 30.999 59.001c1.33301 2 2.5 4.16699 3.5 6.5s2.16699 4.5 3.5 6.5l17 29l15 26c28 47.333 44.833 79.833 50.5 97.5s8.5 28.5 8.5 32.5v3c0 7.33301 -3.66699 13 -11 17
s-15.666 6.33301 -24.999 7c-1.33301 -0.666992 -2.5 -1 -3.5 -1h-3.5h-10v38h10h19c2 0 4.16699 -0.166992 6.5 -0.5s4.83301 -0.5 7.5 -0.5c2.66699 -0.666992 5.16699 -1.16699 7.5 -1.5s4.5 -0.833008 6.5 -1.5c8 -1.33301 16.167 -2.33301 24.5 -3s16.833 -1 25.5 -1
c8 0 16 0.5 24 1.5s16.333 1.83301 25 2.5c3.33301 0.666992 6.16602 1.16699 8.49902 1.5s4.83301 0.5 7.5 0.5c4 0.666992 8 1.16699 12 1.5s8.66699 0.5 14 0.5h10v-38h-17c-8.66699 0 -24.5 -11.167 -47.5 -33.5s-64.833 -84.166 -125.5 -185.499
c-20.667 -34.667 -36.167 -62.834 -46.5 -84.501s-17.833 -42.167 -22.5 -61.5c-2 -9.33301 -3.33301 -18.833 -4 -28.5s-1 -20.167 -1 -31.5v-10v-10v-22v-22c0.666992 -28.667 4.33398 -54.834 11.001 -78.501s20.667 -35.5 42 -35.5h21v-38h-10h-6h-6
c-8 0 -15 0.166992 -21 0.5s-12 1.16602 -18 2.49902c-2.66699 0 -5.33398 0.166992 -8.00098 0.5s-5.33398 0.833008 -8.00098 1.5c-8.66699 2 -18.5 3.66699 -29.5 5s-23.167 2 -36.5 2s-25.333 -0.666992 -36 -2s-20.667 -3 -30 -5
c-2.66699 -0.666992 -5.16699 -1.16699 -7.5 -1.5s-4.83301 -0.5 -7.5 -0.5c-6 -1.33301 -12.167 -2.16602 -18.5 -2.49902s-13.833 -0.5 -22.5 -0.5h-10h-5h-6v38h20c2 0 4.16699 0.166992 6.5 0.5s4.5 0.833008 6.5 1.5c9.33301 3.33301 18 11 26 23s12 31 12 57
c0 72 -4.16699 124.833 -12.5 158.5s-19.5 63.5 -33.5 89.5c0 0.666992 -0.166992 1.16699 -0.5 1.5l-0.5 0.5c-70.667 130 -118.834 207.667 -144.501 233s-46.167 38 -61.5 38h-16v38h10h20c10 0 18.167 -0.333008 24.5 -1s12.166 -1.33398 17.499 -2.00098
c0.666992 0 1.5 -0.166992 2.5 -0.5s2.16699 -0.5 3.5 -0.5l24 -2.5c9.33301 -1 22.333 -1.5 39 -1.5c22.667 0 37.5 0.5 44.5 1.5s11.5 1.83301 13.5 2.5h1v0c2.66699 1.33301 6.33398 2.33301 11.001 3s15 1 31 1h10h31v-38h-28c-12.667 0 -20.334 -4.16699 -23.001 -12.5
s-4 -17.5 -4 -27.5v-1.5v-1.5c0 -4.66699 3.83301 -14 11.5 -28l25.5 -45l2 -4c0.666992 -1.33301 1.33398 -2.33301 2.00098 -3l22.5 -37.5l15.5 -25.5c24 -40 40.167 -70.333 48.5 -91s13.833 -36.667 16.5 -48v0z" />
    <glyph glyph-name="Z" unicode="Z" horiz-adv-x="711" 
d="M115 504l-41.002 0.00195312c3.33301 8 9 25 17 51s18.333 68.333 31 127h10c22.667 -2.66699 50.667 -4.83398 84 -6.50098s67.666 -3.16699 102.999 -4.5c24.667 -0.666992 49.167 -1.16699 73.5 -1.5s46.833 -0.5 67.5 -0.5c16.667 0 36.167 0.5 58.5 1.5
s45.166 2.16699 68.499 3.5l51.5 4c17 1.33301 32.833 2.66602 47.5 3.99902h10v-41l-1.5 -1.5l-0.5 -0.5c-28 -32.667 -59 -71.834 -93 -117.501l-151 -209.5c-71.333 -101.333 -118.666 -165.833 -141.999 -193.5s-39.666 -44.834 -48.999 -51.501v-7h35
c18 0 38.5 -0.666992 61.5 -2s48.5 -2.66602 76.5 -3.99902c6.66699 -0.666992 13.334 -1.16699 20.001 -1.5s13.334 -0.5 20.001 -0.5c6 -0.666992 12.333 -1 19 -1h20c53.333 0 92.666 7 117.999 21s47 46 65 96h10h45c-2.66699 -7.33301 -4.83398 -13.5 -6.50098 -18.5
l-4.5 -13.5c0 -0.666992 -0.166992 -1.33398 -0.5 -2.00098l-0.5 -1c-1.33301 -4.66699 -2.66602 -9.66699 -3.99902 -15s-3.33301 -12.333 -6 -21c-16 -55.333 -34 -87.5 -54 -96.5s-49.667 -13.5 -89 -13.5l-10 -1c-12.667 0.666992 -24 1.16699 -34 1.5
s-19.667 0.5 -29 0.5c-12 0.666992 -24.5 1.66699 -37.5 3l-49.5 5c-8.66699 0.666992 -17.167 1.5 -25.5 2.5s-16.5 1.5 -24.5 1.5c-21.333 2.66699 -43.5 4.66699 -66.5 6s-50.167 2 -81.5 2h-9.5h-9.5c-16.667 0 -34.167 -0.833008 -52.5 -2.5s-41.833 -4.5 -70.5 -8.5
l-10 -1v45l23 25c7.33301 8 14.333 16.333 21 25c6.66699 7.33301 13.167 15 19.5 23l18.5 24c16.667 20.667 33.5 42.834 50.5 66.501l57.5 78.5c48.667 64.667 86 116.5 112 155.5s50 72.167 72 99.5l22 27l23 26l14.5 14l15.5 14v9
c-10.667 -1.33301 -31.167 -2.66602 -61.5 -3.99902s-84.166 -2.66602 -161.499 -3.99902c-36 -0.666992 -69.667 -7.33398 -101 -20.001s-56 -44.667 -74 -96h-10v0z" />
    <glyph glyph-name="bracketleft" unicode="[" horiz-adv-x="542" 
d="M271 -181v897h10h247v-43h-139v-811h139v-43h-10h-247v0z" />
    <glyph glyph-name="backslash" unicode="\" horiz-adv-x="615" 
d="M175 731l176.5 -376.497l119.5 -253.5l12.5 -26l12.5 -25l49.5 -95.5l55.5 -102.5l-21 -10c-6.66699 -3.33301 -12.667 -7.33301 -18 -12l-10 -1c-2.66699 6 -5.16699 11.333 -7.5 16l-6.5 13h-0.5c-0.333008 0 -0.5 0.333008 -0.5 1l-9 17.5
c-3.33301 6.33301 -7.33301 14.5 -12 24.5l-14 28.5c-3.33301 7 -6.66602 13.5 -9.99902 19.5l-0.5 0.5c-0.333008 0.333008 -0.5 0.833008 -0.5 1.5c-1.33301 3.33301 -3 6.66602 -5 9.99902s-4 7 -6 11c-76 145.333 -124.833 242.333 -146.5 291s-37.834 87 -48.501 115
c-10 25.333 -24 58 -42 98s-57 116.333 -117 229c6.66699 5.33301 13.167 10.166 19.5 14.499s12.833 8.16602 19.5 11.499h10v0z" />
    <glyph glyph-name="bracketright" unicode="]" horiz-adv-x="541" 
d="M382 716v-897h-10h-246v43h139v811h-139v43h10h246v0z" />
    <glyph glyph-name="asciicircum" unicode="^" horiz-adv-x="374" 
d="M187 590l-76 -76h-10h-84l165 165h10l165 -165h-10h-84l-76 76v0z" />
    <glyph glyph-name="underscore" unicode="_" horiz-adv-x="590" 
d="M0 -196v48h10h580v-48h-10h-580v0z" />
    <glyph glyph-name="grave" unicode="`" 
 />
    <glyph glyph-name="a" unicode="a" horiz-adv-x="515" 
d="M246 329l-132.009 -53.0039h-10c-1.33301 4 -2.33301 7.83301 -3 11.5l-2 10.5v5.5v5.5c0 32 15 58.167 45 78.5s63 35.5 99 45.5c22.667 6.66699 44.834 11.5 66.501 14.5s39.167 4.5 52.5 4.5h10c34 0 58.667 -7.5 74 -22.5s25.333 -31.833 30 -50.5
c2 -6 3.33301 -12.167 4 -18.5s1 -12.5 1 -18.5c0 -4 -0.666992 -16 -2 -36s-2.66602 -41.667 -3.99902 -65c-0.666992 -6 -1.16699 -12 -1.5 -18s-0.833008 -11.667 -1.5 -17l-3.5 -37.5c-1 -11 -1.83301 -19.167 -2.5 -24.5c0 -2 -0.166992 -3.83301 -0.5 -5.5
s-0.833008 -3.16699 -1.5 -4.5l-2 -16c-0.666992 -5.33301 -1 -10.666 -1 -15.999v-7.5c0 -2.33301 0.333008 -4.5 1 -6.5c0.666992 -2.66699 1.33398 -5.16699 2.00098 -7.5s1.33398 -4.83301 2.00098 -7.5c0 -0.666992 0.333008 -1.5 1 -2.5s1 -2.16699 1 -3.5
c2 -3.33301 4.16699 -6.66602 6.5 -9.99902s4.83301 -5.66602 7.5 -6.99902c4.66699 1.33301 9.83398 3.5 15.501 6.5s11.5 6.5 17.5 10.5l11.5 8c3.66699 2.66699 7.16699 5.66699 10.5 9c5.33301 4 10 8 14 12s7.33301 7.66699 10 11h10v-50
c-38.667 -30.667 -67.834 -50.167 -87.501 -58.5s-35.167 -12.5 -46.5 -12.5l-10 -1c-21.333 0.666992 -38.166 6.83398 -50.499 18.501s-21.166 24.5 -26.499 38.5c-0.666992 1.33301 -1.16699 2.66602 -1.5 3.99902s-0.833008 2.66602 -1.5 3.99902
c-1.33301 -1.33301 -2.66602 -2.5 -3.99902 -3.5s-2.66602 -2.16699 -3.99902 -3.5c-22 -18.667 -44.667 -32.5 -68 -41.5s-49.666 -13.5 -78.999 -13.5l-10 -1c-30 0.666992 -53 7.33398 -69 20.001s-26.667 27 -32 43c-2 4 -3.33301 8.33301 -4 13s-1 9 -1 13
c0 36 23.667 68.667 71 98s116 47.333 206 54c1.33301 9.33301 2.16602 19.333 2.49902 30s0.5 21.334 0.5 32.001v1.5v1.5c0 28 -4.16699 53.833 -12.5 77.5s-25.166 36.5 -50.499 38.5c-14.667 -1.33301 -27 -7.33301 -37 -18s-14.667 -23.667 -14 -39
c0 -3.33301 0.333008 -7 1 -11s1.66699 -8 3 -12v0zM350.991 195.996c-45.333 -3.33301 -79.1699 -13.998 -101.503 -31.998s-34.166 -37.667 -35.499 -59v-1v-2v-1.5v-1.5c0.666992 -12.667 4.33398 -24.334 11.001 -35.001s18.334 -16.667 35.001 -18
c24.667 2 46 17.167 64 45.5s27 61.166 27 98.499v6v0z" />
    <glyph glyph-name="b" unicode="b" horiz-adv-x="542" 
d="M36 712l-0.00390625 35.9971h10h6.5h6.5c2.66699 -0.666992 5.33398 -1 8.00098 -1h8c20 0 44.5 1.5 73.5 4.5s63.833 8.83301 104.5 17.5h10c-4.66699 -22.667 -9.16699 -53.667 -13.5 -93s-7.83301 -80.333 -10.5 -123c-2 -28 -3.5 -55.667 -4.5 -83s-1.5 -52 -1.5 -74
v-22c18 12 35 22.833 51 32.5s31.667 17.834 47 24.501c12 5.33301 24 9.33301 36 12s24.333 4 37 4h10c46 0 83.5 -18.167 112.5 -54.5s43.5 -84.833 43.5 -145.5c0 -68.667 -21.667 -125 -65 -169s-90.666 -72 -141.999 -84c-10 -2 -20 -3.66699 -30 -5s-19.667 -2 -29 -2
l-10 -1c-22 0.666992 -46.333 4.83398 -73 12.501s-53.667 21.834 -81 42.501c-5.33301 4 -10.5 8.16699 -15.5 12.5l-15.5 13.5c5.33301 62 9.5 120 12.5 174s5.5 107.333 7.5 160c0.666992 28.667 1.16699 57.667 1.5 87s0.5 59.333 0.5 90c0 38 -2.66699 69.833 -8 95.5
s-24.666 39.167 -57.999 40.5c-2.66699 0 -5.66699 -0.166992 -9 -0.5s-6.66602 -0.833008 -9.99902 -1.5h-10v0zM232.996 305.997c0 -4 -0.171875 -8.16895 -0.504883 -12.502s-0.5 -8.5 -0.5 -12.5c-0.666992 -12.667 -1.16699 -25.334 -1.5 -38.001
s-0.166016 -24.667 0.500977 -36c0 -50 5.66699 -92.5 17 -127.5s36.333 -53.167 75 -54.5h1.5h1.5c28.667 2.66699 54.834 18.334 78.501 47.001s35.5 74.667 35.5 138c0 55.333 -8.5 96.333 -25.5 123s-35.5 43.334 -55.5 50.001
c-3.33301 1.33301 -6.66602 2.33301 -9.99902 3s-6.66602 1 -9.99902 1c-19.333 -1.33301 -36.666 -8.66602 -51.999 -21.999s-29.333 -28 -42 -44c-2 -2.66699 -4 -5.16699 -6 -7.5s-4 -4.83301 -6 -7.5v0z" />
    <glyph glyph-name="c" unicode="c" horiz-adv-x="486" 
d="M531 127l-0.00195312 -55.001l-32 -16l-22 -11l-1 -0.5l-1 -0.5l-11.5 -6l-12.5 -7c-4 -2 -8.33301 -4.33301 -13 -7l-14 -8c-17.333 -9.33301 -35.5 -17.666 -54.5 -24.999s-38.5 -11 -58.5 -11l-10 -1c-60 0.666992 -111.167 22.5 -153.5 65.5
s-63.5 98.167 -63.5 165.5c0 61.333 21.333 117.5 64 168.5s105.334 76.5 188.001 76.5h10c29.333 0 58.333 -5 87 -15s56.334 -32.667 83.001 -68c-16.667 -8.66699 -34 -18.167 -52 -28.5s-36.333 -21.833 -55 -34.5h-10c-6 38.667 -17 66.167 -33 82.5
s-35.667 24.833 -59 25.5c-2.66699 0 -5.16699 -0.166992 -7.5 -0.5s-4.83301 -0.833008 -7.5 -1.5c-21.333 -6 -41.166 -22.5 -59.499 -49.5s-27.5 -67.167 -27.5 -120.5c0 -61.333 13 -105.833 39 -133.5s55 -45.5 87 -53.5c8.66699 -2 17.167 -3.66699 25.5 -5
s16.5 -2 24.5 -2c9.33301 0.666992 19.166 3 29.499 7s21.166 9 32.499 15c7.33301 4 14.833 8.5 22.5 13.5l21.5 14.5l18.5 13.5c5.66699 4.33301 10.834 8.5 15.501 12.5h10v0z" />
    <glyph glyph-name="d" unicode="d" horiz-adv-x="570" 
d="M304 739l33.9971 0.000976562c12.667 0 27.167 0.833008 43.5 2.5s32.833 3.83398 49.5 6.50098c11.333 2 22.666 4.16699 33.999 6.5l33 6.5c6.66699 1.33301 13.167 2.83301 19.5 4.5l17.5 4.5h10c-3.33301 -33.333 -6.33301 -75.333 -9 -126s-5 -102.667 -7 -156
c-2.66699 -57.333 -4.66699 -112.666 -6 -165.999s-2 -96.333 -2 -129v-12.5v-12.5c-0.666992 -4.66699 -1 -9.16699 -1 -13.5v-13.5c0 -18.667 1.83301 -35.334 5.5 -50.001s12.834 -23 27.501 -25c6.66699 1.33301 14.834 6.66602 24.501 15.999s22.5 24.666 38.5 45.999
h10v-56l-8 -8l-8 -8c-17.333 -17.333 -35.333 -33.333 -54 -48s-37.667 -22 -57 -22l-10 -1c-20 0.666992 -36.667 9 -50 25s-22.666 34 -27.999 54l-2.5 -2.5c-1 -1 -2.16699 -1.83301 -3.5 -2.5c-18.667 -18 -41 -34.167 -67 -48.5s-53.667 -21.5 -83 -21.5l-10 -1
c-46 0.666992 -85.5 20.334 -118.5 59.001s-49.5 89.667 -49.5 153c0 71.333 22 132 66 182s95.333 75 154 75h10c15.333 0 30 -1.83301 44 -5.5s28 -8.83398 42 -15.501c2.66699 -2 5.33398 -3.66699 8.00098 -5s5.33398 -3 8.00098 -5
c0.666992 16.667 1.16699 30.5 1.5 41.5s0.5 20.833 0.5 29.5v14.5v12.5c-0.666992 1.33301 -1 2.5 -1 3.5v2.5v26v35v9.5c0 3 0.333008 6.16699 1 9.5v9.5v9.5c0 20 -3.83301 37.5 -11.5 52.5s-26.834 22.833 -57.501 23.5h-13c-4.66699 0 -9.66699 -0.666992 -15 -2h-10
v36v0zM400.997 108.001c0 19.333 0.167969 35.5029 0.500977 48.5029s0.5 25.167 0.5 36.5c0.666992 6 1 12.167 1 18.5s0.333008 13.166 1 20.499c1.33301 15.333 2.16602 31.666 2.49902 48.999s0.5 36 0.5 56c0 23.333 -7.16699 42.166 -21.5 56.499
s-33.5 21.833 -57.5 22.5c-44 -2 -75.833 -24 -95.5 -66s-29.5 -89.667 -29.5 -143c0 -40 7.33301 -71 22 -93s31 -37 49 -45c5.33301 -2.66699 10.833 -4.66699 16.5 -6s11.167 -2.33301 16.5 -3c12 0.666992 26.167 4.16699 42.5 10.5s33.5 18.833 51.5 37.5v0z" />
    <glyph glyph-name="e" unicode="e" horiz-adv-x="514" 
d="M550 128v-53.002l-22.5 -10.5l-17.5 -8.5c-1.33301 -0.666992 -2.5 -1.16699 -3.5 -1.5s-2.16699 -0.833008 -3.5 -1.5c-4.66699 -2.66699 -9.33398 -5.5 -14.001 -8.5s-10.334 -6.16699 -17.001 -9.5l-14 -8l-15 -9c-17.333 -9.33301 -36.166 -17.666 -56.499 -24.999
s-42.5 -11 -66.5 -11l-10 -1c-58 0.666992 -110.167 22.667 -156.5 66s-69.5 101 -69.5 173c0 62.667 22 117.834 66 165.501s105.667 71.5 185 71.5h10c58.667 0 102.667 -12.667 132 -38s49.333 -53.333 60 -84c4.66699 -11.333 7.83398 -22.666 9.50098 -33.999
s2.83398 -22 3.50098 -32c-7.33301 -0.666992 -14.5 -1.5 -21.5 -2.5s-14.167 -1.83301 -21.5 -2.5c-18 -1.33301 -36.333 -2.33301 -55 -3s-39 -1 -61 -1h-10c-28.667 0 -56.834 0.666992 -84.501 2s-53.167 3.33301 -76.5 6v-4.5v-4.5
c-0.666992 -1.33301 -1 -2.83301 -1 -4.5v-4.5c0 -52.667 15.5 -97.334 46.5 -134.001s73.833 -55.667 128.5 -57c28 1.33301 54.5 8.5 79.5 21.5s47.167 28.833 66.5 47.5h10v0zM222 300.998c22 -2 41.3301 -3.33398 57.9971 -4.00098s31.334 -1 44.001 -1
s23.834 0.333008 33.501 1s19.167 1.66699 28.5 3c1.33301 0 2.5 0.166992 3.5 0.5s2.16699 0.5 3.5 0.5v4c0 1.33301 0.333008 2.33301 1 3v4v3c-0.666992 28.667 -7.66699 53.834 -21 75.501s-32.666 33.167 -57.999 34.5c-29.333 -1.33301 -50.833 -13.833 -64.5 -37.5
s-23.167 -52.5 -28.5 -86.5v0z" />
    <glyph glyph-name="f" unicode="f" horiz-adv-x="374" 
d="M427 616l-14.0029 4.99805c0.666992 3.33301 1.16699 6.83301 1.5 10.5s0.833008 7.5 1.5 11.5v7.5v7.5c0 21.333 -4.33301 36.5 -13 45.5s-18 14.5 -28 16.5c-0.666992 0.666992 -1.5 1 -2.5 1h-2.5c-5.33301 -0.666992 -12 -2 -20 -4s-16.333 -6.33301 -25 -13
c-13.333 -10 -25.833 -27.167 -37.5 -51.5s-17.5 -60.166 -17.5 -107.499c0 -2 0.166992 -9.16699 0.5 -21.5s0.5 -25.5 0.5 -39.5s0.166992 -26.833 0.5 -38.5s0.5 -18.5 0.5 -20.5h5c15.333 0 32 1 50 3s36 4.33301 54 7c6.66699 1.33301 13.334 2.5 20.001 3.5
s13.334 2.16699 20.001 3.5h10l-20 -54h-139v-37v-11.5v-11.5c0 -96.667 3 -170.5 9 -221.5s27.333 -76.167 64 -75.5h2h2h2h2v-31h-10h-6h-6h-3h-3c-10 0 -18.833 0.333008 -26.5 1l-22.5 2c-0.666992 0.666992 -1.5 1 -2.5 1h-2.5c-2 0 -4 0.166992 -6 0.5
s-4 0.833008 -6 1.5l-21 2c-7.33301 0.666992 -15.666 1 -24.999 1c-8.66699 0 -16.667 -0.333008 -24 -1l-21 -2c-2 -0.666992 -4 -1.16699 -6 -1.5s-4 -0.5 -6 -0.5s-3.83301 -0.166992 -5.5 -0.5s-3.5 -0.833008 -5.5 -1.5c-6 -0.666992 -12.5 -1.16699 -19.5 -1.5
s-15.5 -0.5 -25.5 -0.5h-10h-7.5h-8.5v31h2h2h2h2c38.667 0 61 26 67 78s8.33301 113.667 7 185v30v30v34h-86l17 45h10l28.5 -4c9.66699 -1.33301 19.834 -2.33301 30.501 -3c-2 14.667 -3.5 27.834 -4.5 39.501s-2.16699 22.834 -3.5 33.501v4.5v4.5
c-0.666992 6 -1.33398 12.333 -2.00098 19l-2 21c-0.666992 4.66699 -1.16699 9.16699 -1.5 13.5s-0.5 8.83301 -0.5 13.5c0 3.33301 0.166992 6.33301 0.5 9s0.833008 5.33398 1.5 8.00098c5.33301 28 22.833 54.167 52.5 78.5s61.834 44.166 96.501 59.499
c21.333 9.33301 42.166 16.666 62.499 21.999s37.833 8 52.5 8h10c21.333 0 39 -2.83301 53 -8.5s25.333 -11.834 34 -18.501c4.66699 -3.33301 8.66699 -6.66602 12 -9.99902s6 -6.33301 8 -9c-9.33301 -7.33301 -19.833 -16.5 -31.5 -27.5s-23.834 -24.833 -36.501 -41.5
c-3.33301 -4 -6.66602 -8.5 -9.99902 -13.5l-10 -15.5h-10v0z" />
    <glyph glyph-name="g" unicode="g" horiz-adv-x="543" 
d="M585 440v-90.002h-10c-0.666992 0.666992 -1.33398 1.5 -2.00098 2.5s-1.33398 1.83301 -2.00098 2.5c-7.33301 8 -14.5 14.833 -21.5 20.5s-15.833 8.83398 -26.5 9.50098c-6 -0.666992 -12.333 -1.83398 -19 -3.50098s-13.667 -5.16699 -21 -10.5
c0.666992 -2 1.33398 -3.83301 2.00098 -5.5s1.33398 -3.16699 2.00098 -4.5c1.33301 -5.33301 2.33301 -10.666 3 -15.999s1 -11 1 -17c0 -22.667 -3.83301 -41.667 -11.5 -57s-20.5 -30 -38.5 -44c-7.33301 -5.33301 -15.166 -10.666 -23.499 -15.999
s-17.833 -11 -28.5 -17l-69 -37.5c-16.667 -9 -28.334 -17.167 -35.001 -24.5c-2 -2.66699 -3.5 -5.16699 -4.5 -7.5s-1.5 -4.83301 -1.5 -7.5c0 -13.333 6.16699 -23 18.5 -29s25.833 -10.333 40.5 -13l14.5 -2c5 -0.666992 9.5 -1.33398 13.5 -2.00098
c5.33301 -0.666992 10.666 -1.16699 15.999 -1.5s11 -0.833008 17 -1.5c4.66699 0 9.33398 -0.333008 14.001 -1s9.33398 -1 14.001 -1c36 -3.33301 69 -10.833 99 -22.5s45 -36.834 45 -75.501c0 -53.333 -21.167 -101.833 -63.5 -145.5s-104.5 -65.5 -186.5 -65.5l-10 -1
c-88 0.666992 -149.167 13.5 -183.5 38.5s-51.833 52.5 -52.5 82.5v1.5v1.5c0 32.667 12.667 58.834 38 78.501s55.666 29.5 90.999 29.5l10 -1c3.33301 0.666992 6.5 1 9.5 1s5.83301 -0.333008 8.5 -1c-8 -9.33301 -14.333 -19.666 -19 -30.999
s-7.66699 -22.666 -9 -33.999c-0.666992 -2 -1 -4 -1 -6v-6c0 -29.333 12.833 -55.833 38.5 -79.5s59.834 -35.834 102.501 -36.501c29.333 0.666992 55.166 9.5 77.499 26.5s33.5 38.5 33.5 64.5c0 45.333 -14.667 75 -44 89s-61.666 23.333 -96.999 28
c-2 0.666992 -3.83301 1.16699 -5.5 1.5s-3.5 0.5 -5.5 0.5c-2.66699 0.666992 -5.16699 1.16699 -7.5 1.5s-4.83301 0.5 -7.5 0.5c-38.667 5.33301 -72 13.166 -100 23.499s-41.667 31.833 -41 64.5l133 79v9c-2.66699 0 -5.33398 -0.166992 -8.00098 -0.5s-5 -0.5 -7 -0.5
c-2.66699 -0.666992 -5.33398 -1 -8.00098 -1h-8h-10h-7.5h-7.5c-30.667 2 -58.5 10.5 -83.5 25.5s-37.5 39.833 -37.5 74.5c0 8 0.5 16.5 1.5 25.5s2.5 17.833 4.5 26.5c8 31.333 25.5 59.833 52.5 85.5s69.167 38.5 126.5 38.5h10c38.667 0 69.334 -3.16699 92.001 -9.5
s40 -13.166 52 -20.499l11 -9c3.33301 -2.66699 6 -5.33398 8 -8.00098c2 2 4 3.83301 6 5.5s4 3.5 6 5.5c8.66699 6.66699 18.667 12.834 30 18.501s23.333 8.5 36 8.5h10c6.66699 0 13 -0.666992 19 -2s11.667 -3 17 -5v0zM219 306.998c0 -30.667 7 -53.333 21 -68
s29.667 -24 47 -28l10 -2c3.33301 -0.666992 6.66602 -1 9.99902 -1c4 0.666992 8.33301 1.66699 13 3s9.33398 3.33301 14.001 6c10 6.66699 19 17.5 27 32.5s12 37.167 12 66.5c0 38.667 -8.5 66.167 -25.5 82.5s-35.833 24.833 -56.5 25.5
c-20 -1.33301 -37 -11.333 -51 -30s-21 -47.667 -21 -87v0z" />
    <glyph glyph-name="h" unicode="h" horiz-adv-x="653" 
d="M63 703l-0.00488281 35.999h10c4 -0.666992 8 -1 12 -1h10c6.66699 0 13 0.166992 19 0.5s12 0.833008 18 1.5s12 1.5 18 2.5s12.333 1.83301 19 2.5c2.66699 0.666992 5.5 1.16699 8.5 1.5s5.83301 0.5 8.5 0.5c2.66699 0.666992 5.16699 1.16699 7.5 1.5
s4.83301 0.5 7.5 0.5c14 2 28.167 4.33301 42.5 7s31.166 6.66699 50.499 12h10c-2.66699 -19.333 -5 -48.166 -7 -86.499s-3.66699 -78.833 -5 -121.5c-1.33301 -25.333 -2.16602 -50.333 -2.49902 -75s-0.5 -47.334 -0.5 -68.001v-10c0 -3.33301 0.333008 -6.33301 1 -9
v-9.5v-8.5c24.667 15.333 50.5 29.5 77.5 42.5s54.5 22.167 82.5 27.5c7.33301 2 14.833 3.33301 22.5 4s15.167 1 22.5 1h10c42.667 0 71.167 -12 85.5 -36s22.5 -50.333 24.5 -79c0.666992 -8 1 -16 1 -24v-23v-17.5v-17.5c0 -6 -0.166992 -11.833 -0.5 -17.5
s-0.5 -11.5 -0.5 -17.5c0 -5.33301 -0.166992 -10.666 -0.5 -15.999s-0.5 -10.666 -0.5 -15.999v-16v-16v-3.5v-3.5c0 -34.667 2.5 -63.5 7.5 -86.5s22.167 -34.833 51.5 -35.5h4.5c1.66699 0 3.16699 0.333008 4.5 1h10v-31h-10h-6h-6h-3h-3
c-11.333 0 -21.166 0.5 -29.499 1.5s-16.166 1.83301 -23.499 2.5c-2 0 -4 0.166992 -6 0.5s-4 0.833008 -6 1.5l-21 2c-7.33301 0.666992 -15.666 1 -24.999 1s-17.666 -0.333008 -24.999 -1l-21 -2c-2 -0.666992 -4 -1.16699 -6 -1.5s-4 -0.5 -6 -0.5
c-1.33301 0 -2.5 -0.166992 -3.5 -0.5s-2.16699 -0.5 -3.5 -0.5c-6 -0.666992 -12.5 -1.33398 -19.5 -2.00098s-15.5 -1 -25.5 -1h-10h-6h-6v31h2h2h1h2c29.333 0 47.166 9.83301 53.499 29.5s9.83301 48.167 10.5 85.5c0.666992 2 1 4.16699 1 6.5v7.5
c0.666992 6.66699 0.833984 13.167 0.500977 19.5s-0.5 12.833 -0.5 19.5v10v10v10.5v10.5v12v12c-0.666992 30 -5.16699 57.5 -13.5 82.5s-28.833 38.167 -61.5 39.5c-10 -0.666992 -20.667 -2.66699 -32 -6s-22.666 -7.33301 -33.999 -12
c-10.667 -4.66699 -21.334 -10 -32.001 -16s-20.667 -12.333 -30 -19c-0.666992 -14 -1 -32.833 -1 -56.5v-73.5v-22v-22v-3.5v-3.5c0 -40 2.66699 -70.333 8 -91s24 -30.667 56 -30h6v-31h-10h-8h-7c-8.66699 -0 -16 0.333008 -22 1l-18 2
c-1.33301 0 -2.83301 0.166992 -4.5 0.5s-3.16699 0.5 -4.5 0.5c-2 0 -4 0.166992 -6 0.5s-4 0.833008 -6 1.5l-21 2c-7.33301 0.666992 -15.666 1 -24.999 1c-8.66699 0 -16.667 -0.333008 -24 -1l-21 -2c-2 -0.666992 -4 -1.16699 -6 -1.5s-4 -0.5 -6 -0.5
s-3.83301 -0.166992 -5.5 -0.5s-3.5 -0.833008 -5.5 -1.5c-6 -0.666992 -12.5 -1.16699 -19.5 -1.5s-15.5 -0.5 -25.5 -0.5h-10h-7.5h-8.5v31h7c37.333 0 59.666 36.667 66.999 110s11 196.333 11 369c0 9.33301 0.166992 18.333 0.5 27s0.5 17 0.5 25
s0.166992 15.667 0.5 23s0.5 14.333 0.5 21c0 32 -4.83301 56.167 -14.5 72.5s-32.5 24.833 -68.5 25.5h-9c-3.33301 0 -6.66602 -0.333008 -9.99902 -1h-10v0z" />
    <glyph glyph-name="i" unicode="i" horiz-adv-x="318" 
d="M56 387l0.000976562 35.999h38c14 0 30.5 0.833008 49.5 2.5s38.5 4.5 58.5 8.5c15.333 2.66699 30.333 5.66699 45 9s28.334 7.33301 41.001 12h10c-0.666992 -6 -1.66699 -13.167 -3 -21.5s-2.33301 -17.833 -3 -28.5c-2 -18.667 -4 -41.167 -6 -67.5
s-3.33301 -57.166 -4 -92.499c-0.666992 -7.33301 -1 -14.833 -1 -22.5v-22.5v-10.5c0 -3.66699 0.333008 -7.16699 1 -10.5v-10v-10v-9.5v-8.5c0.666992 -32 3.66699 -58.333 9 -79s22 -31.334 50 -32.001h4.5c1.66699 0 3.16699 0.333008 4.5 1h10v-31h-10h-6h-6h-3h-3
c-10 0 -18.833 0.333008 -26.5 1l-22.5 2c-0.666992 0.666992 -1.5 1 -2.5 1h-2.5c-2 0 -4 0.166992 -6 0.5s-4 0.833008 -6 1.5l-21 2c-7.33301 0.666992 -15.333 1 -24 1s-16.834 -0.333008 -24.501 -1s-14.834 -1.33398 -21.501 -2.00098
c-2 -0.666992 -4 -1.16699 -6 -1.5s-4 -0.5 -6 -0.5s-3.83301 -0.166992 -5.5 -0.5s-3.5 -0.833008 -5.5 -1.5c-6 -0.666992 -12.5 -1.16699 -19.5 -1.5s-15.5 -0.5 -25.5 -0.5h-10h-6.5h-8.5v31h10h4.5c1.66699 0 2.83398 -0.333008 3.50098 -1
c27.333 2.66699 44.666 14.834 51.999 36.501s11 48.167 11 79.5c0 7.33301 -0.166992 15 -0.5 23s-0.5 16 -0.5 24s-0.166992 16.167 -0.5 24.5s-0.5 16.5 -0.5 24.5v10v10c0 40.667 -2.66699 72 -8 94s-24.666 33.333 -57.999 34
c-4.66699 0 -9.33398 -0.166992 -14.001 -0.5s-9.66699 -1.16602 -15 -2.49902h-10v0zM130.001 626.999c0 3.33301 0.169922 6.49902 0.50293 9.49902s1.16602 6.16699 2.49902 9.5c3.33301 12.667 10.666 24.334 21.999 35.001s26.666 16 45.999 16h10
c22 0 39 -6.66699 51 -20s18 -30 18 -50c0 -22 -6.33301 -38.833 -19 -50.5s-26.667 -18.5 -42 -20.5h-4h-4h-10c-20.667 0 -37.667 7.16699 -51 21.5s-20 30.833 -20 49.5v0z" />
    <glyph glyph-name="j" unicode="j" horiz-adv-x="318" 
d="M76 390v33.002c44.667 0.666992 83.334 3.33398 116.001 8.00098s60.334 9.66699 83.001 15c6 2 11.833 3.66699 17.5 5s10.834 2.66602 15.501 3.99902h10c-2 -11.333 -4 -28.333 -6 -51s-3.33301 -46.334 -4 -71.001c-1.33301 -25.333 -2.33301 -49.5 -3 -72.5
s-1 -40.167 -1 -51.5v-12.5c0 -4.33301 0.333008 -8.5 1 -12.5v-13.5v-12.5v-6v-6v-7v-6c0 -110.667 -19.833 -201.167 -59.5 -271.5s-84.167 -105.5 -133.5 -105.5l-10 -1c-6 0.666992 -12.167 1.5 -18.5 2.5s-12.833 2.16699 -19.5 3.5
c-6.66699 2 -13.167 4.16699 -19.5 6.5s-12.5 5.16602 -18.5 8.49902c11.333 14.667 21.333 30.167 30 46.5s15.334 34.166 20.001 53.499l10 -1c5.33301 -8 12.166 -15.833 20.499 -23.5s17.166 -13.167 26.499 -16.5c2 -1.33301 4.16699 -2.33301 6.5 -3s4.5 -1 6.5 -1
c13.333 1.33301 22.666 6.16602 27.999 14.499s9 17.166 11 26.499c0 2 0.166992 3.83301 0.5 5.5s0.5 3.16699 0.5 4.5c0.666992 4.66699 1 9.16699 1 13.5v13.5v8v8c0 2.66699 -0.166992 5.33398 -0.5 8.00098s-0.5 5.33398 -0.5 8.00098c-0.666992 10 -1 20 -1 30v29
c0 22 0.5 43.667 1.5 65s1.83301 42 2.5 62c1.33301 20 2.33301 38.833 3 56.5s1 34.5 1 50.5c0 48.667 -7.33301 86.834 -22 114.501s-46.334 41.5 -95.001 41.5v0zM157 638.002c0 19.333 6.83301 35.833 20.5 49.5s30.167 20.5 49.5 20.5h10c17.333 0 33.333 -6 48 -18
s22 -29.333 22 -52c0 -19.333 -6.33301 -36 -19 -50s-29.667 -21 -51 -21h-10c-20.667 0 -37.5 7.16699 -50.5 21.5s-19.5 30.833 -19.5 49.5v0z" />
    <glyph glyph-name="k" unicode="k" horiz-adv-x="598" 
d="M659 54v-39c-11.333 -4.66699 -21.5 -8.5 -30.5 -11.5s-17.833 -5.5 -26.5 -7.5s-17.167 -3.5 -25.5 -4.5s-17.833 -1.5 -28.5 -1.5l-10 -1c-16.667 0.666992 -31.167 3.83398 -43.5 9.50098s-24.166 14.5 -35.499 26.5c-8.66699 8.66699 -17.667 19.167 -27 31.5
l-30 41.5l-27.5 37l-23.5 29c-8.66699 10 -17.667 19 -27 27s-19.666 15.667 -30.999 23c56.667 49.333 96.5 86.166 119.5 110.499s34.5 43.833 34.5 58.5c0 1.33301 -0.166992 3 -0.5 5s-0.5 3.66699 -0.5 5c-1.33301 4.66699 -4 9 -8 13s-10 6 -18 6h-42v29h10h9.5h8.5
c12 0 22.5 -0.166992 31.5 -0.5s17.833 -1.16602 26.5 -2.49902c3.33301 0 6.66602 -0.166992 9.99902 -0.5s6.66602 -0.833008 9.99902 -1.5l27 -3.5c8 -1 15.333 -1.5 22 -1.5c2 0 4 0.166992 6 0.5s4.33301 0.5 7 0.5c6 0.666992 12.167 1.5 18.5 2.5
s13.166 2.16699 20.499 3.5c2.66699 0.666992 5.33398 1.16699 8.00098 1.5s5.33398 0.5 8.00098 0.5c3.33301 0.666992 6.66602 1 9.99902 1h11h10l1 -31c-20 -0.666992 -48.5 -12 -85.5 -34s-93.5 -68.667 -169.5 -140c17.333 -2.66699 39 -11.834 65 -27.501
s55.333 -48.167 88 -97.5l9.5 -14.5c3.66699 -5.66699 7.5 -11.167 11.5 -16.5c8 -10.667 16.5 -20.667 25.5 -30s18.167 -14.666 27.5 -15.999c3.33301 0 6.83301 0.5 10.5 1.5s7.5 2.16699 11.5 3.5s7.83301 3.16602 11.5 5.49902s7.16699 5.5 10.5 9.5h10v0zM56 701
l-0.00390625 35.002h22c14 0 30.833 1 50.5 3s39.5 4.66699 59.5 8l51 10c16.667 3.33301 31.667 7 45 11h10c-3.33301 -48.667 -6 -101.5 -8 -158.5s-3.33301 -114.5 -4 -172.5c0 -15.333 -0.166992 -30.833 -0.5 -46.5s-0.5 -31.167 -0.5 -46.5v-14.5v-14.5
c-0.666992 -10.667 -1.16699 -21.334 -1.5 -32.001s-0.833008 -21.334 -1.5 -32.001l-2 -44.5c-0.666992 -14.333 -1 -28.166 -1 -41.499c0 -37.333 4.33301 -68.666 13 -93.999s26.667 -39 54 -41c0.666992 0 1.33398 0.166992 2.00098 0.5s1.33398 0.5 2.00098 0.5h2h2h10
v-31h-10h-6h-6h-3h-3c-10 0 -18.833 0.333008 -26.5 1l-22.5 2c-0.666992 0.666992 -1.5 1 -2.5 1h-2.5c-2 0 -4 0.166992 -6 0.5s-4 0.833008 -6 1.5l-21 2c-7.33301 0.666992 -15.666 1 -24.999 1c-8.66699 0 -16.667 -0.333008 -24 -1l-21 -2
c-2 -0.666992 -4 -1.16699 -6 -1.5s-4 -0.5 -6 -0.5s-3.83301 -0.166992 -5.5 -0.5s-3.5 -0.833008 -5.5 -1.5c-6 -0.666992 -12.5 -1.16699 -19.5 -1.5s-15.5 -0.5 -25.5 -0.5h-10h-7.5h-8.5v31h4.5h3.5c33.333 0 54.5 19 63.5 57s13.167 87.333 12.5 148
c0 14 -0.166992 28.333 -0.5 43s-0.5 29.667 -0.5 45s-0.166992 31 -0.5 47s-0.5 32 -0.5 48c0 18 0.333008 35.167 1 51.5s1.66699 31.833 3 46.5l2 42c0.666992 13.333 1 25.666 1 36.999c0 33.333 -5.5 59.166 -16.5 77.499s-34.833 27.833 -71.5 28.5h-7.5
c-2.33301 0 -5.16602 -0.333008 -8.49902 -1h-10v0z" />
    <glyph glyph-name="l" unicode="l" horiz-adv-x="318" 
d="M56 701l-0.00390625 35.002h22c14 0 30.833 1 50.5 3s39.5 4.66699 59.5 8l51 10c16.667 3.33301 31.667 7 45 11h10c-3.33301 -48.667 -6 -101.5 -8 -158.5s-3.33301 -114.5 -4 -172.5c0 -15.333 -0.166992 -30.833 -0.5 -46.5s-0.5 -31.167 -0.5 -46.5v-14.5v-14.5
c-0.666992 -10.667 -1.16699 -21.334 -1.5 -32.001s-0.833008 -21.334 -1.5 -32.001l-2 -44.5c-0.666992 -14.333 -1 -28.166 -1 -41.499c0 -37.333 4.33301 -68.666 13 -93.999s26.667 -39 54 -41c0.666992 0 1.33398 0.166992 2.00098 0.5s1.33398 0.5 2.00098 0.5h2h2h10
v-31h-10h-6h-6h-3h-3c-10 0 -18.833 0.333008 -26.5 1l-22.5 2c-0.666992 0.666992 -1.5 1 -2.5 1h-2.5c-2 0 -4 0.166992 -6 0.5s-4 0.833008 -6 1.5l-21 2c-7.33301 0.666992 -15.666 1 -24.999 1c-8.66699 0 -16.667 -0.333008 -24 -1l-21 -2
c-2 -0.666992 -4 -1.16699 -6 -1.5s-4 -0.5 -6 -0.5s-3.83301 -0.166992 -5.5 -0.5s-3.5 -0.833008 -5.5 -1.5c-6 -0.666992 -12.5 -1.16699 -19.5 -1.5s-15.5 -0.5 -25.5 -0.5h-10h-7.5h-8.5v31h4.5h3.5c33.333 0 54.5 19 63.5 57s13.167 87.333 12.5 148
c0 14 -0.166992 28.333 -0.5 43s-0.5 29.667 -0.5 45s-0.166992 31 -0.5 47s-0.5 32 -0.5 48c0 18 0.333008 35.167 1 51.5s1.66699 31.833 3 46.5l2 42c0.666992 13.333 1 25.666 1 36.999c0 33.333 -5.5 59.166 -16.5 77.499s-34.833 27.833 -71.5 28.5h-7.5
c-2.33301 0 -5.16602 -0.333008 -8.49902 -1h-10v0z" />
    <glyph glyph-name="m" unicode="m" horiz-adv-x="878" 
d="M56 389l-0.00195312 31.999c20 1.33301 48 4.33301 84 9s80.333 13 133 25h10l-2 -16.5l-2 -16.5c0 -6 -0.333008 -11.833 -1 -17.5s-1 -11.167 -1 -16.5c4 2.66699 8.16699 5.16699 12.5 7.5s8.5 4.83301 12.5 7.5c22.667 12.667 46.834 24.5 72.501 35.5
s51.5 16.5 77.5 16.5h10c5.33301 0 11 -0.5 17 -1.5s12 -2.83301 18 -5.5c10.667 -4.66699 21 -12.167 31 -22.5s18 -24.833 24 -43.5c44 33.333 81.333 53.833 112 61.5s55.334 11.5 74.001 11.5h10c35.333 0 61.166 -12.167 77.499 -36.5s24.5 -57.166 24.5 -98.499
c0 -10 -0.166992 -21.167 -0.5 -33.5s-0.5 -25.5 -0.5 -39.5c0 -12.667 -0.166992 -25.834 -0.5 -39.501s-0.5 -27.5 -0.5 -41.5v-4v-4c0 -43.333 2.33301 -75.333 7 -96s20.667 -31.667 48 -33h3h3c0.666992 0 1.5 0.166992 2.5 0.5s1.83301 0.5 2.5 0.5h10v-31h-10h-41
c-2.66699 0.666992 -5.5 1 -8.5 1s-5.83301 0.333008 -8.5 1h-2h-2c-2.66699 0.666992 -5.16699 1.16699 -7.5 1.5s-4.5 0.5 -6.5 0.5c-4.66699 1.33301 -10.5 2.33301 -17.5 3s-15.833 1 -26.5 1h-11.5c-3.66699 0 -7.5 -0.333008 -11.5 -1
c-4 0 -7.83301 -0.166992 -11.5 -0.5s-7.5 -0.833008 -11.5 -1.5c-8 -0.666992 -16 -1.5 -24 -2.5s-16 -1.5 -24 -1.5h-10h-21v29c24.667 2.66699 40.5 12.834 47.5 30.501s10.167 41.167 9.5 70.5c0 8 -0.166992 16.167 -0.5 24.5s-0.5 17.166 -0.5 26.499
s-0.166992 18.833 -0.5 28.5s-0.5 19.834 -0.5 30.501v4v4c0 38.667 -2.33301 71.167 -7 97.5s-21.667 40.5 -51 42.5c-16 -0.666992 -32.667 -6 -50 -16s-35 -22.667 -53 -38v-53c0 -24.667 -0.166992 -40.167 -0.5 -46.5s-0.5 -10.833 -0.5 -13.5
s-0.166992 -7.16699 -0.5 -13.5s-0.5 -21.833 -0.5 -46.5v-6v-7c0 -50 1.83301 -82.167 5.5 -96.5s17.167 -21.5 40.5 -21.5h8v-30h-10h-20c-8.66699 -0 -16.167 0.333008 -22.5 1s-12.166 1.33398 -17.499 2.00098h-3c-0.666992 0 -1.66699 0.333008 -3 1
c-5.33301 0.666992 -11.333 1.33398 -18 2.00098s-14.667 1 -24 1c-8.66699 0 -16.667 -0.333008 -24 -1s-14 -1.33398 -20 -2.00098c-3.33301 -0.666992 -6.66602 -1.16699 -9.99902 -1.5s-6.66602 -0.833008 -9.99902 -1.5c-4 0 -8 -0.166992 -12 -0.5
s-8.33301 -0.5 -13 -0.5h-10h-10v30c29.333 1.33301 47.666 9.16602 54.999 23.499s11 34.833 11 61.5v12.5v13.5c-0.666992 4 -1 8.5 -1 13.5v14.5v40v40v4.5v4.5v17v18c-1.33301 22.667 -5.83301 43.834 -13.5 63.501s-24.167 30.167 -49.5 31.5
c-15.333 -0.666992 -32 -5.83398 -50 -15.501l-61 -33.5c-1.33301 -36.667 -2.33301 -70.334 -3 -101.001s-1 -57 -1 -79v-4.5v-4.5c0 -36 2.66699 -64.833 8 -86.5s23.666 -32.834 54.999 -33.501v-30h-10h-7.5h-6.5c-6 0 -11.167 0.166992 -15.5 0.5
s-8.83301 0.833008 -13.5 1.5c-2 0 -4.33301 0.166992 -7 0.5s-5.33398 0.833008 -8.00098 1.5c-2 0 -4 0.166992 -6 0.5s-4 0.833008 -6 1.5c-6 0.666992 -12.667 1.33398 -20 2.00098s-15.666 1 -24.999 1c-8.66699 0 -16.5 -0.333008 -23.5 -1l-20.5 -2
c-2 -0.666992 -4.16699 -1.16699 -6.5 -1.5s-4.5 -0.5 -6.5 -0.5s-3.83301 -0.166992 -5.5 -0.5s-3.5 -0.833008 -5.5 -1.5c-6 -0.666992 -12.5 -1.16699 -19.5 -1.5s-15.5 -0.5 -25.5 -0.5h-10h-7.5h-8.5v31h10h3h2c1.33301 -0.666992 2.33301 -1 3 -1h2
c30 2 47.667 15 53 39s8 54.667 8 92c0 12.667 0.166992 24.667 0.5 36s0.833008 22.333 1.5 33c0 10.667 0.166992 20.667 0.5 30s0.5 18.333 0.5 27c0 33.333 -4 58.833 -12 76.5s-26.667 26.834 -56 27.501c-3.33301 0 -7 -0.166992 -11 -0.5
s-8.33301 -0.833008 -13 -1.5h-10v0z" />
    <glyph glyph-name="n" unicode="n" horiz-adv-x="626" 
d="M56 389l-0.00878906 32.001c20 1.33301 48 4.33301 84 9s80.333 13 133 25h10c-1.33301 -10.667 -2.5 -21.834 -3.5 -33.501s-1.83301 -23.167 -2.5 -34.5c12.667 7.33301 26 14.666 40 21.999s28 14 42 20c20.667 8.66699 40.834 15.667 60.501 21s37.167 8 52.5 8h10
c41.333 0 70 -10 86 -30s26 -41.667 30 -65c0.666992 -6.66699 1.33398 -13 2.00098 -19s1 -11.667 1 -17c0.666992 -6.66699 1 -13.167 1 -19.5v-20.5v-8.5v-9.5c-0.666992 -2.66699 -1 -5.5 -1 -8.5v-9.5c0 -8 -0.166992 -15 -0.5 -21s-0.833008 -12 -1.5 -18v-4.5v-5.5
c-0.666992 -6 -1.16699 -12.5 -1.5 -19.5s-0.5 -14.833 -0.5 -23.5v-4.5v-5.5c0 -34 2.33301 -61.833 7 -83.5s21.667 -33.5 51 -35.5h3c0.666992 0 1.33398 0.333008 2.00098 1h3h2h10v-31h-10h-6h-6h-3h-3c-10 0 -18.833 0.333008 -26.5 1l-22.5 2
c-0.666992 0.666992 -1.5 1 -2.5 1h-2.5c-2 0 -4 0.166992 -6 0.5s-4 0.833008 -6 1.5l-21 2c-7.33301 0.666992 -15.666 1 -24.999 1c-8.66699 0 -16.667 -0.333008 -24 -1s-14 -1.33398 -20 -2.00098c-2 -0.666992 -4 -1.16699 -6 -1.5s-4 -0.5 -6 -0.5
c-3.33301 -0.666992 -6.5 -1.16699 -9.5 -1.5s-5.83301 -0.5 -8.5 -0.5c-4.66699 -0.666992 -9.5 -1.16699 -14.5 -1.5s-10.5 -0.5 -16.5 -0.5h-10h-6h-7v31c36.667 0 57.834 15.833 63.501 47.5s8.16699 67.834 7.5 108.501v12.5v13.5v1.5v1.5v6.5v6.5
c0 45.333 -3.16699 82.5 -9.5 111.5s-29.166 44.167 -68.499 45.5c-8 -0.666992 -17 -2.33398 -27 -5.00098s-20.333 -6.33398 -31 -11.001c-9.33301 -4 -18.666 -8.33301 -27.999 -13s-18 -9.33398 -26 -14.001c-2 -1.33301 -3.83301 -2.66602 -5.5 -3.99902
s-3.5 -2.66602 -5.5 -3.99902c0 -2.66699 -0.166992 -5.33398 -0.5 -8.00098s-0.5 -5.33398 -0.5 -8.00098c-0.666992 -7.33301 -1.16699 -14.666 -1.5 -21.999s-0.833008 -14.666 -1.5 -21.999c-1.33301 -20 -2.5 -39.333 -3.5 -58s-1.5 -36.667 -1.5 -54
c0 -38.667 4.83301 -70.5 14.5 -95.5s29.834 -37.167 60.501 -36.5h2v-31h-10h-8h-8c-8 0 -15 0.333008 -21 1s-11.667 1.33398 -17 2.00098c-2 0 -3.66699 0.166992 -5 0.5s-3 0.5 -5 0.5s-4 0.166992 -6 0.5s-4 0.833008 -6 1.5l-21 2
c-7.33301 0.666992 -15.666 1 -24.999 1c-8.66699 0 -16.667 -0.333008 -24 -1l-21 -2c-2 -0.666992 -4 -1.16699 -6 -1.5s-4 -0.5 -6 -0.5s-3.83301 -0.166992 -5.5 -0.5s-3.5 -0.833008 -5.5 -1.5c-6 -0.666992 -12.5 -1.16699 -19.5 -1.5s-15.5 -0.5 -25.5 -0.5h-10h-7.5
h-8.5v31h10h3h2c1.33301 -0.666992 2.33301 -1 3 -1h2c30 2 47.667 15 53 39s8 54.667 8 92c0 12.667 0.166992 24.667 0.5 36s0.833008 22.333 1.5 33c0 10.667 0.166992 20.667 0.5 30s0.5 18.333 0.5 27c0 33.333 -4 58.833 -12 76.5s-26.667 26.834 -56 27.501
c-3.33301 0 -7 -0.166992 -11 -0.5s-8.33301 -0.833008 -13 -1.5h-10v0z" />
    <glyph glyph-name="o" unicode="o" horiz-adv-x="571" 
d="M352 454c72.667 0 132.667 -20.667 180 -62s71 -96.666 71 -165.999c0 -74 -26 -132.833 -78 -176.5s-115.333 -65.5 -190 -65.5l-10 -1c-62.667 0.666992 -119.167 21 -169.5 61s-75.5 94.667 -75.5 164c0 9.33301 0.5 18.833 1.5 28.5s2.5 19.167 4.5 28.5
c10.667 47.333 36 90.666 76 129.999s100 59 180 59h10v0zM332 413c-3.33301 0 -6.49902 -0.331055 -9.49902 -0.998047s-5.83301 -1.33398 -8.5 -2.00098c-22.667 -6 -43.334 -21.833 -62.001 -47.5s-28 -66.5 -28 -122.5c0 -67.333 10.667 -117 32 -149s45 -52.333 71 -61
c4.66699 -2 9.5 -3.5 14.5 -4.5s9.83301 -1.5 14.5 -1.5c29.333 1.33301 53.833 15.166 73.5 41.499s29.5 72.833 29.5 139.5c0 65.333 -12.833 116 -38.5 152s-55.167 54.667 -88.5 56v0z" />
    <glyph glyph-name="p" unicode="p" horiz-adv-x="598" 
d="M67 385v35c4 0 8.16699 0.166992 12.5 0.5s8.5 0.833008 12.5 1.5c14.667 0.666992 28.667 1.66699 42 3s26.666 3 39.999 5c17.333 2.66699 35.166 6 53.499 10s37.833 9.66699 58.5 17h10c-2.66699 -12.667 -4.5 -25.334 -5.5 -38.001s-2.16699 -25.667 -3.5 -39
c8.66699 6.66699 17.334 13 26.001 19s17.334 11.667 26.001 17c18.667 11.333 37.5 20.666 56.5 27.999s39.167 11 60.5 11h10c4.66699 0 9.33398 -0.166992 14.001 -0.5s9.33398 -1.16602 14.001 -2.49902c32.667 -6 62.834 -24.667 90.501 -56s41.5 -77.333 41.5 -138
c0 -69.333 -24.5 -130.5 -73.5 -183.5s-111.167 -79.5 -186.5 -79.5l-10 -1c-11.333 0.666992 -21.833 1.16699 -31.5 1.5s-19.167 1.16602 -28.5 2.49902v-14v-14c-0.666992 -4.66699 -1 -9.33398 -1 -14.001v-13c0 -48.667 4.16699 -86.834 12.5 -114.501
s26.166 -41.5 53.499 -41.5l25 -1v-31c-2.66699 0.666992 -5.16699 1 -7.5 1s-4.5 -0.333008 -6.5 -1h-6h-6l-10 -1c-9.33301 0.666992 -17.666 1.33398 -24.999 2.00098s-14 1.33398 -20 2.00098c-1.33301 0.666992 -2.66602 1 -3.99902 1h-4
c-0.666992 0.666992 -1.5 1 -2.5 1h-2.5c-2 0 -4.16699 0.166992 -6.5 0.5s-4.5 0.833008 -6.5 1.5c-6.66699 0.666992 -13.834 1.33398 -21.501 2.00098s-15.834 1 -24.501 1s-16.667 -0.333008 -24 -1l-21 -2c-2 -0.666992 -4 -1.16699 -6 -1.5s-4 -0.5 -6 -0.5
s-3.83301 -0.166992 -5.5 -0.5s-3.5 -0.833008 -5.5 -1.5c-6 -0.666992 -12.5 -1.16699 -19.5 -1.5s-15.5 -0.5 -25.5 -0.5l-10 -1c-2.66699 0.666992 -5.16699 1 -7.5 1h-8.5v30h10c1.33301 0.666992 2.83301 1 4.5 1s3.16699 -0.333008 4.5 -1
c29.333 2.66699 47.333 15.834 54 39.501s10 49.834 10 78.501v5v6v16v16v17v16v8.5v8.5v7.5v8.5c0 35.333 -0.333008 66.666 -1 93.999s-1.33398 52.666 -2.00098 75.999c0 14 -0.166992 27.5 -0.5 40.5s-0.833008 25.833 -1.5 38.5v9v10
c-0.666992 41.333 -3.5 69.5 -8.5 84.5s-19.167 22.833 -42.5 23.5h-6h-5c-6 -0.666992 -11.833 -1.16699 -17.5 -1.5s-10.834 -1.16602 -15.501 -2.49902h-10v0zM296 36c3.33301 -2 6.66699 -3.5 10 -4.5s6.33301 -1.83301 9 -2.5
c6 -1.33301 11.833 -2.16602 17.5 -2.49902s11.834 -0.5 18.501 -0.5h2.5h2.5h-10c38.667 0 68.167 11 88.5 33s34.833 46 43.5 72c7.33301 22.667 11.666 43.834 12.999 63.501s2 32.5 2 38.5c0 41.333 -7.83301 77.666 -23.5 108.999s-40.5 48 -74.5 50
c-11.333 -0.666992 -22.5 -3.5 -33.5 -8.5s-21.833 -11.5 -32.5 -19.5c-6 -4 -11.667 -8.5 -17 -13.5l-16 -15.5c0 -6.66699 -0.166992 -17.167 -0.5 -31.5s-0.5 -29.5 -0.5 -45.5c-0.666992 -14.667 -1 -28.834 -1 -42.501v-31.5c0 -4.66699 0.166992 -18.667 0.5 -42
l1.5 -106v0z" />
    <glyph glyph-name="q" unicode="q" horiz-adv-x="542" 
d="M309 -245l-0.00292969 31.0029c1.33301 0.666992 2.83301 1 4.5 1h3.5c36.667 0 58.334 21.667 65.001 65s10.334 95 11.001 155v17.5v17.5c-2.66699 -2 -5.16699 -4.16699 -7.5 -6.5s-4.83301 -4.16602 -7.5 -5.49902c-18 -14 -36.333 -24.667 -55 -32
s-39.667 -11 -63 -11l-10 -1c-46 0.666992 -86.167 17.667 -120.5 51s-51.5 77.333 -51.5 132c0 6 0.166992 11.833 0.5 17.5s0.833008 11.5 1.5 17.5c6.66699 62 33 119 79 171s115.333 78 208 78h10c14 0 27.833 -0.833008 41.5 -2.5s27.167 -4.16699 40.5 -7.5
c10.667 -2.66699 21.334 -5.83398 32.001 -9.50098s21.667 -7.83398 33 -12.501c-0.666992 -6 -1.33398 -13.167 -2.00098 -21.5s-1.33398 -17.833 -2.00098 -28.5c-1.33301 -22.667 -2.66602 -49 -3.99902 -79l-4 -92c-1.33301 -34.667 -2.33301 -68.334 -3 -101.001
s-1 -60.334 -1 -83.001c0 -10 -0.166992 -19.667 -0.5 -29s-0.5 -18.333 -0.5 -27c0 -9.33301 -0.166992 -18.333 -0.5 -27s-0.5 -17 -0.5 -25c0 -36.667 4.16699 -66 12.5 -88s27.5 -33 57.5 -33h5h6v-32h-10c-2 0.666992 -4 1 -6 1h-6h-3h-3
c-11.333 0 -21.166 0.333008 -29.499 1s-16.166 1.66699 -23.499 3c-2 0 -4 0.166992 -6 0.5s-4 0.833008 -6 1.5l-21 2c-7.33301 0.666992 -15.666 1 -24.999 1c-8.66699 0 -16.834 -0.333008 -24.501 -1s-14.834 -1.33398 -21.501 -2.00098
c-2 -0.666992 -4 -1.16699 -6 -1.5s-4 -0.5 -6 -0.5c-1.33301 0 -2.5 -0.166992 -3.5 -0.5s-2.16699 -0.5 -3.5 -0.5c-6.66699 -1.33301 -13.667 -2.16602 -21 -2.49902s-16.333 -0.5 -27 -0.5l-10 -1c-2.66699 0.666992 -5.16699 1 -7.5 1h-8.5v-1zM392.997 387.003
c-14.667 12 -28.5 19.6689 -41.5 23.002s-24.833 5.33301 -35.5 6c-5.33301 0 -10.833 -0.833008 -16.5 -2.5s-11.167 -3.5 -16.5 -5.5c-22 -10 -42 -28.167 -60 -54.5s-27 -62.5 -27 -108.5c0 -52 9.16699 -97.833 27.5 -137.5s46.833 -60.5 85.5 -62.5
c17.333 1.33301 32.833 6.66602 46.5 15.999s26.167 20.333 37.5 33c0.666992 8 1.16699 15.667 1.5 23s0.5 14.333 0.5 21c0.666992 12.667 1 25.5 1 38.5v45.5c0 19.333 -0.166992 36.666 -0.5 51.999s-0.5 30.333 -0.5 45c0 10.667 -0.166992 21.5 -0.5 32.5
s-0.833008 22.833 -1.5 35.5v0z" />
    <glyph glyph-name="r" unicode="r" horiz-adv-x="458" 
d="M440 300l-14.0059 -0.000976562c-0.666992 19.333 -3.33398 36 -8.00098 50s-16.334 21.667 -35.001 23c-5.33301 -0.666992 -10.666 -1.83398 -15.999 -3.50098s-10.666 -3.83398 -15.999 -6.50098c-9.33301 -4.66699 -18.166 -10.167 -26.499 -16.5
s-15.833 -12.833 -22.5 -19.5c-0.666992 -8.66699 -1.16699 -16.167 -1.5 -22.5s-0.5 -12.833 -0.5 -19.5v-15v-17v-4v-4v-4v-4v-7.5v-6.5v-7.5v-7.5v-18v-18c-0.666992 -6 -1 -11.833 -1 -17.5v-17.5c0 -28.667 3.5 -53.167 10.5 -73.5s23.5 -31.5 49.5 -33.5
c0.666992 0 1.33398 0.166992 2.00098 0.5s1.33398 0.5 2.00098 0.5h2h2h10v-31h-10h-8.5h-8.5c-10 0 -18.833 0.333008 -26.5 1l-22.5 2c-0.666992 0.666992 -1.5 1 -2.5 1h-2.5c-2 0 -4 0.166992 -6 0.5s-4 0.833008 -6 1.5l-21 2c-7.33301 0.666992 -15.666 1 -24.999 1
c-8.66699 0 -16.667 -0.333008 -24 -1l-21 -2c-2 -0.666992 -4 -1.16699 -6 -1.5s-4 -0.5 -6 -0.5s-3.83301 -0.166992 -5.5 -0.5s-3.5 -0.833008 -5.5 -1.5c-6 -0.666992 -12.5 -1.16699 -19.5 -1.5s-15.5 -0.5 -25.5 -0.5h-10h-7.5h-8.5v31h10
c0.666992 0 1.33398 -0.166992 2.00098 -0.5s1.33398 -0.5 2.00098 -0.5h2h2c28 1.33301 44.833 11.833 50.5 31.5s8.83398 45.5 9.50098 77.5c0 3.33301 0.166992 6.83301 0.5 10.5s0.5 7.16699 0.5 10.5s0.166992 6.66602 0.5 9.99902s0.5 7 0.5 11v10v10v9.5v9.5
c-0.666992 2.66699 -1 5.66699 -1 9v9c-1.33301 56.667 -4.83301 95.834 -10.5 117.501s-19.834 32.834 -42.501 33.501h-5.5h-4.5c-4.66699 0 -9 -0.166992 -13 -0.5s-7.66699 -0.833008 -11 -1.5c-2 0 -4 -0.166992 -6 -0.5s-3.66699 -0.5 -5 -0.5h-10v37h27
c12 0 27.167 0.833008 45.5 2.5s37.166 4.16699 56.499 7.5c15.333 2.66699 30.666 5.83398 45.999 9.50098s29 7.83398 41 12.501h10c-1.33301 -10 -2.16602 -18.5 -2.49902 -25.5s-0.5 -13.5 -0.5 -19.5v-6.5v-6.5v-6v-6v-14c2 2 4.16699 4 6.5 6s4.5 4 6.5 6
c10 8.66699 20.333 17 31 25s21.334 15.333 32.001 22c12 7.33301 23.833 13.166 35.5 17.499s22.5 6.5 32.5 6.5h10c3.33301 0 8.33301 -0.666992 15 -2s13.667 -4 21 -8c5.33301 -3.33301 10.5 -7.66602 15.5 -12.999s9.5 -12 13.5 -20
c-18.667 -24.667 -32.667 -46.5 -42 -65.5s-16 -34.167 -20 -45.5h-10v0z" />
    <glyph glyph-name="s" unicode="s" horiz-adv-x="402" 
d="M363 306l-13.9961 0.000976562v15c0 4.66699 -0.166992 9.33398 -0.5 14.001s-1.16602 9.33398 -2.49902 14.001c-3.33301 18 -10.5 34.5 -21.5 49.5s-26.833 23.167 -47.5 24.5c-13.333 -0.666992 -25.666 -6 -36.999 -16s-17 -24.667 -17 -44
c0 -16 3.16699 -29.667 9.5 -41s16.166 -22 29.499 -32c8 -6 17 -12 27 -18l33 -19c2 -1.33301 4.16699 -2.5 6.5 -3.5s4.5 -2.16699 6.5 -3.5c26.667 -15.333 51 -33.166 73 -53.499s33 -46.833 33 -79.5c0 -5.33301 -0.833008 -13.666 -2.5 -24.999
s-6.5 -23.666 -14.5 -36.999c-10 -16 -27.333 -30.833 -52 -44.5s-61.334 -20.5 -110.001 -20.5l-10 -1c-36 0.666992 -66.5 5.16699 -91.5 13.5s-48.833 23.833 -71.5 46.5l-8 8c-2.66699 2.66699 -5.33398 5.66699 -8.00098 9c6 3.33301 11.667 6.83301 17 10.5
s10.333 7.5 15 11.5c12.667 9.33301 23.5 18.833 32.5 28.5s16.5 18.167 22.5 25.5h10c0.666992 -4 1.16699 -8.33301 1.5 -13s1.16602 -9.33398 2.49902 -14.001c4.66699 -22 13.5 -42.333 26.5 -61s31.5 -28.667 55.5 -30c17.333 1.33301 30.166 6.66602 38.499 15.999
s14.166 19.666 17.499 30.999c1.33301 4.66699 2.16602 9 2.49902 13s0.5 8 0.5 12c0 22 -7 39.667 -21 53s-31 25.666 -51 36.999c-5.33301 3.33301 -10.833 6.5 -16.5 9.5s-11.167 6.16699 -16.5 9.5l-19 11.5c-7.33301 4.33301 -14.666 9.16602 -21.999 14.499
c-15.333 11.333 -29.333 25.666 -42 42.999s-19 38.666 -19 63.999c0 32 14.667 59.833 44 83.5s69 35.5 119 35.5h10h7.5h7.5c26.667 -2 52.5 -8.16699 77.5 -18.5s46.5 -24.166 64.5 -41.499c-18.667 -16.667 -33 -33 -43 -49s-17.333 -28.667 -22 -38h-10v0z" />
    <glyph glyph-name="t" unicode="t" horiz-adv-x="374" 
d="M63 402l0.00195312 35.001h6h6c40 0 76.5 13.833 109.5 41.5s51.167 66.5 54.5 116.5h10h46l-8 -79.5c-2.66699 -26.333 -5 -52.5 -7 -78.5c7.33301 -0.666992 14.166 -1.16699 20.499 -1.5s12.833 -0.5 19.5 -0.5c18 0 33.833 0.833008 47.5 2.5s25.167 3.5 34.5 5.5
c3.33301 1.33301 6.5 2.33301 9.5 3s5.83301 1.33398 8.5 2.00098h10l-30 -56c-14 -0.666992 -26.667 -1.16699 -38 -1.5s-22.333 -0.5 -33 -0.5h-10h-6.5h-6.5h-3c-1.33301 0 -2.33301 0.333008 -3 1h-10h-10l-2.5 -24.5c-1 -9.66699 -1.83301 -19.834 -2.5 -30.501
c-0.666992 -5.33301 -1.16699 -10.666 -1.5 -15.999s-0.5 -10.333 -0.5 -15c-1.33301 -18 -2.5 -35 -3.5 -51s-1.5 -29 -1.5 -39c0 -38.667 3 -73.667 9 -105s24.333 -48.333 55 -51c1.33301 0 2.5 0.166992 3.5 0.5s2.16699 0.5 3.5 0.5
c10.667 3.33301 21.334 9.66602 32.001 18.999s19.667 19.333 27 30c1.33301 1.33301 2.5 2.66602 3.5 3.99902s1.83301 2.66602 2.5 3.99902h10v-57c-8.66699 -6 -15.167 -10.667 -19.5 -14l-11.5 -9h-0.5h-0.5c-1.33301 -1.33301 -3 -2.66602 -5 -3.99902s-4 -3 -6 -5
c-2.66699 -2 -5.33398 -4.16699 -8.00098 -6.5s-5.66699 -4.5 -9 -6.5c-9.33301 -7.33301 -20.166 -13.833 -32.499 -19.5s-27.166 -8.5 -44.499 -8.5l-10 -1c-36.667 0.666992 -63.5 10.167 -80.5 28.5s-28.5 38.833 -34.5 61.5c-3.33301 12 -5.5 23.667 -6.5 35
s-1.5 21.333 -1.5 30v27v27c0 8.66699 0.166992 17.5 0.5 26.5s0.833008 17.833 1.5 26.5c1.33301 14.667 2.16602 29.167 2.49902 43.5s0.5 28.5 0.5 42.5c0 23.333 -3.33301 40.5 -10 51.5s-21.334 16.833 -44.001 17.5h-9.5c-3.66699 0 -7.83398 -0.333008 -12.501 -1
h-10v0z" />
    <glyph glyph-name="u" unicode="u" horiz-adv-x="654" 
d="M399 433l20.999 -0.000976562c16.667 0 34.834 1 54.501 3l68.5 7c2.66699 0 5.16699 0.166992 7.5 0.5s4.5 0.5 6.5 0.5c2.66699 0 5 0.166992 7 0.5s4.33301 0.5 7 0.5c6 0.666992 12.167 1.5 18.5 2.5l22.5 3.5h10c-4 -21.333 -7.5 -45.666 -10.5 -72.999
s-5.5 -55 -7.5 -83c-3.33301 -36.667 -5.66602 -72.167 -6.99902 -106.5s-2 -62.166 -2 -83.499c0 -4 0.333008 -8.66699 1 -14s2 -10.666 4 -15.999c3.33301 -10 9.5 -19 18.5 -27s22.833 -12.333 41.5 -13h6c2 0 4 0.333008 6 1h10v-36h-10h-28
c-3.33301 0 -6.83301 0.166992 -10.5 0.5s-7.16699 0.5 -10.5 0.5c-1.33301 0 -2.66602 0.166992 -3.99902 0.5s-2.66602 0.5 -3.99902 0.5c-2 0 -4.16699 0.166992 -6.5 0.5s-4.83301 0.5 -7.5 0.5c-4 0.666992 -8 1.16699 -12 1.5s-8 0.833008 -12 1.5
c-4.66699 0 -9 0.166992 -13 0.5s-8 0.5 -12 0.5h-6.5c-2.33301 0 -4.83301 -0.333008 -7.5 -1c-6 0 -11.833 -0.333008 -17.5 -1l-16.5 -2c-4.66699 -0.666992 -8.83398 -1.16699 -12.501 -1.5s-6.5 -0.833008 -8.5 -1.5h-10l7 61c-40 -26 -73.5 -44.833 -100.5 -56.5
s-51.167 -17.5 -72.5 -17.5l-10 -1c-50.667 0.666992 -86 11.667 -106 33s-32.333 45 -37 71c-2 10.667 -3.16699 21.334 -3.5 32.001s-0.5 20.334 -0.5 29.001c0 18.667 0.5 35.667 1.5 51s2.5 29.666 4.5 42.999c0.666992 10.667 1.5 20.834 2.5 30.501
s1.83301 19.5 2.5 29.5v6v6c0 30.667 -3.66699 50.667 -11 60s-17 14.333 -29 15h-3.5h-2.5c-6.66699 0 -13.167 -0.333008 -19.5 -1s-11.5 -1.33398 -15.5 -2.00098h-10v36c2 0 3.83301 0.166992 5.5 0.5s3.5 0.5 5.5 0.5h2.5h2.5c2.66699 0 5.83398 0.166992 9.50098 0.5
s8.16699 0.5 13.5 0.5h3h3c2 0 4.16699 0.166992 6.5 0.5s4.5 0.5 6.5 0.5c16.667 0.666992 35.834 2.5 57.501 5.5s56.5 8.83301 104.5 17.5h10c-1.33301 -10.667 -2.33301 -19.5 -3 -26.5s-1.33398 -13.5 -2.00098 -19.5v-1.5v-1.5
c-0.666992 -4.66699 -1.16699 -9.33398 -1.5 -14.001s-0.833008 -10.334 -1.5 -17.001c-0.666992 -8 -1.5 -17.333 -2.5 -28s-2.16699 -22.334 -3.5 -35.001l-2 -27l-2 -29c-2 -24.667 -3.5 -48.167 -4.5 -70.5s-1.5 -39.833 -1.5 -52.5c0 -4 0.166992 -8.83301 0.5 -14.5
s1.16602 -11.167 2.49902 -16.5c2.66699 -11.333 7.33398 -21.666 14.001 -30.999s17 -14.333 31 -15c10 0.666992 20.667 2 32 4s22.666 4.66699 33.999 8c15.333 4.66699 30.166 10.167 44.499 16.5s27.166 13.166 38.499 20.499c2 28 4 53.833 6 77.5
s3.66699 46.834 5 69.501c0.666992 13.333 1.16699 26.5 1.5 39.5s0.5 26.5 0.5 40.5v3.5v3.5v2.5v3.5c0 14.667 -1.66699 28.167 -5 40.5s-13 19.166 -29 20.499c-2.66699 0 -5.5 -0.166992 -8.5 -0.5s-6.16699 -0.5 -9.5 -0.5
c-5.33301 -0.666992 -10.333 -1.16699 -15 -1.5s-8 -0.5 -10 -0.5h-10v34v0z" />
    <glyph glyph-name="v" unicode="v" horiz-adv-x="542" 
d="M53 407l0.000976562 33.0059h10h38c5.33301 0 10.666 -0.333008 15.999 -1s11.333 -1.33398 18 -2.00098c7.33301 -1.33301 15.5 -2.33301 24.5 -3s19.5 -1 31.5 -1c18.667 0 31.667 0.333008 39 1s13 1.66699 17 3h1.5h0.5c4 0.666992 8.83301 1.33398 14.5 2.00098
s15.167 1 28.5 1h10h19v-33h-14h-0.5h-1.5h-6c-2.66699 0 -5.33398 -0.333008 -8.00098 -1c-5.33301 -0.666992 -10 -2.16699 -14 -4.5s-6 -6.16602 -6 -11.499c0 -18 6.16699 -42 18.5 -72s25.833 -68.667 40.5 -116c5.33301 -17.333 10.666 -35.833 15.999 -55.5
s10.333 -40.834 15 -63.501c0.666992 2 1.16699 4 1.5 6s0.833008 3.66699 1.5 5c0.666992 4.66699 1.66699 9 3 13l4 12c2 6 4.33301 12.5 7 19.5s5.66699 15.5 9 25.5c2 6 5.83301 16.333 11.5 31l17.5 47c0 2 0.333008 3.83301 1 5.5s1.33398 3.16699 2.00098 4.5
l18.5 56c5.66699 17.333 8.5 28.666 8.5 33.999c0 24 -2.5 40.333 -7.5 49s-10.5 13.667 -16.5 15c-1.33301 0.666992 -2.66602 1 -3.99902 1h-4h-15v33h10h21c15.333 0 24.666 -0.333008 27.999 -1s5.33301 -1.33398 6 -2.00098
c1.33301 -1.33301 3.66602 -2.33301 6.99902 -3s12.333 -1 27 -1c6.66699 0 13 0.333008 19 1s11.667 1.66699 17 3h0.5h1.5l16 2c5.33301 0.666992 11 1 17 1h10h22v-33h-10h-1.5h-1.5c-15.333 -2.66699 -40.166 -26.334 -74.499 -71.001
s-78.166 -153.334 -131.499 -326.001l-103 -21h-10c-2 7.33301 -4 14.166 -6 20.499s-4.33301 12.5 -7 18.5l-4 12.5l-4 12.5l-34.5 88.5l-54.5 139.5c-3.33301 9.33301 -6.83301 18.333 -10.5 27l-10.5 25c-9.33301 22 -19.333 39.667 -30 53s-23.667 20.666 -39 21.999
h-1.5h-1.5c-0.666992 -0.666992 -1.16699 -1 -1.5 -1h-1.5h-10v0z" />
    <glyph glyph-name="w" unicode="w" horiz-adv-x="738" 
d="M795 441v-33c-25.333 -1.33301 -44 -9.5 -56 -24.5s-22.667 -34.5 -32 -58.5l-11 -30c-4 -10.667 -8.33301 -21.667 -13 -33l-14.5 -35.5l-15.5 -37.5c-3.33301 -8 -6.5 -16 -9.5 -24l-9.5 -25l-25.5 -69.5c-8.33301 -23 -15.5 -44.5 -21.5 -64.5l-44 -18h-10l-27.5 81.5
c-7 20.333 -13.833 39.166 -20.5 56.499c0 0.666992 -0.333008 1.66699 -1 3l-2 4c-3.33301 10 -7 20 -11 30l-13 34c-7.33301 18.667 -13 33.834 -17 45.501s-7.33301 22.834 -10 33.501c-0.666992 2.66699 -1.33398 5.5 -2.00098 8.5s-1.33398 5.83301 -2.00098 8.5
c-6 -21.333 -12.333 -41.5 -19 -60.5s-13.667 -37.5 -21 -55.5l-3.5 -9c-1 -2.66699 -2.16699 -5.33398 -3.5 -8.00098l-26 -72.5c-8.66699 -25 -16.667 -52.833 -24 -83.5l-57 -16h-10l-21 64l-20 58l-8 22l-8 22l-21 56.5l-23 60.5l-4 10
c-1.33301 3.33301 -2.66602 7 -3.99902 11c0 0.666992 -0.166992 1.33398 -0.5 2.00098s-0.5 1.33398 -0.5 2.00098c-10.667 28 -22 53.667 -34 77s-28 35 -48 35h-16v33h10h18c22 0 36 -0.5 42 -1.5s10.667 -1.83301 14 -2.5c3.33301 -1.33301 8 -2.33301 14 -3
s19.667 -1 41 -1c16 0 28 0.5 36 1.5s15 1.83301 21 2.5h1.5h1.5c5.33301 1.33301 11.333 2.33301 18 3s16.667 1 30 1h10h15v-33h-10c-3.33301 0.666992 -6.5 1.16699 -9.5 1.5s-6.16699 0.5 -9.5 0.5c-13.333 -0.666992 -23 -4.66699 -29 -12s-9 -19.666 -9 -36.999
c0 -6 0.5 -11.667 1.5 -17s2.5 -10.333 4.5 -15c3.33301 -9.33301 7.83301 -19 13.5 -29s11.5 -22.667 17.5 -38c1.33301 -4 2.83301 -8.16699 4.5 -12.5s3.16699 -8.83301 4.5 -13.5l8 -23c2.66699 -7.33301 5 -14.333 7 -21c1.33301 -2.66699 2.33301 -5.16699 3 -7.5
s1.33398 -4.5 2.00098 -6.5c0 -1.33301 0.166992 -2.33301 0.5 -3s0.5 -1.33398 0.5 -2.00098c0.666992 -2 1.16699 -3.66699 1.5 -5s0.833008 -3 1.5 -5l4 17.5c1.33301 5.66699 3 11.167 5 16.5c2 6.66699 4.16699 13.5 6.5 20.5s5.16602 14.5 8.49902 22.5l14 37l14 36
c8 22 15.667 44.5 23 67.5s14.333 48.5 21 76.5h10h44c10 -27.333 16.833 -46.666 20.5 -57.999s6.83398 -20.666 9.50098 -27.999l6.5 -19l10.5 -29c16 -43.333 28.5 -74.833 37.5 -94.5s15.5 -36.834 19.5 -51.501c0.666992 -2.66699 1.33398 -5.5 2.00098 -8.5
s1.33398 -6.16699 2.00098 -9.5c0.666992 4 1.5 7.66699 2.5 11s2.16699 6.66602 3.5 9.99902c2 7.33301 4.33301 14.666 7 21.999s6 16 10 26c21.333 55.333 33.833 93.5 37.5 114.5s5.5 34.5 5.5 40.5v0.5v0.5c0 11.333 -3.66699 18.166 -11 20.499
s-15.666 3.5 -24.999 3.5h-23v33h10c34 -1.33301 55.5 -2.5 64.5 -3.5s15.5 -1.83301 19.5 -2.5h3h3h6.5c2.33301 0 4.83301 0.333008 7.5 1c2.66699 0 5.16699 0.166992 7.5 0.5s4.5 0.5 6.5 0.5c3.33301 0.666992 6.66602 1.16699 9.99902 1.5s7 0.833008 11 1.5
c3.33301 0 6.66602 0.166992 9.99902 0.5s6.66602 0.5 9.99902 0.5h10h21v0z" />
    <glyph glyph-name="x" unicode="x" horiz-adv-x="542" 
d="M84 412l0.00683594 28.998h10c8.66699 0 16.167 -0.166992 22.5 -0.5s12.5 -0.833008 18.5 -1.5c3.33301 -0.666992 7 -1.16699 11 -1.5s8.33301 -0.833008 13 -1.5c8 -0.666992 16.167 -1.5 24.5 -2.5s16.833 -1.5 25.5 -1.5c8 0 15.5 0.333008 22.5 1
s13.5 1.33398 19.5 2.00098c2 0.666992 3.83301 1.16699 5.5 1.5s3.5 0.5 5.5 0.5c2.66699 0 5.16699 0.166992 7.5 0.5s4.83301 0.833008 7.5 1.5c6 0.666992 12.5 1.16699 19.5 1.5s15.833 0.5 26.5 0.5h10v-29h-10h-1.5c-0.333008 0 -0.833008 0.333008 -1.5 1h-1.5h-1.5
c-5.33301 -0.666992 -9.83301 -2 -13.5 -4s-6.16699 -4.33301 -7.5 -7v-1.5v-1.5c0 -6 2 -13.667 6 -23s12 -22.333 24 -39c1.33301 -2.66699 2.83301 -5.16699 4.5 -7.5s3.5 -4.5 5.5 -6.5c4.66699 -7.33301 9.5 -14.333 14.5 -21s9.5 -13.334 13.5 -20.001
c1.33301 1.33301 2.66602 2.83301 3.99902 4.5s2.66602 3.16699 3.99902 4.5c2 2.66699 3.83301 5 5.5 7s3.5 4.33301 5.5 7c8.66699 10.667 16.667 21.167 24 31.5s13 18.833 17 25.5c3.33301 5.33301 5.66602 10.5 6.99902 15.5s2 9.5 2 13.5
c0 6.66699 -1.83301 11.834 -5.5 15.501s-8.83398 5.5 -15.501 5.5h-12v29h10h23c6.66699 0 12.167 -0.333008 16.5 -1l12.5 -2h0.5h1.5c3.33301 -0.666992 7 -1.33398 11 -2.00098s8.66699 -1 14 -1c6 0 11.333 0.333008 16 1s9 1.33398 13 2.00098h0.5h1.5l14.5 2
c5 0.666992 11.5 1 19.5 1h10h20v-29h-12h-2h-2c-16 0 -35.333 -7.83301 -58 -23.5s-61.334 -63.167 -116.001 -142.5c14.667 -24 26.334 -42.167 35.001 -54.5l23 -33.5l0.5 -0.5c0.333008 -0.333008 0.5 -0.833008 0.5 -1.5c3.33301 -4 6.5 -8.16699 9.5 -12.5
s6.16699 -9.16602 9.5 -14.499l19.5 -30.5c5.66699 -9 11.167 -17.167 16.5 -24.5c9.33301 -12.667 19.833 -22.5 31.5 -29.5s29.167 -11.167 52.5 -12.5v-32h-10h-28c-4 0 -7.83301 0.166992 -11.5 0.5s-7.5 0.5 -11.5 0.5c-4 0.666992 -7.83301 1.16699 -11.5 1.5
s-7.5 0.833008 -11.5 1.5c-8.66699 1.33301 -17.5 2.33301 -26.5 3s-18.167 1 -27.5 1c-10.667 0 -21.167 -0.333008 -31.5 -1s-19.5 -1.66699 -27.5 -3c-1.33301 0 -2.83301 -0.166992 -4.5 -0.5s-3.16699 -0.5 -4.5 -0.5c-2 0 -4.16699 -0.166992 -6.5 -0.5
s-4.5 -0.5 -6.5 -0.5c-4 -0.666992 -8.16699 -1.16699 -12.5 -1.5s-9.5 -0.5 -15.5 -0.5h-10v32h6c8 0 15.167 1.5 21.5 4.5s9.5 7.83301 9.5 14.5v2.5v2.5c-0.666992 6.66699 -3 14 -7 22s-11 20.333 -21 37l-4 6l-4 6v1l-1 1l-13 21.5l-17 27.5
c-34.667 -44.667 -56.334 -72 -65.001 -82s-13.334 -17 -14.001 -21v-1v-2v0v0c0 -10 1.66699 -19.167 5 -27.5s10.333 -12.5 21 -12.5h18v-32h-10c-4.66699 0 -9 0.166992 -13 0.5s-7.66699 0.5 -11 0.5c-3.33301 0.666992 -6.83301 1.16699 -10.5 1.5
s-7.5 0.833008 -11.5 1.5c-6.66699 1.33301 -13.834 2.33301 -21.501 3s-15.5 1 -23.5 1h-2.5h-2.5c-6.66699 -0.666992 -15.5 -1.66699 -26.5 -3s-32.833 -3 -65.5 -5h-10v32c8 0 15.833 0.833008 23.5 2.5s15.167 4.16699 22.5 7.5c22.667 10.667 46.667 29.834 72 57.501
s57.666 66.5 96.999 116.5l-11 17c-3.33301 5.33301 -6.66602 10.333 -9.99902 15c-0.666992 1.33301 -1.5 2.5 -2.5 3.5s-1.83301 2.16699 -2.5 3.5l-17 24.5l-22 29.5c-30.667 42 -52.5 69.167 -65.5 81.5s-23.833 19.166 -32.5 20.499c-2.66699 0.666992 -5 1 -7 1h-7h-1
h-2h-13v0z" />
    <glyph glyph-name="y" unicode="y" horiz-adv-x="543" 
d="M63 411l-0.00390625 30.998h10h7.5h7.5c7.33301 0 13.833 -0.166992 19.5 -0.5s11.167 -1.16602 16.5 -2.49902c2 0 3.83301 -0.166992 5.5 -0.5s3.5 -0.5 5.5 -0.5s4 -0.166992 6 -0.5s4.33301 -0.833008 7 -1.5c4.66699 -0.666992 9.66699 -1.16699 15 -1.5
s11.333 -0.5 18 -0.5c8.66699 0 17.334 0.5 26.001 1.5s18 1.83301 28 2.5h3c0.666992 0 1.66699 0.333008 3 1c8.66699 0.666992 18.167 1.16699 28.5 1.5s23.5 0.833008 39.5 1.5h10v-31h-10h-1.5c-0.333008 0 -0.833008 0.333008 -1.5 1h-1.5h-1.5
c-14 0 -23.667 -3.83301 -29 -11.5s-8.33301 -16.167 -9 -25.5v-2.5v-2.5c0 -38 3.33301 -65.833 10 -83.5s14.667 -33.5 24 -47.5l10 -14.5l10 -15.5c10 -16 19.333 -37.167 28 -63.5s15.334 -64.5 20.001 -114.5c0.666992 6.66699 1.5 13 2.5 19s2.16699 12 3.5 18
c2 12.667 4.66699 25.667 8 39s7.66602 29.333 12.999 48c24 88 38.333 144.833 43 170.5s7 41.834 7 48.501c0 11.333 -3 20.333 -9 27s-13.667 10 -23 10h-14v31h10h17c7.33301 0 12.833 -0.333008 16.5 -1s6.83398 -1.33398 9.50098 -2.00098
c0.666992 0 1.33398 -0.166992 2.00098 -0.5s1.33398 -0.5 2.00098 -0.5c2.66699 -0.666992 6.5 -1.5 11.5 -2.5s12.5 -1.5 22.5 -1.5c11.333 0 20.5 0.5 27.5 1.5s13.833 1.83301 20.5 2.5c2.66699 0.666992 5 1.16699 7 1.5s4.33301 0.5 7 0.5
c4 0.666992 8.5 1.16699 13.5 1.5s10.833 0.5 17.5 0.5h10v-31h-10c-0.666992 0.666992 -1.66699 1 -3 1h-4c-22.667 -1.33301 -39.834 -14.333 -51.501 -39s-22.167 -52.667 -31.5 -84l-4 -12.5l-4 -12.5c-0.666992 -4 -1.66699 -7.83301 -3 -11.5l-4 -11.5
c-22.667 -66 -41 -126 -55 -180s-27.333 -101.333 -40 -142c-16.667 -52 -34.834 -92 -54.501 -120s-48.834 -42 -87.501 -42l-10 -1c-9.33301 0.666992 -21.666 2 -36.999 4s-31.666 8.33301 -48.999 19c11.333 14.667 20.833 30.167 28.5 46.5s13.834 33.833 18.501 52.5
l10 -1c6.66699 -8.66699 15 -16.834 25 -24.501s20.333 -13.5 31 -17.5c3.33301 -1.33301 6.66602 -2.33301 9.99902 -3l10 -2c2.66699 0 5.33398 0.333008 8.00098 1s5.33398 1.66699 8.00098 3c7.33301 3.33301 14.166 9 20.499 17s9.5 19.667 9.5 35
c0 12.667 -5.16699 33.834 -15.5 63.501s-38.5 99.834 -84.5 210.501l-67.5 162c-15 35.333 -28.5 59.333 -40.5 72c-6 6.66699 -12.167 11.167 -18.5 13.5s-13.5 3.5 -21.5 3.5h-12v0z" />
    <glyph glyph-name="z" unicode="z" horiz-adv-x="513" 
d="M137 295l-39.0039 -0.000976562c2.66699 12 5.5 28.667 8.5 50s6.83301 53.333 11.5 96h10c29.333 -2.66699 58.666 -4.66699 87.999 -6s58.333 -2 87 -2h10h10c24 0 47.667 0.5 71 1.5s44.333 1.83301 63 2.5c14.667 0.666992 27.5 1.33398 38.5 2.00098
s19.5 1.33398 25.5 2.00098h10v-7c-8 -8 -15.333 -16 -22 -24l-19 -23l-15.5 -21.5l-15.5 -22.5l-57 -92c-21.333 -35.333 -53 -81.666 -95 -138.999c-2.66699 -3.33301 -5.33398 -7 -8.00098 -11s-5.66699 -8 -9 -12c-1.33301 -2 -2.66602 -3.83301 -3.99902 -5.5
s-2.66602 -3.5 -3.99902 -5.5s-2.66602 -3.83301 -3.99902 -5.5s-2.66602 -3.5 -3.99902 -5.5c-2 -2.66699 -4 -5.16699 -6 -7.5s-3.66699 -4.83301 -5 -7.5v-5c6 1.33301 12.833 2.66602 20.5 3.99902s16.834 2.33301 27.501 3c4 0.666992 8 1 12 1h12h10h6h6
c1.33301 -0.666992 3 -1 5 -1h6c3.33301 0 6.83301 -0.166992 10.5 -0.5s7.16699 -0.833008 10.5 -1.5c2 0 4 -0.166992 6 -0.5s4 -0.5 6 -0.5c1.33301 0 3 -0.166992 5 -0.5s4 -0.5 6 -0.5c6 0 13 1.16699 21 3.5s16.333 6.5 25 12.5c8.66699 6.66699 17 16 25 28
s15 28 21 48h10h41c-2 -9.33301 -4.16699 -18.166 -6.5 -26.499s-4.5 -16.5 -6.5 -24.5c-10 -37.333 -22.333 -63.5 -37 -78.5s-41 -22.5 -79 -22.5l-10 -1c-17.333 0.666992 -35.166 1.66699 -53.499 3s-39.166 3.66602 -62.499 6.99902c-16.667 2 -31.667 3.5 -45 4.5
s-26 1.5 -38 1.5c-10.667 -0.666992 -21.5 -1.83398 -32.5 -3.50098s-22.167 -4.16699 -33.5 -7.5c-4 -0.666992 -7.83301 -1.66699 -11.5 -3l-11.5 -4l-10 -1l-20 38c4 4.66699 19.167 25.5 45.5 62.5l85.5 121.5l83.5 119.5l46.5 67.5
c-6.66699 -0.666992 -13.667 -1.16699 -21 -1.5s-14.666 -0.5 -21.999 -0.5h-10h-8c-2.66699 0 -5.33398 0.333008 -8.00098 1h-8h-8c-4.66699 0.666992 -9.5 1 -14.5 1h-14.5c-22.667 0 -42.334 -5.83301 -59.001 -17.5s-29.667 -39.167 -39 -82.5h-10v0z" />
    <glyph glyph-name="braceleft" unicode="{" horiz-adv-x="366" 
d="M305 776l5 -34.0078c-1.33301 0 -2.66602 -0.166992 -3.99902 -0.5s-2.66602 -0.833008 -3.99902 -1.5c-17.333 -4 -33.166 -13.167 -47.499 -27.5s-21.5 -36.166 -21.5 -65.499v-12.5v-12.5c0 -4 0.166992 -8.16699 0.5 -12.5s0.5 -8.5 0.5 -12.5s0.166992 -8 0.5 -12
s0.833008 -8 1.5 -12v-2.5v-2.5c0.666992 -3.33301 1.16699 -6.66602 1.5 -9.99902s0.5 -6.66602 0.5 -9.99902c0 -2 0.166992 -4.16699 0.5 -6.5s0.5 -4.83301 0.5 -7.5v-7.5v-6.5v-6.5v-6.5c-0.666992 -2.66699 -1 -5.16699 -1 -7.5v-6.5
c-2.66699 -44.667 -12.834 -81.334 -30.501 -110.001s-47.834 -53.667 -90.501 -75c46.667 -23.333 77.834 -50.166 93.501 -80.499s24.834 -65.166 27.501 -104.499c0 -2 0.166992 -4.16699 0.5 -6.5s0.5 -4.83301 0.5 -7.5v-7.5v-6.5v-6.5v-6.5
c-0.666992 -2.66699 -1 -5.16699 -1 -7.5v-6.5c0 -2.66699 -0.166992 -5.66699 -0.5 -9s-0.5 -6.66602 -0.5 -9.99902c-0.666992 -0.666992 -1 -1.66699 -1 -3v-3c-0.666992 -4.66699 -1.16699 -9 -1.5 -13s-0.5 -7.66699 -0.5 -11c0 -4 -0.166992 -8.16699 -0.5 -12.5
s-0.5 -8.16602 -0.5 -11.499v-12.5v-12.5c0 -29.333 7.16699 -51.166 21.5 -65.499s30.166 -23.5 47.499 -27.5c1.33301 -0.666992 2.66602 -1.16699 3.99902 -1.5s2.66602 -0.5 3.99902 -0.5l-5 -35h-10c-43.333 8 -75.333 22.167 -96 42.5s-35 41.833 -43 64.5
c-5.33301 16.667 -8.33301 32.5 -9 47.5s-1 27.833 -1 38.5v3.5v3.5c0 8 0.166992 14.833 0.5 20.5s0.833008 11.167 1.5 16.5v0v1c0 4.66699 0.166992 9.83398 0.5 15.501s0.5 12.167 0.5 19.5v0.5v0.5c0 9.33301 -0.333008 21 -1 35s-2.33398 28.667 -5.00098 44
c-4.66699 21.333 -13.5 41.5 -26.5 60.5s-33.167 30.5 -60.5 34.5v40c27.333 4 47.5 15.5 60.5 34.5s21.833 39.167 26.5 60.5c2.66699 15.333 4.33398 30 5.00098 44s1 25.667 1 35v0.5v0.5c0 7.33301 -0.166992 13.833 -0.5 19.5s-0.5 10.834 -0.5 15.501v1v0
c-0.666992 5.33301 -1.16699 10.833 -1.5 16.5s-0.5 12.5 -0.5 20.5v3.5v3.5c0 10.667 0.333008 23.667 1 39s3.66699 31.333 9 48c8 22.667 22.333 44.167 43 64.5s52.667 34.166 96 41.499h10v0z" />
    <glyph glyph-name="bar" unicode="|" horiz-adv-x="170" 
d="M56 -196v1053h10h48v-1053h-10h-48v0z" />
    <glyph glyph-name="braceright" unicode="}" horiz-adv-x="366" 
d="M61 -160l-5.00098 34.001l14 4.5c5.33301 1.66699 10.666 4.16699 15.999 7.5c12 6 22.833 15.5 32.5 28.5s14.5 31.5 14.5 55.5v12.5v12.5c0 3.33301 -0.166992 7.16602 -0.5 11.499s-0.5 8.5 -0.5 12.5s-0.166992 8 -0.5 12s-0.833008 8.33301 -1.5 13
c-0.666992 4 -1.16699 8 -1.5 12s-0.5 8 -0.5 12c0 2 -0.166992 4.16699 -0.5 6.5s-0.5 4.83301 -0.5 7.5v7.5v6.5v6.5c0 2.33301 0.333008 4.83301 1 7.5v6.5v6.5c0.666992 11.333 2 23.333 4 36s5.33301 25.667 10 39c7.33301 20 19.333 39.667 36 59s40.667 36.333 72 51
c-31.333 14.667 -55.166 31.667 -71.499 51s-28.5 39 -36.5 59c-4.66699 13.333 -8 26.333 -10 39s-3.33301 24.667 -4 36c0 2 -0.166992 4.16699 -0.5 6.5s-0.5 4.83301 -0.5 7.5v7.5v6.5v6.5c0 2.33301 0.333008 4.83301 1 7.5v6.5v6.5
c0 3.33301 0.166992 6.66602 0.5 9.99902s0.833008 6.66602 1.5 9.99902v2.5v2.5c0.666992 4 1.16699 8 1.5 12s0.5 8 0.5 12s0.166992 8.16699 0.5 12.5s0.5 8.5 0.5 12.5v12.5v12.5c0 24 -4.83301 42.5 -14.5 55.5s-20.5 22.5 -32.5 28.5
c-5.33301 3.33301 -10.666 5.83301 -15.999 7.5s-10 2.83398 -14 3.50098l5 34h10c54.667 -9.33301 91.834 -27.833 111.501 -55.5s31.167 -56.834 34.5 -87.501c1.33301 -10 2.16602 -19.667 2.49902 -29s0.5 -18.666 0.5 -27.999c0 -6 -0.166992 -12 -0.5 -18
s-0.5 -12 -0.5 -18c0 -6.66699 -0.166992 -13 -0.5 -19s-0.5 -12 -0.5 -18v-0.5v-1.5c0 -9.33301 0.166992 -20.666 0.5 -33.999s1.83301 -27 4.5 -41c4 -22.667 12.333 -43.667 25 -63s33.334 -31 62.001 -35v-40c-28.667 -4 -49.334 -15.667 -62.001 -35
s-21 -40.333 -25 -63c-2.66699 -14 -4.16699 -27.667 -4.5 -41s-0.5 -24.666 -0.5 -33.999v-1.5v-0.5c0 -6 0.166992 -12 0.5 -18s0.5 -12 0.5 -18c0 -6.66699 0.166992 -13 0.5 -19s0.5 -12 0.5 -18c0 -9.33301 -0.166992 -18.5 -0.5 -27.5s-1.16602 -18.5 -2.49902 -28.5
c-3.33301 -30.667 -14.833 -59.834 -34.5 -87.501s-56.834 -46.167 -111.501 -55.5l-10 -1v0z" />
    <glyph glyph-name="asciitilde" unicode="~" horiz-adv-x="458" 
d="M376 679l25.998 -0.000976562c-0.666992 -2.66699 -1.66699 -5.5 -3 -8.5s-2.66602 -6.16699 -3.99902 -9.5c-8.66699 -19.333 -22.167 -37.166 -40.5 -53.499s-41.5 -24.5 -69.5 -24.5h-10c-12.667 0 -25 1.5 -37 4.5s-23.667 6.5 -35 10.5
c-1.33301 0 -2.66602 0.166992 -3.99902 0.5s-2.66602 0.833008 -3.99902 1.5l-11.5 4c-3.66699 1.33301 -7.5 2.33301 -11.5 3c-4 1.33301 -7.83301 2.33301 -11.5 3s-7.5 1 -11.5 1c-12.667 -0.666992 -23.334 -3.5 -32.001 -8.5s-17 -12.833 -25 -23.5h-10h-26l8.5 14.5
l8.5 14.5c10.667 16.667 23.834 31.834 39.501 45.501s36.5 20.5 62.5 20.5h10c3.33301 0 9 -1 17 -3s16.667 -4 26 -6c1.33301 0 2.5 -0.166992 3.5 -0.5s1.83301 -0.833008 2.5 -1.5c8.66699 -2 16.5 -4 23.5 -6s11.833 -3.33301 14.5 -4
c1.33301 -0.666992 2.66602 -1.16699 3.99902 -1.5s3 -0.5 5 -0.5l6 -2c2 -0.666992 4.33301 -1.33398 7 -2.00098c3.33301 -1.33301 6.83301 -2.33301 10.5 -3s7.16699 -1 10.5 -1c11.333 1.33301 21.833 5 31.5 11s16.167 14.333 19.5 25h10v0z" />
    <glyph glyph-name="space" 
 />
    <glyph glyph-name="F" 
 />
    <glyph glyph-name="asciitilde" horiz-adv-x="514" 
d="M511 501l-39 0.00292969c0.666992 1.33301 1.16699 3.5 1.5 6.5s0.833008 6.16699 1.5 9.5c0.666992 4.66699 1.33398 9.83398 2.00098 15.501l2 17.5c0 5.33301 0.166992 10.5 0.5 15.5s0.5 9.83301 0.5 14.5c0 20.667 -7.33301 34.5 -22 41.5s-31 11.167 -49 12.5h-4
h-4h-7.5h-6.5c-2.66699 -0.666992 -5 -1 -7 -1h-6h-11h-10h-12.5h-14.5h-18c-0.666992 -47.333 -1.16699 -75.5 -1.5 -84.5s-0.5 -14.5 -0.5 -16.5c-0.666992 -2.66699 -1.16699 -9.33398 -1.5 -20.001s-0.833008 -41 -1.5 -91v-34.5v-35.5v-17.5v-17.5v-35.5v-30.5
c0.666992 -15.333 1.33398 -32.5 2.00098 -51.5s1.66699 -45.167 3 -78.5c0 -4.66699 0.333008 -9.5 1 -14.5s1.33398 -10.5 2.00098 -16.5c2.66699 -12.667 7.33398 -24.334 14.001 -35.001s17.334 -16 32.001 -16h35v-38h-5.5h-4.5h-5.5h-4.5l-10 -1
c-8.66699 0.666992 -16.334 1.33398 -23.001 2.00098l-20 2h-2.5h-2.5c-2 0.666992 -4.16699 1.16699 -6.5 1.5s-4.5 0.5 -6.5 0.5c-9.33301 2 -19.333 3.66699 -30 5s-22.667 2 -36 2s-25.333 -0.666992 -36 -2s-20.667 -3 -30 -5c-2.66699 -0.666992 -5 -1.16699 -7 -1.5
s-4.33301 -0.5 -7 -0.5c-6 -0.666992 -12.333 -1.33398 -19 -2.00098s-14.667 -1 -24 -1h-10h-5h-6v38h21c28 0 44.333 15.667 49 47s6.66699 66 6 104v4.5v4.5v8.5v8.5v14v14v14v14v22.5v22.5v35.5v16.5c-0.666992 4 -1 9.16699 -1 15.5v35.5v4.5v5.5v4.5v4.5v10.5v11.5v31
v32c-1.33301 29.333 -5.5 56.166 -12.5 80.499s-20.167 36.5 -39.5 36.5h-22v39h10c18 0 32.667 -0.333008 44 -1s22 -1.33398 32 -2.00098h6h6c4 -0.666992 8.16699 -1.16699 12.5 -1.5s9.16602 -0.5 14.499 -0.5c4.66699 0 10.5 -0.166992 17.5 -0.5
s14.833 -0.5 23.5 -0.5c5.33301 0 10.666 -0.166992 15.999 -0.5s10.666 -0.5 15.999 -0.5c13.333 0 26.166 -0.166992 38.499 -0.5s22.166 -0.5 29.499 -0.5c15.333 0 30.5 0.333008 45.5 1l44.5 2c10 0.666992 18.833 1.16699 26.5 1.5s15.5 0.5 23.5 0.5
c8 0.666992 16.5 1.16699 25.5 1.5s19.167 0.5 30.5 0.5h10c-6.66699 -34.667 -13.667 -66.667 -21 -96s-14.666 -56.333 -21.999 -81h-10v0z" />
    <glyph glyph-name="D" horiz-adv-x="737" 
d="M506 641l-0.00195312 37.9932c4 0.666992 7.66699 1 11 1h9h10c4.66699 0 9 -0.166992 13 -0.5s8 -0.833008 12 -1.5c3.33301 0 6.5 -0.166992 9.5 -0.5s5.83301 -0.833008 8.5 -1.5c6.66699 -0.666992 14.334 -1.5 23.001 -2.5s19 -1.5 31 -1.5
c8 0 16.833 0.333008 26.5 1s20.834 1.66699 33.501 3c8 0.666992 16.333 1.16699 25 1.5s18 0.833008 28 1.5h10v-38h-10c-0.666992 0 -1.5 0.166992 -2.5 0.5s-1.83301 0.5 -2.5 0.5h-3h-3c-13.333 0 -25.666 -1.83301 -36.999 -5.5s-22.333 -8.83398 -33 -15.501
c-29.333 -18 -62.166 -47.333 -98.499 -88s-90.5 -91.667 -162.5 -153c37.333 -13.333 69.166 -35.5 95.499 -66.5s50.166 -63.833 71.499 -98.5l34 -59c10.667 -19.333 21.334 -37 32.001 -53c12 -18 24.167 -32.833 36.5 -44.5s25.5 -18.167 39.5 -19.5l10 2
c3.33301 0.666992 7 1.33398 11 2.00098c2 0.666992 4.16699 1.33398 6.5 2.00098s4.5 1.33398 6.5 2.00098c4 1.33301 7.66699 2.66602 11 3.99902s6 2.33301 8 3h10v-39l-38 -13c-10 -3.33301 -19.667 -5.66602 -29 -6.99902
c-4.66699 -1.33301 -9.33398 -2.16602 -14.001 -2.49902s-9.66699 -0.5 -15 -0.5l-10 -1c-22 0.666992 -41.5 4.83398 -58.5 12.501s-33.167 19.5 -48.5 35.5c-28 28 -59.167 68.333 -93.5 121s-84.166 116.334 -149.499 191.001c96 100 158.5 169.167 187.5 207.5
s43.5 60.833 43.5 67.5c0 4.66699 -3 8.33398 -9 11.001s-13 4.33398 -21 5.00098c-0.666992 -0.666992 -1.33398 -1 -2.00098 -1h-3h-10v0zM99.998 641.993l0.00292969 37h10h33c4 0 8 -0.166992 12 -0.5s8.33301 -0.833008 13 -1.5c2 0 4 -0.166992 6 -0.5s4 -0.5 6 -0.5
c2 -0.666992 4 -1.16699 6 -1.5s4 -0.5 6 -0.5c4 -0.666992 8 -1.16699 12 -1.5s8.33301 -0.833008 13 -1.5c4 0 8 -0.166992 12 -0.5s8 -0.5 12 -0.5c8.66699 0 17.167 0.5 25.5 1.5s16.5 1.83301 24.5 2.5c2 0 4 0.166992 6 0.5s4 0.833008 6 1.5c2 0 4 0.166992 6 0.5
s4.33301 0.5 7 0.5c4 0.666992 8 1.16699 12 1.5s8 0.5 12 0.5h10h34v-37h-21c-26.667 0 -42 -18.167 -46 -54.5s-6 -83.833 -6 -142.5v-14.5v-14.5v-12.5v-13.5v-13.5v-12.5v-64.5v-17.5v-2v-2c-0.666992 -2.66699 -1 -8.16699 -1 -16.5v-46.5v-9.5v-10.5v-25v-27
c1.33301 -26 5.5 -50 12.5 -72s20.833 -33 41.5 -33h20v-38h-10h-6h-6c-8 0 -15 0.166992 -21 0.5s-12 1.16602 -18 2.49902c-2.66699 0 -5.33398 0.166992 -8.00098 0.5s-5.33398 0.833008 -8.00098 1.5c-8.66699 2 -18.5 3.66699 -29.5 5s-23.167 2 -36.5 2
s-25.333 -0.666992 -36 -2s-20.667 -3 -30 -5c-2.66699 -0.666992 -5.16699 -1.16699 -7.5 -1.5s-4.83301 -0.5 -7.5 -0.5c-6 -1.33301 -12.167 -2.16602 -18.5 -2.49902s-13.833 -0.5 -22.5 -0.5h-10h-5h-6v38h20c21.333 0 35.666 11.333 42.999 34
s11.666 47.667 12.999 75c0.666992 10 0.833984 19.833 0.500977 29.5s-0.5 18.5 -0.5 26.5v5v4c0 8 -0.166992 16.167 -0.5 24.5s-0.5 16.5 -0.5 24.5v24.5v24.5v10v11v10v10v10.5v10.5c0 98 -2.16699 167.5 -6.5 208.5s-19.5 61.5 -45.5 61.5h-21v0z" />
    <glyph glyph-name="N" 
 />
    <glyph glyph-name="bullet" 
 />
    <glyph glyph-name="guilsinglleft" 
 />
    <glyph glyph-name="O" horiz-adv-x="599" 
d="M657 54v-38.999c-12 -4.66699 -22.667 -8.5 -32 -11.5s-18.333 -5.5 -27 -7.5c-8 -2 -16.167 -3.5 -24.5 -4.5s-17.833 -1.5 -28.5 -1.5l-10 -1c-22 0.666992 -40.333 6 -55 16s-28.667 23.667 -42 41l-11 15l-12 16l-42.5 58c-11.667 15.333 -22.834 28.333 -33.501 39
c-6.66699 7.33301 -13.667 13.833 -21 19.5s-15.333 11.167 -24 16.5l116 106.5c27.333 25.667 41 47.834 41 66.501c0 9.33301 -3 16.666 -9 21.999s-13.333 8.33301 -22 9c-0.666992 0 -1.5 -0.166992 -2.5 -0.5s-1.83301 -0.5 -2.5 -0.5s-1.5 -0.166992 -2.5 -0.5
s-1.83301 -0.5 -2.5 -0.5h-10v29h10c16 0 29 -0.333008 39 -1s19.333 -1.66699 28 -3c2 0 3.83301 -0.166992 5.5 -0.5s3.5 -0.5 5.5 -0.5c8 -1.33301 16.167 -2.5 24.5 -3.5s16.833 -1.5 25.5 -1.5c4 0 8.16699 0.333008 12.5 1l12.5 2l12 2l12 2
c4 0.666992 7.5 1.16699 10.5 1.5s6.16699 0.5 9.5 0.5h1h2c1.33301 0 3 0.166992 5 0.5s4 0.5 6 0.5h10v-31c-7.33301 -0.666992 -14.166 -1.5 -20.499 -2.5s-12.833 -2.5 -19.5 -4.5c-21.333 -7.33301 -46.333 -23.166 -75 -47.499l-138 -119.5
c14.667 -2.66699 35.5 -11.834 62.5 -27.501s56.833 -48.5 89.5 -98.5c2.66699 -4 5.66699 -8.83301 9 -14.5s7 -11.167 11 -16.5c6.66699 -10 14 -19 22 -27s16 -13.667 24 -17c1.33301 0 2.5 -0.166992 3.5 -0.5s1.83301 -0.5 2.5 -0.5c3.33301 0 7 0.5 11 1.5
s8 2.16699 12 3.5c3.33301 1.33301 7 3.16602 11 5.49902s7.66699 5.5 11 9.5h10v0zM81 0.000976562l-0.00390625 31.0039h10h4.5c1.66699 0 3.16699 -0.333008 4.5 -1c27.333 2 44.5 13 51.5 33s10.5 46 10.5 78c0 7.33301 -0.166992 14.833 -0.5 22.5s-0.5 15.5 -0.5 23.5
s-0.166992 16.167 -0.5 24.5s-0.5 16.833 -0.5 25.5c0 73.333 -2.33301 120.833 -7 142.5s-20.667 32.5 -48 32.5h-24v29h10c21.333 -0.666992 38.166 -1.33398 50.499 -2.00098s21.833 -1.33398 28.5 -2.00098c4.66699 0 8.5 -0.333008 11.5 -1s5.83301 -1 8.5 -1
c4 -0.666992 8 -1.16699 12 -1.5s9.33301 -0.5 16 -0.5c6 0 12.5 0.333008 19.5 1s14.5 1.33398 22.5 2.00098c2.66699 0.666992 5.33398 1.16699 8.00098 1.5s5.33398 0.5 8.00098 0.5c9.33301 1.33301 18.666 2.16602 27.999 2.49902s20 0.5 32 0.5h10v-29h-10
c-27.333 0 -43.333 -10.833 -48 -32.5s-7 -69.167 -7 -142.5c0 -8.66699 -0.166992 -17.334 -0.5 -26.001s-0.5 -17.334 -0.5 -26.001c0 -8 -0.166992 -15.833 -0.5 -23.5s-0.5 -15.167 -0.5 -22.5c0 -31.333 3.83301 -56.833 11.5 -76.5s24.834 -30.5 51.501 -32.5
c0.666992 0 1.33398 0.166992 2.00098 0.5s1.33398 0.5 2.00098 0.5h2h2h10v-31h-10h-6h-6h-3h-3c-10 0 -18.833 0.333008 -26.5 1l-22.5 2c-0.666992 0.666992 -1.5 1 -2.5 1h-2.5c-2 0 -4 0.166992 -6 0.5s-4 0.833008 -6 1.5l-21 2
c-7.33301 0.666992 -15.666 1 -24.999 1c-8.66699 0 -16.667 -0.333008 -24 -1l-21 -2c-2 -0.666992 -4 -1.16699 -6 -1.5s-4 -0.5 -6 -0.5s-3.83301 -0.166992 -5.5 -0.5s-3.5 -0.833008 -5.5 -1.5c-6 -0.666992 -12.5 -1.16699 -19.5 -1.5s-15.5 -0.5 -25.5 -0.5h-10h-7.5
h-8.5v0z" />
    <glyph glyph-name="tilde" 
 />
    <glyph glyph-name="greater" unicode="&#xa0;" 
 />
    <glyph glyph-name="Z" unicode="&#xa1;" horiz-adv-x="709" 
d="M250 14l35.0107 0.00195312c-1.33301 -4.66699 -2.33301 -9.33398 -3 -14.001s-1 -9.33398 -1 -14.001c0 -22 6.5 -40.333 19.5 -55s27.167 -23.334 42.5 -26.001h1.5h1.5c13.333 1.33301 24.166 7.33301 32.499 18s12.5 27.334 12.5 50.001c0 32 -16 81 -48 147
s-81.667 179.333 -149 340c-20 49.333 -37 87.5 -51 114.5s-27.667 45.5 -41 55.5c-4 3.33301 -8.33301 5.83301 -13 7.5s-9.33398 2.5 -14.001 2.5h-15v39h10h17c6 0 12 -0.166992 18 -0.5s12 -1.16602 18 -2.49902c2.66699 0 5.16699 -0.166992 7.5 -0.5
s4.83301 -0.833008 7.5 -1.5c4 -0.666992 8 -1.16699 12 -1.5s8 -0.833008 12 -1.5c6 -0.666992 12.333 -1.16699 19 -1.5s13 -0.5 19 -0.5c12.667 0 25 0.666992 37 2l36 4c8.66699 1.33301 17.167 2.33301 25.5 3s16.833 1 25.5 1h10h24v-39h-10
c-0.666992 0 -1.5 0.166992 -2.5 0.5s-1.83301 0.5 -2.5 0.5s-1.5 0.166992 -2.5 0.5s-1.83301 0.5 -2.5 0.5c-10.667 -1.33301 -19.834 -5.66602 -27.501 -12.999s-11.5 -17.666 -11.5 -30.999c0 -6.66699 4 -24.167 12 -52.5s29.667 -88.5 65 -180.5
c34 -89.333 55.5 -149 64.5 -179s14.5 -53.333 16.5 -70h1c1.33301 5.33301 2.5 10.666 3.5 15.999s2.16699 10.666 3.5 15.999c4 18.667 9 38.167 15 58.5l24 78.5c24 79.333 42 134.833 54 166.5s20 58.5 24 80.5c1.33301 6 2.16602 12 2.49902 18s0.5 12.333 0.5 19
c0 22.667 -4.16699 40.167 -12.5 52.5s-20.166 19.166 -35.499 20.499c-0.666992 0 -1.5 -0.166992 -2.5 -0.5s-2.16699 -0.5 -3.5 -0.5h-0.5h-1.5c-0.666992 0 -1.33398 -0.166992 -2.00098 -0.5s-1.33398 -0.5 -2.00098 -0.5h-10v39h10c14 0 24.667 -0.5 32 -1.5
s14 -1.83301 20 -2.5h1h1c6 -1.33301 13 -2.5 21 -3.5s20 -1.5 36 -1.5c14.667 0 26.334 0.5 35.001 1.5s16 2.16699 22 3.5c1.33301 0 2.66602 0.166992 3.99902 0.5s2.66602 0.5 3.99902 0.5l14 2c4.66699 0.666992 10.667 1 18 1h10h19v-39h-10h-2h-2
c-0.666992 0 -1.33398 0.166992 -2.00098 0.5s-1.33398 0.5 -2.00098 0.5c-6.66699 -0.666992 -13.334 -2.5 -20.001 -5.5s-13 -7.5 -19 -13.5c-22.667 -20.667 -47 -65 -73 -133s-61.333 -175.333 -106 -322c-13.333 -43.333 -25.833 -81.833 -37.5 -115.5
s-23.167 -62.834 -34.5 -87.501c-20.667 -45.333 -42.334 -78 -65.001 -98s-50 -30 -82 -30l-10 -1c-26.667 0.666992 -46.834 9.5 -60.501 26.5s-20.5 38.5 -20.5 64.5v3.5c0 1 0.333008 2.16699 1 3.5c0.666992 5.33301 2.33398 11.333 5.00098 18
s5.66699 15.334 9 26.001c2 5.33301 3.66699 10.833 5 16.5s2.66602 12.5 3.99902 20.5h10v0zM414.011 863.002l-0.000976562 -54.001c0 -14 5.66699 -25.167 17 -33.5s24 -13.166 38 -14.499c9.33301 0.666992 20 3.16699 32 7.5s24 12.166 36 23.499
c8.66699 7.33301 17.334 16.833 26.001 28.5s16.667 25.834 24 42.501h10l19.5 -16c6.33301 -5.33301 12.833 -10.333 19.5 -15c-44.667 -58 -87.834 -93 -129.501 -105s-76.5 -18 -104.5 -18h-10c-26 0 -46.167 8 -60.5 24s-25.166 35.333 -32.499 58
c17.333 8.66699 33.833 19 49.5 31s30.5 25.667 44.5 41h10h11v0z" />
    <glyph glyph-name="slash" unicode="&#xa2;" horiz-adv-x="543" 
d="M63 411l-0.00390625 30.998h10h7.5h7.5c7.33301 0 13.833 -0.166992 19.5 -0.5s11.167 -1.16602 16.5 -2.49902c2 0 3.83301 -0.166992 5.5 -0.5s3.5 -0.5 5.5 -0.5s4 -0.166992 6 -0.5s4.33301 -0.833008 7 -1.5c4.66699 -0.666992 9.66699 -1.16699 15 -1.5
s11.333 -0.5 18 -0.5c8.66699 0 17.334 0.5 26.001 1.5s18 1.83301 28 2.5h3c0.666992 0 1.66699 0.333008 3 1c8.66699 0.666992 18.167 1.16699 28.5 1.5s23.5 0.833008 39.5 1.5h10v-31h-10h-1.5c-0.333008 0 -0.833008 0.333008 -1.5 1h-1.5h-1.5
c-14 0 -23.667 -3.83301 -29 -11.5s-8.33301 -16.167 -9 -25.5v-2.5v-2.5c0 -38 3.33301 -65.833 10 -83.5s14.667 -33.5 24 -47.5l10 -14.5l10 -15.5c10 -16 19.333 -37.167 28 -63.5s15.334 -64.5 20.001 -114.5c0.666992 6.66699 1.5 13 2.5 19s2.16699 12 3.5 18
c2 12.667 4.66699 25.667 8 39s7.66602 29.333 12.999 48c24 88 38.333 144.833 43 170.5s7 41.834 7 48.501c0 11.333 -3 20.333 -9 27s-13.667 10 -23 10h-14v31h10h17c7.33301 0 12.833 -0.333008 16.5 -1s6.83398 -1.33398 9.50098 -2.00098
c0.666992 0 1.33398 -0.166992 2.00098 -0.5s1.33398 -0.5 2.00098 -0.5c2.66699 -0.666992 6.5 -1.5 11.5 -2.5s12.5 -1.5 22.5 -1.5c11.333 0 20.5 0.5 27.5 1.5s13.833 1.83301 20.5 2.5c2.66699 0.666992 5 1.16699 7 1.5s4.33301 0.5 7 0.5
c4 0.666992 8.5 1.16699 13.5 1.5s10.833 0.5 17.5 0.5h10v-31h-10c-0.666992 0.666992 -1.66699 1 -3 1h-4c-22.667 -1.33301 -39.834 -14.333 -51.501 -39s-22.167 -52.667 -31.5 -84l-4 -12.5l-4 -12.5c-0.666992 -4 -1.66699 -7.83301 -3 -11.5l-4 -11.5
c-22.667 -66 -41 -126 -55 -180s-27.333 -101.333 -40 -142c-16.667 -52 -34.834 -92 -54.501 -120s-48.834 -42 -87.501 -42l-10 -1c-9.33301 0.666992 -21.666 2 -36.999 4s-31.666 8.33301 -48.999 19c11.333 14.667 20.833 30.167 28.5 46.5s13.834 33.833 18.501 52.5
l10 -1c6.66699 -8.66699 15 -16.834 25 -24.501s20.333 -13.5 31 -17.5c3.33301 -1.33301 6.66602 -2.33301 9.99902 -3l10 -2c2.66699 0 5.33398 0.333008 8.00098 1s5.33398 1.66699 8.00098 3c7.33301 3.33301 14.166 9 20.499 17s9.5 19.667 9.5 35
c0 12.667 -5.16699 33.834 -15.5 63.501s-38.5 99.834 -84.5 210.501l-67.5 162c-15 35.333 -28.5 59.333 -40.5 72c-6 6.66699 -12.167 11.167 -18.5 13.5s-13.5 3.5 -21.5 3.5h-12v0zM316.996 687.998l12 -6.00098c0 -1.33301 -0.166992 -2.66602 -0.5 -3.99902
s-0.833008 -2.66602 -1.5 -3.99902c0 -2.66699 -0.166992 -5.33398 -0.5 -8.00098s-0.5 -5.33398 -0.5 -8.00098c0 -24.667 8.5 -45.334 25.5 -62.001s37.5 -25.667 61.5 -27c24.667 0.666992 45.667 7.83398 63 21.501s31.666 28.5 42.999 44.5
c6.66699 10 12.167 19.667 16.5 29s7.83301 17.333 10.5 24h10l34 -17c-22 -40.667 -51.833 -76.5 -89.5 -107.5s-79.167 -46.5 -124.5 -46.5h-10c-29.333 0 -53.666 5.83301 -72.999 17.5s-34.666 24.167 -45.999 37.5c-6 7.33301 -10.833 14.333 -14.5 21
s-6.83398 12.667 -9.50098 18c18 9.33301 34 20.333 48 33s26 27.334 36 44.001h10v0z" />
    <glyph glyph-name="endash" unicode="&#xa3;" horiz-adv-x="402" 
d="M41 -68l35 0.000976562c-1.33301 -5.33301 -2.5 -11.5 -3.5 -18.5s-1.5 -13.833 -1.5 -20.5v-1.5v-1.5c0.666992 -16.667 4.16699 -32 10.5 -46s17.5 -21.667 33.5 -23c50.667 4.66699 80.834 59.167 90.501 163.5s14.5 219.166 14.5 344.499v18.5v18.5v26v26
c0 8 0.166992 16.333 0.5 25s0.5 17.334 0.5 26.001c0 8 0.166992 16.333 0.5 25s0.5 17 0.5 25c0 33.333 -3.16699 62.166 -9.5 86.499s-21.166 36.5 -44.499 36.5h-21v37h10h33c4 0 8 -0.166992 12 -0.5s8.33301 -0.833008 13 -1.5c2 0 4 -0.166992 6 -0.5s4 -0.5 6 -0.5
c2 -0.666992 4 -1.16699 6 -1.5s4 -0.5 6 -0.5c4 -0.666992 8 -1.16699 12 -1.5s8.33301 -0.833008 13 -1.5c4 0 8 -0.166992 12 -0.5s8 -0.5 12 -0.5c8.66699 0 17.167 0.5 25.5 1.5s16.5 1.83301 24.5 2.5c2 0 4 0.166992 6 0.5s4 0.833008 6 1.5c2 0 4 0.166992 6 0.5
s4.33301 0.5 7 0.5c4 0.666992 8 1.16699 12 1.5s8 0.5 12 0.5h10h33v-37h-21c-24.667 0 -39.5 -20.333 -44.5 -61s-7.83301 -106 -8.5 -196c0 -12 -0.166992 -24.333 -0.5 -37s-0.5 -25.667 -0.5 -39c-0.666992 -8.66699 -1 -17.334 -1 -26.001v-26v-11.5
c0 -3.66699 0.333008 -7.5 1 -11.5v-11.5v-11.5c0 -12 0.166992 -24.167 0.5 -36.5s0.5 -24.5 0.5 -36.5v-36.5v-36.5c0 -15.333 -1.83301 -31.166 -5.5 -47.499s-8.83398 -32.833 -15.501 -49.5c-18.667 -46.667 -46.334 -90.667 -83.001 -132
s-75.334 -68.333 -116.001 -81c-6.66699 -2 -13.667 -3.66699 -21 -5s-14.333 -2 -21 -2l-10 -1c-29.333 0.666992 -50.666 8.5 -63.999 23.5s-20 32.167 -20 51.5c0 2.66699 0.166992 5 0.5 7s0.5 4 0.5 6c2 8 5.5 18 10.5 30s11.5 34.667 19.5 68l10 -1v0z" />
    <glyph glyph-name="quotedblleft" unicode="&#xa4;" 
 />
    <glyph glyph-name="emdash" unicode="&#xa5;" 
 />
    <glyph glyph-name="circumflex" unicode="&#xa6;" horiz-adv-x="262" 
d="M115 64c0 22 5.16602 39.167 15.499 51.5s21.833 20.5 34.5 24.5c2.66699 0.666992 5.33398 1.16699 8.00098 1.5s5.33398 0.5 8.00098 0.5h10c18 0 33.833 -7.33301 47.5 -22s20.5 -33.334 20.5 -56.001v-1.5v-1.5c-0.666992 -18.667 -6.66699 -35.5 -18 -50.5
s-28 -22.5 -50 -22.5l-10 -1c-18.667 0.666992 -34.334 7.83398 -47.001 21.501s-19 32.167 -19 55.5v0zM114.999 357c0 23.333 6.33398 42.001 19.001 56.001s28.334 21 47.001 21h10c22 0 38.667 -7.66699 50 -23s17.333 -32.333 18 -51v-1.5v-1.5
c0 -22.667 -6.83301 -41.334 -20.5 -56.001s-29.5 -22 -47.5 -22h-10c-2.66699 0 -5.33398 0.166992 -8.00098 0.5s-5.33398 0.833008 -8.00098 1.5c-12.667 4 -24.167 12.167 -34.5 24.5s-15.5 29.5 -15.5 51.5v0z" />
    <glyph glyph-name="scaron" unicode="&#xa7;" horiz-adv-x="541" 
d="M536 618c-18.667 -10 -36.3271 -21.1699 -52.9941 -33.5029s-32.667 -25.833 -48 -40.5h-10c-2.66699 41.333 -13.334 72.333 -32.001 93s-39.334 31.667 -62.001 33c-16.667 -1.33301 -31 -8.33301 -43 -21s-18 -27.667 -18 -45c0 -22 8.66699 -44.5 26 -67.5
s39 -49.167 65 -78.5l15.5 -17.5c5 -5.66699 10.167 -11.167 15.5 -16.5c41.333 -47.333 79.333 -98 114 -152s52 -115.667 52 -185c0 -8 -0.333008 -16 -1 -24s-1.66699 -16 -3 -24c-11.333 -70 -44 -134.333 -98 -193s-117 -88 -189 -88l-10 -1
c-36 0.666992 -68.667 7.83398 -98 21.501s-54.333 31.5 -75 53.5c19.333 10.667 38 22.834 56 36.501s35 29.167 51 46.5l10 -1v-1v-2v-2v-2c0 -29.333 7.5 -54.333 22.5 -75s33.833 -31.667 56.5 -33c2.66699 0 5.5 0.333008 8.5 1s6.16699 1.66699 9.5 3
c11.333 3.33301 21.833 10.333 31.5 21s14.5 26.667 14.5 48c0 22 -8.16699 46.167 -24.5 72.5s-39.5 57.833 -69.5 94.5l-22 27l-22 29c-32.667 41.333 -62.334 86.833 -89.001 136.5s-40 104.834 -40 165.501c0 6 0.166992 12 0.5 18s0.833008 11.667 1.5 17
c6.66699 68 32.167 130.167 76.5 186.5s106.166 84.5 185.499 84.5h10h10c3.33301 0 6.66602 -0.333008 9.99902 -1c31.333 -2 61.666 -9.5 90.999 -22.5s54 -33.5 74 -61.5v0zM222.007 623.997l-4 2.99414c-5.33301 -5.33301 -10 -10.666 -14 -15.999s-8 -11 -12 -17
c-14 -22 -23.167 -43.5 -27.5 -64.5s-6.5 -39.833 -6.5 -56.5c0 -52 11.833 -98.833 35.5 -140.5s49.5 -81.5 77.5 -119.5l7.5 -11c2.33301 -3.33301 4.83301 -6.66602 7.5 -9.99902c22.667 -30.667 42.167 -58.167 58.5 -82.5s29.166 -48.166 38.499 -71.499
c7.33301 -16.667 12.833 -33.5 16.5 -50.5s5.5 -35.167 5.5 -54.5c0 -14 -0.833008 -26.833 -2.5 -38.5s-4.5 -23.167 -8.5 -34.5c0 -2 -0.333008 -3.83301 -1 -5.5s-1.33398 -3.16699 -2.00098 -4.5l4 -4c7.33301 8 13.833 16 19.5 24s10.834 16 15.501 24
c15.333 26.667 25 52.334 29 77.001s6 46.334 6 65.001c0 43.333 -9.66699 83.833 -29 121.5s-40.666 72.167 -63.999 103.5l-20 25.5l-19 24.5c-23.333 30 -44.833 59.333 -64.5 88s-34.5 57.334 -44.5 86.001c-4.66699 12 -8.16699 24.167 -10.5 36.5s-3.5 24.5 -3.5 36.5
c0 11.333 1 22.5 3 33.5s5 21.833 9 32.5v0z" />
    <glyph glyph-name="H" unicode="&#xa8;" horiz-adv-x="571" 
d="M108 678l26.9941 -0.00585938c12.667 0 23.167 -0.333008 31.5 -1l24.5 -2c1.33301 0 2.83301 -0.166992 4.5 -0.5s3.16699 -0.5 4.5 -0.5c10 -1.33301 21 -2.33301 33 -3s28.333 -1 49 -1c50 0 92.833 0.5 128.5 1.5s69.834 2.5 102.501 4.5
c6.66699 0 13.5 0.166992 20.5 0.5s13.833 0.833008 20.5 1.5h10c-2 -12 -3.83301 -22.333 -5.5 -31s-3.5 -16.667 -5.5 -24c-0.666992 -3.33301 -1.5 -6.66602 -2.5 -9.99902s-1.83301 -6.66602 -2.5 -9.99902c-1.33301 -3.33301 -2.33301 -6.83301 -3 -10.5
s-1.66699 -7.16699 -3 -10.5c-0.666992 -3.33301 -1.5 -6.5 -2.5 -9.5s-1.83301 -5.83301 -2.5 -8.5c0 -0.666992 -0.166992 -1.5 -0.5 -2.5s-0.833008 -2.16699 -1.5 -3.5c-1.33301 -5.33301 -2.66602 -11.166 -3.99902 -17.499l-5 -23.5h-10h-38
c0 2 0.333008 4.83301 1 8.5s1 7.83398 1 12.501c0 0.666992 0.166992 1.33398 0.5 2.00098s0.5 1.33398 0.5 2.00098c0.666992 5.33301 1.16699 10.5 1.5 15.5s0.5 8.16699 0.5 9.5c0 16.667 -3.83301 29.167 -11.5 37.5s-16.167 14.166 -25.5 17.499
c-6.66699 2 -12.834 3.33301 -18.501 4s-10.167 1 -13.5 1h-24h-25c-8.66699 0 -17.334 -0.166992 -26.001 -0.5s-16.667 -0.833008 -24 -1.5c-2 -20.667 -3.5 -39 -4.5 -55s-1.5 -31.333 -1.5 -46v-24v-25v-10v-10v-80c5.33301 0 11.833 -0.166992 19.5 -0.5
s15.834 -0.5 24.501 -0.5h14h13c34.667 0 59.5 3.83301 74.5 11.5s22.5 27.167 22.5 58.5v4.5v4.5h10h38c-1.33301 -10 -2.83301 -20 -4.5 -30s-3.16699 -20 -4.5 -30c-0.666992 -6.66699 -1.5 -13.5 -2.5 -20.5s-1.83301 -13.833 -2.5 -20.5
c-1.33301 -6.66699 -2.16602 -13.5 -2.49902 -20.5s-0.5 -13.833 -0.5 -20.5v-68h-10h-36c1.33301 5.33301 2 10.166 2 14.499v11.5c0 22 -5.16699 37.333 -15.5 46s-21.5 14 -33.5 16l-11.5 2c-3.66699 0.666992 -7.16699 1 -10.5 1h-2h-1h-2h-2h-16.5h-16.5h-11.5h-10.5
c-0.666992 -0.666992 -1.16699 -1 -1.5 -1h-0.5h-10h-10c-0.666992 -16.667 -1 -34.834 -1 -54.501v-59.5v-24.5v-24.5c0 -56 5.5 -91 16.5 -105s27.5 -22.667 49.5 -26l18 -2c6 -0.666992 11.667 -1 17 -1s10.666 0.333008 15.999 1s10.333 1.33398 15 2.00098
c5.33301 0.666992 10.5 1.5 15.5 2.5s10.167 2.5 15.5 4.5c15.333 6 30.333 16.667 45 32s27.334 40.333 38.001 75h10h36c-2.66699 -58.667 -11.5 -99 -26.5 -121s-32.833 -35.333 -53.5 -40c-4.66699 -1.33301 -9.16699 -2.16602 -13.5 -2.49902s-8.83301 -0.5 -13.5 -0.5
l-10 -1c-4.66699 0.666992 -9.16699 1.16699 -13.5 1.5s-8.83301 0.833008 -13.5 1.5c-2 0 -4.16699 0.166992 -6.5 0.5s-4.5 0.5 -6.5 0.5c-6 0.666992 -12 1.16699 -18 1.5s-11.667 0.833008 -17 1.5c-6 0.666992 -12 1.16699 -18 1.5s-12 0.833008 -18 1.5
c-4.66699 0.666992 -9.66699 1.16699 -15 1.5s-10.666 0.5 -15.999 0.5c-2.66699 0.666992 -5.5 1 -8.5 1s-6.16699 0.333008 -9.5 1c-5.33301 0.666992 -10.5 1.16699 -15.5 1.5s-9.83301 0.5 -14.5 0.5c-5.33301 0 -10.5 0.166992 -15.5 0.5s-10.167 0.5 -15.5 0.5
s-10.5 0.166992 -15.5 0.5s-10.167 0.5 -15.5 0.5c-2 0 -4.16699 0.166992 -6.5 0.5s-4.83301 0.5 -7.5 0.5h-7.5h-6.5h-9c-3.33301 0 -6.66602 -0.333008 -9.99902 -1c-2 0 -3.83301 -0.166992 -5.5 -0.5s-3.5 -0.5 -5.5 -0.5c-1.33301 -0.666992 -2.83301 -1 -4.5 -1h-4.5
c-7.33301 -1.33301 -15.166 -2.33301 -23.499 -3s-19.166 -1 -32.499 -1h-10v38h19c24.667 0 40.5 13.333 47.5 40s10.5 56 10.5 88v22v21v2v2c0 27.333 -0.166992 50.833 -0.5 70.5s-0.5 37.167 -0.5 52.5v33.5c0 10.333 -0.333008 20.5 -1 30.5v8v8v12v12
c-0.666992 3.33301 -1 7 -1 11v12v15.5v14.5v11v13c0 6 -0.166992 12.167 -0.5 18.5s-0.5 12.833 -0.5 19.5c-2 20.667 -6.66699 39.834 -14 57.501s-20.333 27.5 -39 29.5c-0.666992 0 -1.5 -0.166992 -2.5 -0.5s-1.83301 -0.5 -2.5 -0.5s-1.5 -0.166992 -2.5 -0.5
s-1.83301 -0.5 -2.5 -0.5h-10v38h10v0zM155.994 778.994c0 3.33301 0.332031 6.66895 0.999023 10.002s1.66699 6.66602 3 9.99902c4 9.33301 11.667 17.666 23 24.999s28.666 11 51.999 11h10c23.333 0 40.833 -4.33301 52.5 -13s18.834 -18 21.501 -28
c0 -1.33301 0.166992 -2.83301 0.5 -4.5s0.5 -3.16699 0.5 -4.5c0 -2.66699 -0.166992 -5.5 -0.5 -8.5s-1.16602 -5.83301 -2.49902 -8.5c-3.33301 -10 -10.5 -19 -21.5 -27s-28.833 -12 -53.5 -12h-10c-24.667 0 -42.667 4.33301 -54 13s-18.333 18 -21 28
c0 1.33301 -0.166992 2.83301 -0.5 4.5s-0.5 3.16699 -0.5 4.5v0zM377.993 781.997v4.5c0 1.66699 0.333008 3.16699 1 4.5c2 12 9.16699 22.833 21.5 32.5s31.166 14.5 56.499 14.5h10c22.667 0 39.834 -4.16699 51.501 -12.5s19.167 -17.5 22.5 -27.5
c0 -2 0.166992 -3.83301 0.5 -5.5s0.5 -3.5 0.5 -5.5c0 -14 -6 -26.833 -18 -38.5s-32 -17.5 -60 -17.5h-10c-25.333 0 -43.833 4.5 -55.5 13.5s-18.167 19.167 -19.5 30.5c-0.666992 1.33301 -1 2.5 -1 3.5v3.5v0z" />
    <glyph glyph-name="I" unicode="&#xa9;" horiz-adv-x="814" 
d="M45 340c0 107.333 36.834 193.502 110.501 258.502s154.834 97.833 243.501 98.5h1.5h1.5h10c99.333 0 183.666 -35.333 252.999 -106s104 -154.334 104 -251.001c0 -100.667 -35.333 -185.334 -106 -254.001s-154.334 -103 -251.001 -103l-10 -1
c-98 0.666992 -182 35.5 -252 104.5s-105 153.5 -105 253.5v0zM104.001 340.002c0 -85.333 29.833 -157.672 89.5 -217.005s130.834 -89.666 213.501 -90.999c85.333 1.33301 157.166 32.333 215.499 93s87.5 132.334 87.5 215.001c0 84.667 -30 156.834 -90 216.501
s-131.333 90.167 -214 91.5c-82.667 -1.33301 -153.667 -31.666 -213 -90.999s-89 -131.666 -89 -216.999v0zM540.001 438.996l-17.002 -0.00292969c-2.66699 35.333 -16 57.166 -40 65.499s-53 12.5 -87 12.5c-3.33301 0 -6.5 -0.166992 -9.5 -0.5
s-6.16699 -0.833008 -9.5 -1.5c-29.333 -6 -56.166 -23.5 -80.499 -52.5s-36.5 -69.167 -36.5 -120.5c0 -9.33301 0.833008 -19 2.5 -29s4.16699 -20.333 7.5 -31c10 -27.333 26.667 -52.666 50 -75.999s54.666 -35.666 93.999 -36.999c29.333 0.666992 53 5.5 71 14.5
s32 18.833 42 29.5c2.66699 2.66699 5 5.33398 7 8.00098l6 8h10l20 -1c-0.666992 -1.33301 -1.16699 -2.5 -1.5 -3.5s-0.833008 -2.16699 -1.5 -3.5v-0.5v-0.5c-0.666992 -0.666992 -1.33398 -1.83398 -2.00098 -3.50098s-1.33398 -3.5 -2.00098 -5.5
c-1.33301 -2.66699 -2.66602 -5.5 -3.99902 -8.5s-2.66602 -5.83301 -3.99902 -8.5c-8 -15.333 -21.5 -29.333 -40.5 -42s-51.167 -19 -96.5 -19h-10c-70.667 0 -125.667 21.667 -165 65s-59 92 -59 146c0 55.333 19.833 104 59.5 146s92.167 63 157.5 63h10
c13.333 0 26 -0.666992 38 -2s22.333 -2.66602 31 -3.99902c2 0 4 -0.166992 6 -0.5s4 -0.833008 6 -1.5h1.5h1.5l16 -2c5.33301 -0.666992 11 -1 17 -1v0h1v0v0c2.66699 0 5.33398 0.166992 8.00098 0.5s5.33398 0.833008 8.00098 1.5h10
c-2.66699 -20 -4.16699 -36.167 -4.5 -48.5s-0.5 -24.166 -0.5 -35.499v-1v-2v-2.5v-3.5v-12h-10v0z" />
    <glyph glyph-name="J" unicode="&#xaa;" horiz-adv-x="709" 
d="M496 441h42.0059c-4 -18.667 -6.83301 -34.5 -8.5 -47.5s-2.83398 -25.167 -3.50098 -36.5c-0.666992 -1.33301 -1 -2.66602 -1 -3.99902v-4c-0.666992 -7.33301 -1.16699 -14.833 -1.5 -22.5s-0.5 -15.167 -0.5 -22.5v-13.5c0 -6.33301 0.333008 -13.166 1 -20.499
c0 -6.66699 0.166992 -13.167 0.5 -19.5s0.5 -10.833 0.5 -13.5h-10h-37v14c0 29.333 -7.5 48.5 -22.5 57.5s-47.167 13.833 -96.5 14.5c-5.33301 0 -13.833 -0.166992 -25.5 -0.5s-23.834 -0.833008 -36.501 -1.5c-2.66699 0 -5.33398 -0.166992 -8.00098 -0.5
s-5.33398 -0.5 -8.00098 -0.5c-12 -0.666992 -22.833 -1.33398 -32.5 -2.00098s-15.834 -1 -18.501 -1c-0.666992 -86.667 22.333 -156 69 -208s101.334 -78.667 164.001 -80c18 0.666992 44.5 5.33398 79.5 14.001s71.833 31.667 110.5 69l18.5 20.5
c6.33301 7 12.5 14.5 18.5 22.5h10h34c-21.333 -69.333 -52 -114.666 -92 -135.999s-101 -32 -183 -32l-10 -1c-120 0.666992 -211.5 38.167 -274.5 112.5s-94.5 161.833 -94.5 262.5c0 109.333 27.667 188.166 83 236.499s116.333 78.166 183 89.499
c14 2.66699 28 4.5 42 5.5s27.667 1.5 41 1.5h10c23.333 0 43 -1 59 -3s30.667 -4.33301 44 -7c2 -0.666992 4.33301 -1.16699 7 -1.5s5.33398 -0.833008 8.00098 -1.5c9.33301 -2 19.166 -3.66699 29.499 -5s22.166 -2 35.499 -2c4 0 8.83301 0.166992 14.5 0.5
s11.167 0.5 16.5 0.5c4 0.666992 8 1.16699 12 1.5s7.66699 0.5 11 0.5c2.66699 0.666992 5.16699 1.16699 7.5 1.5s4.5 0.5 6.5 0.5h10c-0.666992 -4.66699 -1.16699 -9.33398 -1.5 -14.001s-0.833008 -9 -1.5 -13c-0.666992 -10.667 -1.16699 -21.5 -1.5 -32.5
s-0.5 -22.5 -0.5 -34.5c0 -14.667 0.5 -29 1.5 -43s2.16699 -27.667 3.5 -41h-10h-41c-6.66699 49.333 -29.5 86.333 -68.5 111s-81.5 37.334 -127.5 38.001c-62 -1.33301 -108.667 -19.333 -140 -54s-53 -72.667 -65 -114c-6 -19.333 -10.333 -38.333 -13 -57
s-4.33398 -35.667 -5.00098 -51c12.667 -1.33301 27.667 -2.33301 45 -3l53 -2c15.333 0 30.5 -0.166992 45.5 -0.5s28.5 -0.5 40.5 -0.5h6h5c15.333 1.33301 29.5 6.66602 42.5 15.999s19.167 28.333 18.5 57h10v0z" />
    <glyph glyph-name="ampersand" unicode="&#xab;" horiz-adv-x="522" 
d="M322 479l19 -15l-130 -209l130 -198l-19 -15h-10l-256 213l256 224h10v0zM451 440l15 -13l-92 -172l92 -173l-15 -11h-10l-186 184l186 185h10v0z" />
    <glyph glyph-name="quotesingle" unicode="&#xac;" 
 />
    <glyph glyph-name="daggerdbl" unicode="&#xad;" horiz-adv-x="373" 
d="M85 191c6 14.667 11.3301 28.998 15.9971 42.998s8.66699 27.333 12 40h10c2.66699 0 5.33398 -0.333008 8.00098 -1s5.33398 -1 8.00098 -1c14.667 -2 31.667 -3.66699 51 -5s40 -2 62 -2h7.5h7.5c15.333 0.666992 30.666 1.5 45.999 2.5s29 1.83301 41 2.5
c7.33301 0.666992 14 1.33398 20 2.00098s11.333 1.33398 16 2.00098h10c-4.66699 -12.667 -9.16699 -26 -13.5 -40s-8.5 -28.333 -12.5 -43h-10h-6c-2 0 -4 0.333008 -6 1h-6h-6c-5.33301 0 -11 0.166992 -17 0.5s-12 0.833008 -18 1.5c-2.66699 0 -5.5 0.166992 -8.5 0.5
s-6.16699 0.5 -9.5 0.5c-6 0 -12 0.166992 -18 0.5s-12 0.5 -18 0.5c-9.33301 0 -19.666 -0.166992 -30.999 -0.5s-22.666 -0.5 -33.999 -0.5c-6 -0.666992 -11.833 -1 -17.5 -1s-11.167 -0.333008 -16.5 -1c-12.667 0 -24 -0.333008 -34 -1s-17.667 -1 -23 -1h-10v0z" />
    <glyph glyph-name="dagger" unicode="&#xae;" horiz-adv-x="654" 
d="M38 563l294 -294h-10c-82.667 2.66699 -151.667 31.167 -207 85.5s-84.333 123.833 -87 208.5h10v0zM469 308l-440.997 254.999c2.66699 88 33.5 159 92.5 213s126.167 81 201.5 81h10c81.333 0 150.666 -29.167 207.999 -87.5s86 -127.166 86 -206.499
c0 -18.667 -2.33301 -39.5 -7 -62.5s-13 -46.167 -25 -69.5c-10.667 -22 -25.334 -43.5 -44.001 -64.5s-42.334 -40.5 -71.001 -58.5h-10v0zM80.0029 562.999c0 -66.667 24 -125 72 -175s106.333 -75.667 175 -77c67.333 1.33301 125.333 26.333 174 75s73 107.667 73 177
s-24.333 128.333 -73 177s-106.667 73.667 -174 75c-68.667 -1.33301 -127 -26.833 -175 -76.5s-72 -108.167 -72 -175.5v0zM205.003 706.999c4 -0.666992 9.83203 -1.16895 17.499 -1.50195s15.834 -0.5 24.501 -0.5c6 0 11.833 0.166992 17.5 0.5
s10.834 0.833008 15.501 1.5h8.5c3 0 6.16699 0.333008 9.5 1h11h13h10c34.667 0 61.834 -7 81.501 -21s29.5 -32.667 29.5 -56v-6c0 -2 -0.333008 -4 -1 -6c-2 -18 -10.5 -34.667 -25.5 -50s-39.833 -24.666 -74.5 -27.999v-3c10.667 0 20.667 -1.83301 30 -5.5
s18.333 -10.167 27 -19.5c5.33301 -4.66699 10.666 -10.667 15.999 -18s10.666 -15.666 15.999 -24.999c1.33301 -1.33301 2.5 -3 3.5 -5l2.5 -5c5.33301 -8.66699 11.333 -16.667 18 -24s14 -11 22 -11h8v-15h-10h-5.5h-4.5c-14 0 -25.833 2.33301 -35.5 7
s-19.167 11.334 -28.5 20.001c-6 5.33301 -11.833 11.5 -17.5 18.5l-18.5 22.5c-3.33301 4 -6.5 8 -9.5 12s-6.16699 7.66699 -9.5 11c-8 9.33301 -16.333 17.333 -25 24s-19.334 10.667 -32.001 12c0 -10 0.166992 -18.333 0.5 -25s0.5 -12.334 0.5 -17.001
c0.666992 -4.66699 1 -8.5 1 -11.5s0.333008 -5.5 1 -7.5v-6v-7c0 -9.33301 1.66699 -16.833 5 -22.5s7.66602 -9.16699 12.999 -10.5h0.5h0.5h0.5h0.5h10v-13h-10c-9.33301 0.666992 -15.833 1.16699 -19.5 1.5s-6.5 0.5 -8.5 0.5h-1.5h-1.5h-10.5h-11.5
c-2.66699 0 -6.5 -0.166992 -11.5 -0.5s-10.167 -0.5 -15.5 -0.5s-10.666 -0.166992 -15.999 -0.5s-9 -0.5 -11 -0.5h-10v13h10h2c10.667 3.33301 16.834 16.5 18.501 39.5s2.5 49.833 2.5 80.5v10v10v14v13c0.666992 29.333 0 53 -2 71s-9.33301 27 -22 27h-9v12h10v0z
M289.002 647.997v-91.998c1.33301 -0.666992 3 -1 5 -1h7c3.33301 0 6.83301 0.166992 10.5 0.5s7.5 0.833008 11.5 1.5c14 3.33301 26.833 9.66602 38.5 18.999s17.5 25 17.5 47c0 25.333 -7.33301 42.666 -22 51.999s-30.667 14.333 -48 15
c-3.33301 0 -6.5 -0.166992 -9.5 -0.5s-6.16699 -0.833008 -9.5 -1.5l-1 -40v0z" />
    <glyph glyph-name="macron" unicode="&#xaf;" horiz-adv-x="339" 
d="M86 641l-0.00195312 38h10c25.333 0 41.666 -0.5 48.999 -1.5s12 -1.83301 14 -2.5l1 -1h1c2 -0.666992 6.33301 -1.5 13 -2.5s23.667 -1.5 51 -1.5c7.33301 0 15 0.333008 23 1s16.333 1.66699 25 3c4.66699 0 9.33398 0.333008 14.001 1s9.33398 1 14.001 1
c4 0.666992 8.16699 1.16699 12.5 1.5s8.5 0.5 12.5 0.5c5.33301 0.666992 10.666 1 15.999 1h17h10v-38h-21c-23.333 0 -38.166 -11.667 -44.499 -35s-9.16602 -52.333 -8.49902 -87v-25c0 -8.66699 0.333008 -17.334 1 -26.001v-11.5v-11.5v-14.5v-15.5v-52.5v-52.5v-16
v-16v-31.5v-31.5c0 -5.33301 0.166992 -10.5 0.5 -15.5s0.5 -10.167 0.5 -15.5c0.666992 -40 3.33398 -74.167 8.00098 -102.5s18.667 -43.5 42 -45.5c1.33301 0 2.5 0.166992 3.5 0.5s2.16699 0.5 3.5 0.5c0.666992 0 1.66699 0.166992 3 0.5s2.33301 0.5 3 0.5h10v-38h-10
h-36c-6.66699 0 -13.5 0.666992 -20.5 2l-20.5 4c-1.33301 0 -2.83301 0.166992 -4.5 0.5s-3.5 0.833008 -5.5 1.5c-5.33301 0.666992 -11.833 1.33398 -19.5 2.00098s-16.5 1 -26.5 1s-18.833 -0.333008 -26.5 -1s-14.167 -1.33398 -19.5 -2.00098
c-2 -0.666992 -3.83301 -1.16699 -5.5 -1.5s-3.16699 -0.5 -4.5 -0.5l-20 -4c-6.66699 -1.33301 -13.667 -2 -21 -2h-10h-37v38h10c1.33301 0 2.33301 -0.166992 3 -0.5s1.66699 -0.5 3 -0.5c0.666992 0 1.5 -0.166992 2.5 -0.5s1.83301 -0.5 2.5 -0.5
c25.333 2.66699 41.166 19.5 47.499 50.5s9.5 65.833 9.5 104.5v8v7c0 8 -0.166992 15.833 -0.5 23.5s-0.5 15.167 -0.5 22.5c0 10 -0.166992 19.833 -0.5 29.5s-0.5 18.834 -0.5 27.501v26v26v26v26v11.5v10.5v17c0 5.33301 0.333008 11 1 17v26.5v26.5
c0 33.333 -3 61.5 -9 84.5s-20.667 34.5 -44 34.5h-21v0zM39.998 779c0 3.33301 0.332031 6.66895 0.999023 10.002s1.66699 6.66602 3 9.99902c4 9.33301 11.667 17.666 23 24.999s28.666 11 51.999 11h10c23.333 0 40.833 -4.33301 52.5 -13s18.834 -18 21.501 -28
c0 -1.33301 0.166992 -2.83301 0.5 -4.5s0.5 -3.16699 0.5 -4.5c0 -2.66699 -0.166992 -5.5 -0.5 -8.5s-1.16602 -5.83301 -2.49902 -8.5c-3.33301 -10 -10.5 -19 -21.5 -27s-28.833 -12 -53.5 -12h-10c-24.667 0 -42.667 4.33301 -54 13s-18.333 18 -21 28
c0 1.33301 -0.166992 2.83301 -0.5 4.5s-0.5 3.16699 -0.5 4.5v0zM261.997 782.003l-0.000976562 2v2.5v2.5c1.33301 12.667 8.33301 24 21 34s32 15 58 15h10c22.667 0 39.834 -4.16699 51.501 -12.5s19.167 -17.5 22.5 -27.5c0 -2 0.166992 -3.83301 0.5 -5.5
s0.5 -3.5 0.5 -5.5c0 -14 -6 -26.833 -18 -38.5s-32 -17.5 -60 -17.5h-10c-25.333 0 -43.833 4.5 -55.5 13.5s-18.167 19.167 -19.5 30.5c-0.666992 1.33301 -1 2.5 -1 3.5v3.5v0z" />
    <glyph glyph-name="zero" unicode="&#xb0;" horiz-adv-x="335" 
d="M56 594c0 29.333 10.167 54.333 30.5 75s45.833 31 76.5 31h10c30 0 55.167 -10.333 75.5 -31s30.5 -45.667 30.5 -75c0 -30.667 -10.333 -56.167 -31 -76.5s-45.667 -30.5 -75 -30.5h-10c-29.333 0 -54.5 10.167 -75.5 30.5s-31.5 45.833 -31.5 76.5v0zM112 594
c0 -14.667 5.5 -28.168 16.5 -40.501s24.167 -19.166 39.5 -20.499c15.333 1.33301 28.333 8 39 20s16 25.667 16 41s-5.33301 28.833 -16 40.5s-23.667 18.167 -39 19.5c-13.333 -1.33301 -24.5 -6 -33.5 -14s-15.167 -16.667 -18.5 -26
c-1.33301 -4 -2.33301 -7.5 -3 -10.5s-1 -6.16699 -1 -9.5v0z" />
    <glyph glyph-name="at" unicode="&#xb1;" 
 />
    <glyph glyph-name="P" unicode="&#xb2;" horiz-adv-x="374" 
d="M103 641l-0.00292969 38.0029h10c24.667 0 41 -0.5 49 -1.5s13.667 -1.83301 17 -2.5c0 -0.666992 0.166992 -1 0.5 -1h0.5c4 -1.33301 9.5 -2.33301 16.5 -3s23.167 -1 48.5 -1s41.5 0.333008 48.5 1s12.5 1.66699 16.5 3h0.5c0.333008 0 0.5 0.333008 0.5 1
c3.33301 0.666992 9 1.5 17 2.5s24.333 1.5 49 1.5h10v-38h-21c-23.333 0 -38 -18.333 -44 -55s-8.66699 -115.667 -8 -237v-19.5v-19.5v-14v-15v-20.5c0 -7 -0.333008 -13.833 -1 -20.5v-5.5v-5.5c0 -8.66699 -0.166992 -17.334 -0.5 -26.001s-0.5 -17 -0.5 -25
c0 -37.333 3.33301 -69.833 10 -97.5s21.334 -42.5 44.001 -44.5c1.33301 0 2.5 0.166992 3.5 0.5s1.83301 0.5 2.5 0.5c1.33301 0 2.5 0.166992 3.5 0.5s1.83301 0.5 2.5 0.5h10v-38h-10h-37c-6.66699 0 -13.5 0.666992 -20.5 2l-20.5 4
c-1.33301 0 -2.83301 0.166992 -4.5 0.5s-3.5 0.833008 -5.5 1.5c-5.33301 0.666992 -11.833 1.33398 -19.5 2.00098s-16.5 1 -26.5 1s-18.667 -0.333008 -26 -1s-13.666 -1.33398 -18.999 -2.00098c-2 -0.666992 -3.83301 -1.16699 -5.5 -1.5s-3.16699 -0.5 -4.5 -0.5
c-4 -0.666992 -8.5 -1.5 -13.5 -2.5s-9.83301 -1.83301 -14.5 -2.5c-2 -0.666992 -4.16699 -1 -6.5 -1h-7.5h-10h-36v38h10h1.5h1.5c0 -0.666992 0.166992 -1 0.5 -1h1.5c16 0.666992 29 8.33398 39 23.001s15.333 34.667 16 60c0.666992 14 1.16699 27 1.5 39
s0.5 23.667 0.5 35l2 42c0.666992 13.333 1 26.666 1 39.999c0 5.33301 0.166992 10.666 0.5 15.999s0.5 11 0.5 17c0.666992 9.33301 1 18.666 1 27.999v27v12v13c-0.666992 4 -1 8 -1 12v12v15.5v14.5c-0.666992 5.33301 -1 10.333 -1 15v14
c-0.666992 51.333 -3.66699 92.333 -9 123s-19.666 46 -42.999 46h-21v0z" />
    <glyph glyph-name="S" unicode="&#xb3;" horiz-adv-x="318" 
d="M56 387l0.000976562 35.999h38c14 0 30.5 0.833008 49.5 2.5s38.5 4.5 58.5 8.5c15.333 2.66699 30.333 5.66699 45 9s28.334 7.33301 41.001 12h10c-0.666992 -6 -1.66699 -13.167 -3 -21.5s-2.33301 -17.833 -3 -28.5c-2 -18.667 -4 -41.167 -6 -67.5
s-3.33301 -57.166 -4 -92.499c-0.666992 -7.33301 -1 -14.833 -1 -22.5v-22.5v-10.5c0 -3.66699 0.333008 -7.16699 1 -10.5v-10v-10v-9.5v-8.5c0.666992 -32 3.66699 -58.333 9 -79s22 -31.334 50 -32.001h4.5c1.66699 0 3.16699 0.333008 4.5 1h10v-31h-10h-6h-6h-3h-3
c-10 0 -18.833 0.333008 -26.5 1l-22.5 2c-0.666992 0.666992 -1.5 1 -2.5 1h-2.5c-2 0 -4 0.166992 -6 0.5s-4 0.833008 -6 1.5l-21 2c-7.33301 0.666992 -15.333 1 -24 1s-16.834 -0.333008 -24.501 -1s-14.834 -1.33398 -21.501 -2.00098
c-2 -0.666992 -4 -1.16699 -6 -1.5s-4 -0.5 -6 -0.5s-3.83301 -0.166992 -5.5 -0.5s-3.5 -0.833008 -5.5 -1.5c-6 -0.666992 -12.5 -1.16699 -19.5 -1.5s-15.5 -0.5 -25.5 -0.5h-10h-6.5h-8.5v31h10h4.5c1.66699 0 2.83398 -0.333008 3.50098 -1
c27.333 2.66699 44.666 14.834 51.999 36.501s11 48.167 11 79.5c0 7.33301 -0.166992 15 -0.5 23s-0.5 16 -0.5 24s-0.166992 16.167 -0.5 24.5s-0.5 16.5 -0.5 24.5v10v10c0 40.667 -2.66699 72 -8 94s-24.666 33.333 -57.999 34
c-4.66699 0 -9.33398 -0.166992 -14.001 -0.5s-9.66699 -1.16602 -15 -2.49902h-10v0zM130.001 626.999c0 3.33301 0.169922 6.49902 0.50293 9.49902s1.16602 6.16699 2.49902 9.5c3.33301 12.667 10.666 24.334 21.999 35.001s26.666 16 45.999 16h10
c22 0 39 -6.66699 51 -20s18 -30 18 -50c0 -22 -6.33301 -38.833 -19 -50.5s-26.667 -18.5 -42 -20.5h-4h-4h-10c-20.667 0 -37.667 7.16699 -51 21.5s-20 30.833 -20 49.5v0z" />
    <glyph glyph-name="T" unicode="&#xb4;" 
 />
    <glyph glyph-name="U" unicode="&#xb5;" 
 />
    <glyph glyph-name="V" unicode="&#xb6;" horiz-adv-x="524" 
d="M259 679l0.00195312 -952h-10h-67v700h-14c-46.667 0 -80.834 11.5 -102.501 34.5s-33.834 48.5 -36.501 76.5c-0.666992 2.66699 -1 5.16699 -1 7.5v7.5v5.5v5.5c2.66699 28.667 14.667 55 36 79s56 36 104 36h10h81v0zM384.002 679h67v-952h-10h-67v952h10v0z" />
    <glyph glyph-name="quoteleft" unicode="&#xb8;" horiz-adv-x="514" 
d="M550 128v-53.002l-22.5 -10.5l-17.5 -8.5c-1.33301 -0.666992 -2.5 -1.16699 -3.5 -1.5s-2.16699 -0.833008 -3.5 -1.5c-4.66699 -2.66699 -9.33398 -5.5 -14.001 -8.5s-10.334 -6.16699 -17.001 -9.5l-14 -8l-15 -9c-17.333 -9.33301 -36.166 -17.666 -56.499 -24.999
s-42.5 -11 -66.5 -11l-10 -1c-58 0.666992 -110.167 22.667 -156.5 66s-69.5 101 -69.5 173c0 62.667 22 117.834 66 165.501s105.667 71.5 185 71.5h10c58.667 0 102.667 -12.667 132 -38s49.333 -53.333 60 -84c4.66699 -11.333 7.83398 -22.666 9.50098 -33.999
s2.83398 -22 3.50098 -32c-7.33301 -0.666992 -14.5 -1.5 -21.5 -2.5s-14.167 -1.83301 -21.5 -2.5c-18 -1.33301 -36.333 -2.33301 -55 -3s-39 -1 -61 -1h-10c-28.667 0 -56.834 0.666992 -84.501 2s-53.167 3.33301 -76.5 6v-4.5v-4.5
c-0.666992 -1.33301 -1 -2.83301 -1 -4.5v-4.5c0 -52.667 15.5 -97.334 46.5 -134.001s73.833 -55.667 128.5 -57c28 1.33301 54.5 8.5 79.5 21.5s47.167 28.833 66.5 47.5h10v0zM222 300.998c22 -2 41.3301 -3.33398 57.9971 -4.00098s31.334 -1 44.001 -1
s23.834 0.333008 33.501 1s19.167 1.66699 28.5 3c1.33301 0 2.5 0.166992 3.5 0.5s2.16699 0.5 3.5 0.5v4c0 1.33301 0.333008 2.33301 1 3v4v3c-0.666992 28.667 -7.66699 53.834 -21 75.501s-32.666 33.167 -57.999 34.5c-29.333 -1.33301 -50.833 -13.833 -64.5 -37.5
s-23.167 -52.5 -28.5 -86.5v0zM126.997 626.997c0 18.667 6.66699 35 20 49s30.333 21 51 21h10c17.333 0 33.333 -6 48 -18s22 -29.333 22 -52c0 -19.333 -6.33301 -36 -19 -50s-29.667 -21 -51 -21h-10c-20.667 0 -37.667 7.16699 -51 21.5s-20 30.833 -20 49.5v0z
M351.997 626.997c0 20.667 7.33301 37.5 22 50.5s31 19.5 49 19.5h10h1.5h1.5c16.667 -0.666992 31.834 -7 45.501 -19s20.5 -29 20.5 -51c0 -21.333 -6.33301 -37.833 -19 -49.5s-26.334 -18.5 -41.001 -20.5c-2 -0.666992 -3.83301 -1 -5.5 -1h-4.5h-10
c-20.667 0 -37.5 7.16699 -50.5 21.5s-19.5 30.833 -19.5 49.5v0z" />
    <glyph glyph-name="one" unicode="&#xb9;" horiz-adv-x="1074" 
d="M73 0l-0.00390625 35h10h1.5h1.5c0 -0.666992 0.166992 -1 0.5 -1h1.5c36.667 2.66699 58 38 64 106s9 159 9 273v20.5v21.5c0 40 -0.666992 74.167 -2 102.5s-2.66602 51.5 -3.99902 69.5c-0.666992 14.667 -1.5 26.167 -2.5 34.5s-1.83301 14.5 -2.5 18.5
c7.33301 3.33301 14.833 7 22.5 11s14.834 8 21.501 12h10c17.333 -26.667 44.333 -63 81 -109s105.667 -126 207 -240l112.5 -123c24.333 -26 42.5 -49 54.5 -69c2.66699 -4 5 -8 7 -12l6 -12c-0.666992 7.33301 -1.33398 14.166 -2.00098 20.499s-1 12.5 -1 18.5v14v15v21
v21v20.5v20.5v30.5c0 10.333 0.333008 20.833 1 31.5v10v10c0 14 0.166992 27.833 0.5 41.5s0.5 26.834 0.5 39.501c0 52 -4.66699 96.5 -14 133.5s-31.333 56.167 -66 57.5h-5c-2 0 -4 -0.333008 -6 -1h-10v38h10h18c12.667 0 21.167 -0.333008 25.5 -1
s8.16602 -1.66699 11.499 -3l0.5 -0.5c0.333008 -0.333008 0.833008 -0.5 1.5 -0.5c3.33301 -1.33301 8.83301 -2.5 16.5 -3.5s21.834 -1.5 42.501 -1.5h10c3.33301 0 6.66602 0.333008 9.99902 1c10.667 0.666992 22.5 1.83398 35.5 3.50098s32.167 3.5 57.5 5.5h10v-38
h-10c-1.33301 0 -2.66602 0.166992 -3.99902 0.5s-2.33301 0.5 -3 0.5c-1.33301 0 -2.66602 0.166992 -3.99902 0.5s-2.66602 0.5 -3.99902 0.5c-28 -2.66699 -44.667 -20.334 -50 -53.001s-8.66602 -76.667 -9.99902 -132v-6v-6l-3 -215.5
c-0.666992 -46.333 -1 -87.5 -1 -123.5v-1v-2c0 -12 0.166992 -23.833 0.5 -35.5s0.833008 -23.167 1.5 -34.5c0.666992 -6 1.16699 -11.833 1.5 -17.5s0.833008 -11.5 1.5 -17.5c-2.66699 -0.666992 -5.33398 -1.5 -8.00098 -2.5l-9 -3.5l-17 -6.5
c-6 -2.33301 -12 -4.83301 -18 -7.5l-10 -1c-4 7.33301 -8 14 -12 20l-13 19c-20 29.333 -45.667 61.833 -77 97.5l-138 152.5c-80 87.333 -134 148 -162 182s-48 62.333 -60 85c0.666992 -4 1.33398 -9 2.00098 -15s1.33398 -13.333 2.00098 -22l2.5 -47
c1 -18.667 1.5 -40.334 1.5 -65.001c0 -12 -0.166992 -23.833 -0.5 -35.5s-0.5 -23.5 -0.5 -35.5c-0.666992 -12 -1.16699 -23.833 -1.5 -35.5s-0.5 -23.5 -0.5 -35.5v-9.5v-9.5c0 -50 2.83301 -94.167 8.5 -132.5s26.167 -58.833 61.5 -61.5l12 2
c4 0.666992 8.33301 1.33398 13 2.00098h10v-35h-10h-21c-18.667 0 -30.5 0.5 -35.5 1.5s-8.83301 2.16699 -11.5 3.5v0v0c-2.66699 1.33301 -6.33398 2.5 -11.001 3.5s-14.667 1.5 -30 1.5c-6.66699 0 -13.5 -0.5 -20.5 -1.5s-14.167 -2.16699 -21.5 -3.5
c-8 -1.33301 -16.5 -2.5 -25.5 -3.5s-18.5 -1.5 -28.5 -1.5h-10h-23v0zM1085 108c-2.66699 -12 -5.83398 -24.001 -9.50098 -36.001s-7.83398 -24.333 -12.501 -37h-10c-2 0.666992 -5.16699 1.16699 -9.5 1.5s-9.16602 0.833008 -14.499 1.5s-11 1.16699 -17 1.5
s-12 0.833008 -18 1.5c-10 0.666992 -19.667 1.16699 -29 1.5s-17 0.5 -23 0.5h-21c-7.33301 0 -14.666 -0.333008 -21.999 -1c-16 0 -31.667 -0.666992 -47 -2s-29 -3 -41 -5h-10l6 18c2 6 4 12.333 6 19c2 6 3.83301 12 5.5 18s3.16699 12 4.5 18h10
c15.333 -2.66699 28.333 -4.66699 39 -6s21 -2.33301 31 -3c7.33301 -0.666992 14.833 -1.16699 22.5 -1.5s16.5 -0.5 26.5 -0.5h17.5h16.5c13.333 0.666992 27 1.83398 41 3.50098s30 4.16699 48 7.5h10v0zM790.996 359.999c0 48.667 13.833 91.167 41.5 127.5
s65.834 54.5 114.501 54.5h10c41.333 0 77.666 -15.667 108.999 -47s47 -74.666 47 -129.999c0 -54.667 -15.667 -98.334 -47 -131.001s-68.333 -49 -111 -49h-10c-44.667 0 -81.5 16.5 -110.5 49.5s-43.5 74.833 -43.5 125.5v0zM830.996 351.999
c0 -31.333 12 -56.001 36 -74.001s52.333 -27.667 85 -29c32 1.33301 57.167 10.333 75.5 27s30.5 35 36.5 55c1.33301 5.33301 2.33301 10.5 3 15.5s1 9.83301 1 14.5c0 30 -10.667 55.333 -32 76s-49 31.334 -83 32.001c-34.667 -0.666992 -63.667 -11.667 -87 -33
s-35 -49.333 -35 -84v0z" />
    <glyph glyph-name="G" unicode="&#xba;" horiz-adv-x="514" 
d="M435 230l-18.9941 -27.9971h-10c-2.66699 3.33301 -5.33398 6.33301 -8.00098 9s-5.33398 5 -8.00098 7c-6 4.66699 -12 7.66699 -18 9s-11.333 2.33301 -16 3c-4 -0.666992 -8 -1.5 -12 -2.5s-7.66699 -2.16699 -11 -3.5c-1.33301 -0.666992 -2.5 -1.16699 -3.5 -1.5
s-2.16699 -0.5 -3.5 -0.5c-10 -4 -19.333 -7.5 -28 -10.5s-17.334 -4.5 -26.001 -4.5h-10c-10.667 0 -21.334 2 -32.001 6s-20.334 9.33301 -29.001 16v-16c0 -52.667 10.5 -95.667 31.5 -129s46.833 -54 77.5 -62l10 -2c3.33301 -0.666992 6.66602 -1 9.99902 -1h4.5
c1.66699 0 3.5 0.333008 5.5 1c1.33301 0 2.83301 0.166992 4.5 0.5s3.16699 0.833008 4.5 1.5c19.333 5.33301 36 16.333 50 33s22.667 36.667 26 60h10c22 -12.667 42 -22.334 60 -29.001s33.667 -11.667 47 -15c-17.333 -32.667 -41.5 -55.167 -72.5 -67.5
s-64.167 -18.5 -99.5 -18.5l-10 -1c-74.667 0.666992 -141.667 21.667 -201 63s-89 102.333 -89 183c0 75.333 24.667 132.333 74 171s110 58 182 58h10c40.667 0 76.167 -5.66699 106.5 -17s59.5 -30.666 87.5 -57.999l3.5 -3.5l3.5 -3.5
c-14 -7.33301 -27.833 -15.333 -41.5 -24s-27.167 -18 -40.5 -28h-10c-2 5.33301 -4.5 11.166 -7.5 17.499s-6.5 12.5 -10.5 18.5c-9.33301 14.667 -22.666 28 -39.999 40s-39.666 18.667 -66.999 20c-29.333 -1.33301 -51.833 -10.333 -67.5 -27s-27.167 -34.667 -34.5 -54
c-5.33301 -15.333 -9 -29.833 -11 -43.5s-3.33301 -23.834 -4 -30.501c3.33301 -2.66699 7.16602 -5.33398 11.499 -8.00098s9.83301 -4.33398 16.5 -5.00098c6 0.666992 11.667 1.83398 17 3.50098s10.666 3.5 15.999 5.5c2 0.666992 4 1.5 6 2.5s4 1.83301 6 2.5
c16 6.66699 28.833 10.5 38.5 11.5s17.5 1.5 23.5 1.5h0.5h1.5h10c5.33301 0 14.5 -3.16699 27.5 -9.5s32.167 -19.833 57.5 -40.5v0z" />
    <glyph glyph-name="bracketleft" unicode="&#xbb;" horiz-adv-x="522" 
d="M210 479l256 -224l-256 -213h-10l-19 15l129 198l-129 209l19 15h10v0zM81 440l186 -185l-186 -184h-10l-15 11l92 173l-92 172l15 13h10v0z" />
    <glyph glyph-name="w" unicode="&#xbc;" horiz-adv-x="318" 
d="M76 390v33.002c44.667 0.666992 83.334 3.33398 116.001 8.00098s60.334 9.66699 83.001 15c6 2 11.833 3.66699 17.5 5s10.834 2.66602 15.501 3.99902h10c-2 -11.333 -4 -28.333 -6 -51s-3.33301 -46.334 -4 -71.001c-1.33301 -25.333 -2.33301 -49.5 -3 -72.5
s-1 -40.167 -1 -51.5v-12.5c0 -4.33301 0.333008 -8.5 1 -12.5v-13.5v-12.5v-6v-6v-7v-6c0 -110.667 -19.833 -201.167 -59.5 -271.5s-84.167 -105.5 -133.5 -105.5l-10 -1c-6 0.666992 -12.167 1.5 -18.5 2.5s-12.833 2.16699 -19.5 3.5
c-6.66699 2 -13.167 4.16699 -19.5 6.5s-12.5 5.16602 -18.5 8.49902c11.333 14.667 21.333 30.167 30 46.5s15.334 34.166 20.001 53.499l10 -1c5.33301 -8 12.166 -15.833 20.499 -23.5s17.166 -13.167 26.499 -16.5c2 -1.33301 4.16699 -2.33301 6.5 -3s4.5 -1 6.5 -1
c13.333 1.33301 22.666 6.16602 27.999 14.499s9 17.166 11 26.499c0 2 0.166992 3.83301 0.5 5.5s0.5 3.16699 0.5 4.5c0.666992 4.66699 1 9.16699 1 13.5v13.5v8v8c0 2.66699 -0.166992 5.33398 -0.5 8.00098s-0.5 5.33398 -0.5 8.00098c-0.666992 10 -1 20 -1 30v29
c0 22 0.5 43.667 1.5 65s1.83301 42 2.5 62c1.33301 20 2.33301 38.833 3 56.5s1 34.5 1 50.5c0 48.667 -7.33301 86.834 -22 114.501s-46.334 41.5 -95.001 41.5v0zM157 638.002c0 19.333 6.83301 35.833 20.5 49.5s30.167 20.5 49.5 20.5h10c17.333 0 33.333 -6 48 -18
s22 -29.333 22 -52c0 -19.333 -6.33301 -36 -19 -50s-29.667 -21 -51 -21h-10c-20.667 0 -37.5 7.16699 -50.5 21.5s-19.5 30.833 -19.5 49.5v0z" />
    <glyph glyph-name="bracketright" unicode="&#xbd;" horiz-adv-x="486" 
d="M94 191l42.002 0.00488281c2 -42.667 16.167 -79.5 42.5 -110.5s62.166 -47.167 107.499 -48.5c36.667 1.33301 63.5 12.666 80.5 33.999s25.5 45 25.5 71c0 31.333 -11.333 60 -34 86s-47.334 49.333 -74.001 70l-28 21l-27 19l-7.5 5.5l-7.5 5.5
c-29.333 21.333 -56.166 46 -80.499 74s-36.5 65.667 -36.5 113c0 50 18.5 89 55.5 117s84.833 42 143.5 42h10c8 0 14.833 -0.166992 20.5 -0.5s11.167 -0.833008 16.5 -1.5c7.33301 -0.666992 15.5 -1.5 24.5 -2.5s21.167 -2.16699 36.5 -3.5
c10.667 -0.666992 22.167 -1.33398 34.5 -2.00098l37.5 -2v-67c0 -10.667 0.166992 -20.334 0.5 -29.001s0.5 -17.334 0.5 -26.001l2 -22c0.666992 -7.33301 1.66699 -15.333 3 -24h-10h-37c-0.666992 6.66699 -1.66699 13.5 -3 20.5s-3 14.167 -5 21.5
c-7.33301 24.667 -19.5 47.167 -36.5 67.5s-42.167 31.166 -75.5 32.499c-32.667 -0.666992 -57.5 -9.83398 -74.5 -27.501s-25.5 -37.5 -25.5 -59.5c0 -29.333 11.667 -55.333 35 -78s48.666 -44 75.999 -64l13.5 -9.5l13.5 -9.5c41.333 -30 78.5 -63 111.5 -99
s49.5 -81 49.5 -135c0 -56 -26.167 -100 -78.5 -132s-109.833 -49 -172.5 -51h-5.5h-5.5l-10 -1c-75.333 0.666992 -119.833 12.834 -133.5 36.501s-21.167 62.5 -22.5 116.5c-0.666992 8 -1 16.333 -1 25s-0.333008 17.667 -1 27h10v0z" />
    </font>
</defs>
</svg>
